G04*
G04 #@! TF.GenerationSoftware,Altium Limited,Altium Designer,22.1.2 (22)*
G04*
G04 Layer_Color=8421504*
%FSLAX25Y25*%
%MOIN*%
G70*
G04*
G04 #@! TF.SameCoordinates,1A32ED5E-F4BE-4E84-8868-A45DA14C1EED*
G04*
G04*
G04 #@! TF.FilePolarity,Positive*
G04*
G01*
G75*
%ADD25R,0.19685X0.19685*%
%ADD26R,0.05512X0.04724*%
%ADD27R,0.03543X0.03347*%
%ADD28O,0.07087X0.01181*%
%ADD29O,0.01181X0.07087*%
%ADD30R,0.07087X0.02756*%
%ADD31R,0.08661X0.08000*%
%ADD32R,0.05512X0.06299*%
%ADD33R,0.03000X0.03000*%
%ADD34R,0.05118X0.02362*%
%ADD35R,0.02600X0.04724*%
%ADD36R,0.02600X0.08268*%
%ADD37O,0.07087X0.12500*%
%ADD38R,0.03347X0.03543*%
%ADD39O,0.02362X0.08661*%
%ADD40O,0.01378X0.06299*%
%ADD41R,0.01378X0.06299*%
%ADD42R,0.03000X0.03000*%
%ADD43R,0.07874X0.05906*%
%ADD44R,0.10236X0.05906*%
%ADD45O,0.02400X0.08000*%
%ADD46O,0.07874X0.02165*%
%ADD47R,0.01063X0.06084*%
%ADD48R,0.09843X0.08661*%
%ADD49R,0.02362X0.01968*%
%ADD50R,0.04724X0.05512*%
%ADD51R,0.04724X0.05118*%
%ADD52R,0.04724X0.05906*%
G04:AMPARAMS|DCode=53|XSize=55mil|YSize=50mil|CornerRadius=0mil|HoleSize=0mil|Usage=FLASHONLY|Rotation=0.000|XOffset=0mil|YOffset=0mil|HoleType=Round|Shape=Octagon|*
%AMOCTAGOND53*
4,1,8,0.02750,-0.01250,0.02750,0.01250,0.01500,0.02500,-0.01500,0.02500,-0.02750,0.01250,-0.02750,-0.01250,-0.01500,-0.02500,0.01500,-0.02500,0.02750,-0.01250,0.0*
%
%ADD53OCTAGOND53*%

%ADD54R,0.05500X0.05000*%
%ADD55R,0.04528X0.01181*%
%ADD56R,0.04520X0.01180*%
%ADD57R,0.01968X0.02362*%
%ADD58R,0.08661X0.07087*%
%ADD59R,0.05118X0.01181*%
G36*
X435114Y113793D02*
Y119506D01*
X430301D01*
Y113793D01*
X435114D01*
D02*
G37*
G36*
X440715D02*
Y119506D01*
X435902D01*
Y113793D01*
X440715D01*
D02*
G37*
D25*
X326772Y269075D02*
D03*
Y449431D02*
D03*
X212598Y269075D02*
D03*
Y449431D02*
D03*
X98425Y269075D02*
D03*
Y449431D02*
D03*
D26*
X320866Y7087D02*
D03*
Y20472D02*
D03*
X289370Y7087D02*
D03*
Y20472D02*
D03*
X59055Y105905D02*
D03*
X303000Y62693D02*
D03*
Y49307D02*
D03*
D27*
X292225Y87000D02*
D03*
X298327D02*
D03*
X681988Y174500D02*
D03*
X688090D02*
D03*
X666240Y168000D02*
D03*
X672342D02*
D03*
X672343Y174500D02*
D03*
X666241D02*
D03*
X672343Y195500D02*
D03*
X666241D02*
D03*
X666240Y202000D02*
D03*
X672342D02*
D03*
X315551Y35500D02*
D03*
X309449D02*
D03*
X688090Y195500D02*
D03*
X681988D02*
D03*
X535846Y101969D02*
D03*
X541948D02*
D03*
X555727D02*
D03*
X549624D02*
D03*
X656795Y138008D02*
D03*
X662897D02*
D03*
X647936D02*
D03*
X641833D02*
D03*
X647936Y94701D02*
D03*
X641833D02*
D03*
X662896D02*
D03*
X656794D02*
D03*
X412003Y72327D02*
D03*
X418106D02*
D03*
X38552Y354000D02*
D03*
X32449D02*
D03*
X29552Y320500D02*
D03*
X23449D02*
D03*
X510334Y167323D02*
D03*
X516437D02*
D03*
X518799Y210236D02*
D03*
X512697D02*
D03*
X499311D02*
D03*
X505413D02*
D03*
X118052Y26500D02*
D03*
X111949D02*
D03*
X672343Y282405D02*
D03*
X666241D02*
D03*
X666240Y231000D02*
D03*
X672342D02*
D03*
X666240Y237906D02*
D03*
X672342D02*
D03*
X666240Y224000D02*
D03*
X672342D02*
D03*
X666240Y253405D02*
D03*
X672342D02*
D03*
X666240Y246905D02*
D03*
X672342D02*
D03*
X579796Y297811D02*
D03*
X573693D02*
D03*
X565622D02*
D03*
X559520D02*
D03*
X520149D02*
D03*
X526252D02*
D03*
X540425D02*
D03*
X534323D02*
D03*
X414150Y137516D02*
D03*
X408048D02*
D03*
X400764D02*
D03*
X394662D02*
D03*
X198052Y161500D02*
D03*
X191949D02*
D03*
X59500Y37008D02*
D03*
X53398D02*
D03*
X40448D02*
D03*
X46551D02*
D03*
X307552Y70000D02*
D03*
X301449D02*
D03*
X341437Y172012D02*
D03*
X347539D02*
D03*
X341437Y184500D02*
D03*
X347539D02*
D03*
X341437Y196987D02*
D03*
X347539D02*
D03*
X341437Y209475D02*
D03*
X347539D02*
D03*
X312052Y109000D02*
D03*
X305949D02*
D03*
X312052Y115500D02*
D03*
X305949D02*
D03*
X318996Y98425D02*
D03*
X325098D02*
D03*
X306004D02*
D03*
X312106D02*
D03*
X207449Y89000D02*
D03*
X213551D02*
D03*
X207948Y106000D02*
D03*
X214051D02*
D03*
X219551Y149000D02*
D03*
X213449D02*
D03*
X213484Y155512D02*
D03*
X219586D02*
D03*
X292224D02*
D03*
X298326D02*
D03*
X298327Y149500D02*
D03*
X292225D02*
D03*
X268949Y24000D02*
D03*
X275051D02*
D03*
X298327Y80709D02*
D03*
X292225D02*
D03*
X197449Y40500D02*
D03*
X203552D02*
D03*
X110449Y73500D02*
D03*
X116551D02*
D03*
X110449Y60000D02*
D03*
X116551D02*
D03*
X110449Y66750D02*
D03*
X116551D02*
D03*
X44949Y114500D02*
D03*
X51051D02*
D03*
X116551Y87000D02*
D03*
X110449D02*
D03*
X116551Y80250D02*
D03*
X110449D02*
D03*
X8760Y413386D02*
D03*
X14863D02*
D03*
X30610D02*
D03*
X24508D02*
D03*
D28*
X226082Y94488D02*
D03*
Y96457D02*
D03*
Y98425D02*
D03*
Y100394D02*
D03*
Y102362D02*
D03*
Y104331D02*
D03*
Y106299D02*
D03*
Y108268D02*
D03*
Y110236D02*
D03*
Y112205D02*
D03*
Y114173D02*
D03*
Y116142D02*
D03*
Y118110D02*
D03*
Y120079D02*
D03*
Y122047D02*
D03*
Y124016D02*
D03*
Y125984D02*
D03*
Y127953D02*
D03*
Y129921D02*
D03*
Y131890D02*
D03*
Y133858D02*
D03*
Y135827D02*
D03*
Y137795D02*
D03*
Y139764D02*
D03*
Y141732D02*
D03*
X285731D02*
D03*
Y139764D02*
D03*
Y137795D02*
D03*
Y135827D02*
D03*
Y133858D02*
D03*
Y131890D02*
D03*
Y129921D02*
D03*
Y127953D02*
D03*
Y125984D02*
D03*
Y124016D02*
D03*
Y122047D02*
D03*
Y120079D02*
D03*
Y118110D02*
D03*
Y116142D02*
D03*
Y114173D02*
D03*
Y112205D02*
D03*
Y110236D02*
D03*
Y108268D02*
D03*
Y106299D02*
D03*
Y104331D02*
D03*
Y102362D02*
D03*
Y100394D02*
D03*
Y98425D02*
D03*
Y96457D02*
D03*
Y94488D02*
D03*
D29*
X232284Y147935D02*
D03*
X234253D02*
D03*
X236221D02*
D03*
X238190D02*
D03*
X240158D02*
D03*
X242127D02*
D03*
X244095D02*
D03*
X246064D02*
D03*
X248032D02*
D03*
X250001D02*
D03*
X251969D02*
D03*
X253938D02*
D03*
X255906D02*
D03*
X257875D02*
D03*
X259843D02*
D03*
X261812D02*
D03*
X263780D02*
D03*
X265749D02*
D03*
X267717D02*
D03*
X269686D02*
D03*
X271654D02*
D03*
X273623D02*
D03*
X275591D02*
D03*
X277560D02*
D03*
X279528D02*
D03*
Y88286D02*
D03*
X277560D02*
D03*
X275591D02*
D03*
X273623D02*
D03*
X271654D02*
D03*
X269686D02*
D03*
X267717D02*
D03*
X265749D02*
D03*
X263780D02*
D03*
X261812D02*
D03*
X259843D02*
D03*
X257875D02*
D03*
X255906D02*
D03*
X253938D02*
D03*
X251969D02*
D03*
X250001D02*
D03*
X248032D02*
D03*
X246064D02*
D03*
X244095D02*
D03*
X242127D02*
D03*
X240158D02*
D03*
X238190D02*
D03*
X236221D02*
D03*
X234253D02*
D03*
X232284D02*
D03*
D30*
X61524Y87795D02*
D03*
Y100787D02*
D03*
Y96457D02*
D03*
Y92126D02*
D03*
Y83465D02*
D03*
Y79134D02*
D03*
Y74803D02*
D03*
Y70473D02*
D03*
Y66142D02*
D03*
D31*
X21260Y105905D02*
D03*
Y44882D02*
D03*
D32*
X59055Y48031D02*
D03*
D33*
X711500Y204000D02*
D03*
X705500D02*
D03*
X303000Y35500D02*
D03*
X297000D02*
D03*
X425833Y72327D02*
D03*
X431833D02*
D03*
X341489Y177855D02*
D03*
X347488D02*
D03*
X341489Y190343D02*
D03*
X347488D02*
D03*
X341489Y202831D02*
D03*
X347488D02*
D03*
X341489Y215319D02*
D03*
X347488D02*
D03*
X59000Y114500D02*
D03*
X65000D02*
D03*
D34*
X680905Y187992D02*
D03*
Y180512D02*
D03*
X689173Y184252D02*
D03*
X665158Y187992D02*
D03*
Y180512D02*
D03*
X673425Y184252D02*
D03*
X665158Y215646D02*
D03*
Y208165D02*
D03*
X673425Y211906D02*
D03*
D35*
X299213Y6681D02*
D03*
X311024D02*
D03*
X293406Y57696D02*
D03*
X281594D02*
D03*
D36*
X305118Y8374D02*
D03*
X287500Y59389D02*
D03*
D37*
X305118Y17485D02*
D03*
X287500Y68500D02*
D03*
D38*
X531519Y127315D02*
D03*
Y133418D02*
D03*
X610794Y92315D02*
D03*
Y98418D02*
D03*
X587172Y98594D02*
D03*
Y92492D02*
D03*
X595046Y98594D02*
D03*
Y92492D02*
D03*
X602920Y92493D02*
D03*
Y98595D02*
D03*
X599957Y371161D02*
D03*
Y365059D02*
D03*
X620626Y371161D02*
D03*
Y365059D02*
D03*
X606847Y371161D02*
D03*
Y365059D02*
D03*
X613736Y371161D02*
D03*
Y365059D02*
D03*
X637232Y371161D02*
D03*
Y365059D02*
D03*
X481500Y189448D02*
D03*
Y195551D02*
D03*
X461833Y167552D02*
D03*
Y161449D02*
D03*
X468500Y167552D02*
D03*
Y161449D02*
D03*
X562500Y255981D02*
D03*
Y249878D02*
D03*
X513752Y249878D02*
D03*
Y255980D02*
D03*
X624000Y119948D02*
D03*
Y126051D02*
D03*
X455267Y161449D02*
D03*
Y167551D02*
D03*
X448500Y161449D02*
D03*
Y167551D02*
D03*
X37000Y296052D02*
D03*
Y289949D02*
D03*
X30500Y296052D02*
D03*
Y289949D02*
D03*
X578319Y255981D02*
D03*
Y249878D02*
D03*
X537374Y249878D02*
D03*
Y255980D02*
D03*
X570445Y249878D02*
D03*
Y255980D02*
D03*
X554500Y249878D02*
D03*
Y255980D02*
D03*
X529500Y255981D02*
D03*
Y249878D02*
D03*
X521626Y249878D02*
D03*
Y255980D02*
D03*
X403224Y90763D02*
D03*
Y96866D02*
D03*
X411098Y96867D02*
D03*
Y90764D02*
D03*
X443382Y140567D02*
D03*
Y134465D02*
D03*
X436295Y140567D02*
D03*
Y134465D02*
D03*
X429209Y140567D02*
D03*
Y134465D02*
D03*
Y93126D02*
D03*
Y99228D02*
D03*
X443382Y93126D02*
D03*
Y99228D02*
D03*
X436295Y93126D02*
D03*
Y99228D02*
D03*
X373000Y227552D02*
D03*
Y221449D02*
D03*
X366500Y227552D02*
D03*
Y221449D02*
D03*
X360000Y227552D02*
D03*
Y221449D02*
D03*
X379500Y227552D02*
D03*
Y221449D02*
D03*
X267717Y170177D02*
D03*
Y176279D02*
D03*
X261417Y170177D02*
D03*
Y176279D02*
D03*
X273000Y65948D02*
D03*
Y72051D02*
D03*
X258000Y55551D02*
D03*
Y49449D02*
D03*
X265000Y49448D02*
D03*
Y55551D02*
D03*
X240000Y57449D02*
D03*
Y63551D02*
D03*
X233000Y57449D02*
D03*
Y63551D02*
D03*
X250500Y72052D02*
D03*
Y65949D02*
D03*
X105000Y44449D02*
D03*
Y50551D02*
D03*
X98500Y44449D02*
D03*
Y50551D02*
D03*
X92000Y44449D02*
D03*
Y50551D02*
D03*
X85500Y44449D02*
D03*
Y50551D02*
D03*
X79000Y44449D02*
D03*
Y50551D02*
D03*
X72500Y44449D02*
D03*
Y50551D02*
D03*
D39*
X539270Y112780D02*
D03*
X544271D02*
D03*
X549270D02*
D03*
X554271D02*
D03*
X539270Y133677D02*
D03*
X544271D02*
D03*
X549270D02*
D03*
X554271D02*
D03*
X647227Y105906D02*
D03*
X652227D02*
D03*
X657227D02*
D03*
X662227D02*
D03*
X647227Y126803D02*
D03*
X652227D02*
D03*
X657227D02*
D03*
X662227D02*
D03*
X23000Y353449D02*
D03*
X18000D02*
D03*
X13000D02*
D03*
X8000D02*
D03*
X23000Y332551D02*
D03*
X18000D02*
D03*
X13000D02*
D03*
X8000D02*
D03*
X500374Y178528D02*
D03*
X505374D02*
D03*
X510374D02*
D03*
X515374D02*
D03*
X500374Y199425D02*
D03*
X505374D02*
D03*
X510374D02*
D03*
X515374D02*
D03*
X577500Y287787D02*
D03*
X572500D02*
D03*
X567500D02*
D03*
X562500D02*
D03*
X577500Y266890D02*
D03*
X572500D02*
D03*
X567500D02*
D03*
X562500D02*
D03*
D40*
X611877Y108732D02*
D03*
X609318D02*
D03*
X606759D02*
D03*
X604200D02*
D03*
X601641D02*
D03*
X599082D02*
D03*
X596523D02*
D03*
X593963D02*
D03*
Y137472D02*
D03*
X596523D02*
D03*
X599082D02*
D03*
X601641D02*
D03*
X604200D02*
D03*
X606759D02*
D03*
X609318D02*
D03*
X466528Y206972D02*
D03*
X463969D02*
D03*
X461409D02*
D03*
X458850D02*
D03*
X456291D02*
D03*
X453732D02*
D03*
X451173D02*
D03*
Y178232D02*
D03*
X453732D02*
D03*
X456291D02*
D03*
X458850D02*
D03*
X461410D02*
D03*
X463969D02*
D03*
X466528D02*
D03*
X469087D02*
D03*
D41*
X611877Y137472D02*
D03*
X469087Y206972D02*
D03*
D42*
X637232Y380858D02*
D03*
Y386858D02*
D03*
X37000Y309000D02*
D03*
Y303000D02*
D03*
X30500Y309000D02*
D03*
Y303000D02*
D03*
X311000Y51000D02*
D03*
Y57000D02*
D03*
X620626Y386858D02*
D03*
Y380858D02*
D03*
X613736Y386858D02*
D03*
Y380858D02*
D03*
X606847Y386858D02*
D03*
Y380858D02*
D03*
X599957Y386858D02*
D03*
Y380858D02*
D03*
D43*
X311007Y184579D02*
D03*
X279776Y184500D02*
D03*
X311007Y168079D02*
D03*
X279776Y168000D02*
D03*
X242143Y11733D02*
D03*
X273374Y11811D02*
D03*
D44*
X669291Y273811D02*
D03*
Y262000D02*
D03*
D45*
X537000Y288339D02*
D03*
X532000D02*
D03*
X527000D02*
D03*
X522000D02*
D03*
Y266339D02*
D03*
X527000D02*
D03*
X532000D02*
D03*
X537000D02*
D03*
X411512Y128437D02*
D03*
X406512D02*
D03*
X401512D02*
D03*
X396512D02*
D03*
Y106437D02*
D03*
X401512D02*
D03*
X406512D02*
D03*
X411512D02*
D03*
D46*
X395012Y312776D02*
D03*
Y307776D02*
D03*
Y302776D02*
D03*
Y297776D02*
D03*
Y292776D02*
D03*
Y287776D02*
D03*
Y282776D02*
D03*
Y277776D02*
D03*
X416112Y312776D02*
D03*
Y307776D02*
D03*
Y302776D02*
D03*
Y297776D02*
D03*
Y292776D02*
D03*
Y287776D02*
D03*
Y282776D02*
D03*
Y277776D02*
D03*
D47*
X442398Y124953D02*
D03*
X440429D02*
D03*
X438461D02*
D03*
X436492D02*
D03*
X434524D02*
D03*
X432555D02*
D03*
X430587D02*
D03*
X428618D02*
D03*
X428618Y108346D02*
D03*
X430587D02*
D03*
X432555D02*
D03*
X434524D02*
D03*
X436492D02*
D03*
X438461D02*
D03*
X440429D02*
D03*
X442398D02*
D03*
D48*
X337992Y66929D02*
D03*
X319488D02*
D03*
X325394Y129921D02*
D03*
X343898D02*
D03*
X325394Y114173D02*
D03*
X343898D02*
D03*
X319488Y82677D02*
D03*
X337992D02*
D03*
D49*
X263032Y189500D02*
D03*
X266968D02*
D03*
X263032Y184000D02*
D03*
X266968D02*
D03*
X270031Y29500D02*
D03*
X273969D02*
D03*
D50*
X280307Y50000D02*
D03*
X293693D02*
D03*
D51*
X258154Y63366D02*
D03*
Y71634D02*
D03*
X264846D02*
D03*
Y63366D02*
D03*
D52*
X230008Y71500D02*
D03*
X243000D02*
D03*
D53*
X180750Y32000D02*
D03*
X197250D02*
D03*
D54*
X167250D02*
D03*
X210750D02*
D03*
D55*
X32184Y372638D02*
D03*
Y373819D02*
D03*
X32184Y375787D02*
D03*
Y376969D02*
D03*
X32184Y378937D02*
D03*
Y382874D02*
D03*
X32178Y384843D02*
D03*
X32184Y386811D02*
D03*
X32177Y388780D02*
D03*
X32186Y390748D02*
D03*
X32168Y394685D02*
D03*
Y395866D02*
D03*
X32178Y397835D02*
D03*
Y399016D02*
D03*
D56*
X32184Y380906D02*
D03*
X32184Y392716D02*
D03*
D57*
X102236Y107268D02*
D03*
Y103331D02*
D03*
X96724Y107268D02*
D03*
Y103331D02*
D03*
X91213Y107268D02*
D03*
Y103331D02*
D03*
X80189Y103331D02*
D03*
Y107268D02*
D03*
X85701Y103331D02*
D03*
Y107268D02*
D03*
X74677Y103331D02*
D03*
Y107268D02*
D03*
D58*
X170500Y162728D02*
D03*
X170500Y116272D02*
D03*
D59*
X180331Y140484D02*
D03*
Y142453D02*
D03*
Y156232D02*
D03*
Y154264D02*
D03*
Y152295D02*
D03*
Y150327D02*
D03*
Y148358D02*
D03*
Y146390D02*
D03*
Y144421D02*
D03*
Y138516D02*
D03*
Y136547D02*
D03*
Y134579D02*
D03*
Y132610D02*
D03*
Y130642D02*
D03*
Y128673D02*
D03*
Y126705D02*
D03*
Y124736D02*
D03*
Y122768D02*
D03*
M02*
