M48
;Layer_Color=9474304
;FILE_FORMAT=2:5
INCH,LZ
;TYPE=PLATED
T2F00S00C0.02756
T3F00S00C0.03150
T8F00S00C0.04331
;TYPE=NON_PLATED
%
G90
G05
T02
G00X0026869Y036811
M15
G01X00312
M16
G00X0026869Y0403543
M15
G01X00312
M16
T03
G00X0011121Y036811
M15
G01X0014271
M16
G00X0011121Y0403543
M15
G01X0014271
M16
T08
G00X0700608Y0221231
M15
G01Y0221211
M16
G00X0700608Y023123
M15
G01Y023121
M16
G00X0700608Y0241231
M15
G01Y0241211
M16
G00X0700207Y0251231
M15
G01Y025121
M16
G00X0717108Y0246231
M15
G01Y0246211
M16
G00X0717108Y023623
M15
G01Y023621
M16
G00X0717108Y0226231
M15
G01Y022621
M16
M17
M30
