G04*
G04 #@! TF.GenerationSoftware,Altium Limited,Altium Designer,22.1.2 (22)*
G04*
G04 Layer_Color=16711935*
%FSLAX25Y25*%
%MOIN*%
G70*
G04*
G04 #@! TF.SameCoordinates,1A32ED5E-F4BE-4E84-8868-A45DA14C1EED*
G04*
G04*
G04 #@! TF.FilePolarity,Negative*
G04*
G01*
G75*
%ADD61C,0.03162*%
%ADD76C,0.07099*%
%ADD97C,0.07887*%
%ADD98R,0.07890X0.07880*%
%ADD99C,0.08674*%
%ADD100C,0.06400*%
%ADD101C,0.07000*%
%ADD102C,0.04737*%
%ADD103C,0.06800*%
%ADD104R,0.07887X0.07887*%
%ADD105C,0.07887*%
%ADD106R,0.07493X0.07493*%
%ADD107C,0.07493*%
%ADD108R,0.07493X0.07493*%
%ADD109C,0.30800*%
%ADD110C,0.04800*%
%ADD111C,0.05600*%
%ADD112C,0.13792*%
%ADD113C,0.06000*%
%ADD114R,0.06000X0.06000*%
%ADD115C,0.11036*%
%ADD116O,0.09855X0.05524*%
%ADD117O,0.08674X0.05524*%
%ADD118C,0.03753*%
%ADD119R,0.07099X0.07099*%
D61*
X752996Y128937D02*
D03*
Y343504D02*
D03*
D76*
X90236Y17598D02*
D03*
X100236Y7598D02*
D03*
Y17598D02*
D03*
X110236Y7598D02*
D03*
Y17598D02*
D03*
X120236Y7598D02*
D03*
Y17598D02*
D03*
X130236Y7598D02*
D03*
Y17598D02*
D03*
D97*
X700608Y221220D02*
D03*
X717108Y226220D02*
D03*
X700608Y231221D02*
D03*
X717108Y236221D02*
D03*
X700608Y241220D02*
D03*
X717108Y246220D02*
D03*
D98*
X700207Y251220D02*
D03*
D99*
X368110Y91732D02*
D03*
X147638D02*
D03*
Y216535D02*
D03*
D100*
X362205Y39370D02*
D03*
X381890D02*
D03*
X362205Y19685D02*
D03*
X381890D02*
D03*
X541339D02*
D03*
X521654D02*
D03*
X541339Y39370D02*
D03*
X521654D02*
D03*
X592520Y19685D02*
D03*
X572835D02*
D03*
X592520Y39370D02*
D03*
X572835D02*
D03*
X669291Y448819D02*
D03*
X688976D02*
D03*
X669291Y429134D02*
D03*
X688976D02*
D03*
X574803D02*
D03*
X555118D02*
D03*
X574803Y448819D02*
D03*
X555118D02*
D03*
X523622Y429134D02*
D03*
X503937D02*
D03*
X523622Y448819D02*
D03*
X503937D02*
D03*
X472441Y429134D02*
D03*
X452756D02*
D03*
X472441Y448819D02*
D03*
X452756D02*
D03*
X421260Y429134D02*
D03*
X401575D02*
D03*
X421260Y448819D02*
D03*
X401575D02*
D03*
X700787Y19685D02*
D03*
X681102D02*
D03*
X700787Y39370D02*
D03*
X681102D02*
D03*
X649606Y19685D02*
D03*
X629921D02*
D03*
X649606Y39370D02*
D03*
X629921D02*
D03*
X484252Y19685D02*
D03*
X464567D02*
D03*
X484252Y39370D02*
D03*
X464567D02*
D03*
X433071Y19685D02*
D03*
X413386D02*
D03*
X433071Y39370D02*
D03*
X413386D02*
D03*
D101*
X532677Y164370D02*
D03*
Y213583D02*
D03*
X677168Y140961D02*
D03*
Y91748D02*
D03*
X570393Y139961D02*
D03*
Y90748D02*
D03*
X594461Y252732D02*
D03*
Y301945D02*
D03*
D102*
X19685Y94488D02*
D03*
Y62992D02*
D03*
D103*
X692913Y330709D02*
D03*
Y370709D02*
D03*
Y400709D02*
D03*
X662913D02*
D03*
Y370709D02*
D03*
Y330709D02*
D03*
X548740D02*
D03*
Y370709D02*
D03*
Y400709D02*
D03*
X578740D02*
D03*
Y370709D02*
D03*
Y330709D02*
D03*
X497559D02*
D03*
Y370709D02*
D03*
Y400709D02*
D03*
X527559D02*
D03*
Y370709D02*
D03*
Y330709D02*
D03*
X446378D02*
D03*
Y370709D02*
D03*
Y400709D02*
D03*
X476378D02*
D03*
Y370709D02*
D03*
Y330709D02*
D03*
X395197D02*
D03*
Y370709D02*
D03*
Y400709D02*
D03*
X425197D02*
D03*
Y370709D02*
D03*
Y330709D02*
D03*
X188976Y7874D02*
D03*
X208661Y21260D02*
D03*
X169291D02*
D03*
D104*
X446850Y285433D02*
D03*
D105*
Y305118D02*
D03*
D106*
X384327Y127437D02*
D03*
D107*
Y117437D02*
D03*
Y107437D02*
D03*
X387890Y188634D02*
D03*
Y198634D02*
D03*
Y208634D02*
D03*
X357890Y178634D02*
D03*
Y188634D02*
D03*
Y198634D02*
D03*
Y208634D02*
D03*
D108*
X387890Y178634D02*
D03*
D109*
X767717Y452756D02*
D03*
Y19685D02*
D03*
X20671Y19863D02*
D03*
X19685Y452756D02*
D03*
D110*
X757117D02*
D03*
X762417Y443576D02*
D03*
X773017D02*
D03*
X778316Y452756D02*
D03*
X773017Y461936D02*
D03*
X762417D02*
D03*
X757117Y19685D02*
D03*
X762417Y10505D02*
D03*
X773017D02*
D03*
X778316Y19685D02*
D03*
X773017Y28865D02*
D03*
X762417D02*
D03*
X10071Y19863D02*
D03*
X15371Y10683D02*
D03*
X25971D02*
D03*
X31271Y19863D02*
D03*
X25971Y29043D02*
D03*
X15371D02*
D03*
X9085Y452756D02*
D03*
X14385Y443576D02*
D03*
X24985D02*
D03*
X30285Y452756D02*
D03*
X24985Y461936D02*
D03*
X14385D02*
D03*
D111*
X105002Y161430D02*
D03*
X115002Y173430D02*
D03*
Y165430D02*
D03*
X105002Y153430D02*
D03*
X105002Y177430D02*
D03*
D112*
X44921Y132480D02*
D03*
Y182480D02*
D03*
D113*
X115002Y181430D02*
D03*
Y133430D02*
D03*
Y141430D02*
D03*
Y149430D02*
D03*
X105002Y145430D02*
D03*
X105002Y169430D02*
D03*
D114*
X105002Y137430D02*
D03*
D115*
X32402Y189232D02*
D03*
Y125680D02*
D03*
D116*
X29035Y403544D02*
D03*
X29035Y368111D02*
D03*
D117*
X12696Y368110D02*
D03*
X12696Y403543D02*
D03*
D118*
X27066Y374448D02*
D03*
Y397204D02*
D03*
D119*
X90236Y7598D02*
D03*
M02*
