G04*
G04 #@! TF.GenerationSoftware,Altium Limited,Altium Designer,22.1.2 (22)*
G04*
G04 Layer_Physical_Order=4*
G04 Layer_Color=16711680*
%FSLAX25Y25*%
%MOIN*%
G70*
G04*
G04 #@! TF.SameCoordinates,1A32ED5E-F4BE-4E84-8868-A45DA14C1EED*
G04*
G04*
G04 #@! TF.FilePolarity,Positive*
G04*
G01*
G75*
%ADD10C,0.01000*%
%ADD11C,0.02000*%
%ADD16C,0.01500*%
%ADD100C,0.06400*%
%ADD103C,0.06800*%
%ADD113C,0.06000*%
%ADD120C,0.02362*%
%ADD121C,0.06299*%
%ADD123C,0.05000*%
%ADD125C,0.07087*%
%ADD126R,0.07090X0.07080*%
%ADD127C,0.07874*%
%ADD128C,0.06200*%
%ADD129C,0.03937*%
%ADD130R,0.07087X0.07087*%
%ADD131C,0.07087*%
%ADD132R,0.06693X0.06693*%
%ADD133C,0.06693*%
%ADD134R,0.06693X0.06693*%
%ADD135C,0.30000*%
%ADD136C,0.04000*%
%ADD137C,0.05200*%
%ADD138C,0.12992*%
%ADD139R,0.05200X0.05200*%
%ADD140C,0.10236*%
%ADD141O,0.09055X0.04724*%
%ADD142O,0.07874X0.04724*%
%ADD143C,0.02953*%
%ADD144R,0.06299X0.06299*%
%ADD145C,0.12598*%
%ADD146C,0.02400*%
G36*
X785362Y2039D02*
X2039D01*
Y470402D01*
X785362D01*
Y2039D01*
D02*
G37*
%LPC*%
G36*
X353438Y458200D02*
X352562D01*
X351754Y457865D01*
X351750Y457861D01*
X351746Y457865D01*
X350938Y458200D01*
X350062D01*
X349254Y457865D01*
X349250Y457861D01*
X349246Y457865D01*
X348438Y458200D01*
X347562D01*
X346754Y457865D01*
X346750Y457861D01*
X346746Y457865D01*
X345938Y458200D01*
X345062D01*
X344254Y457865D01*
X344250Y457861D01*
X344246Y457865D01*
X343438Y458200D01*
X342562D01*
X341754Y457865D01*
X341135Y457246D01*
X340800Y456438D01*
Y455562D01*
X341135Y454754D01*
X341139Y454750D01*
X341135Y454746D01*
X340800Y453938D01*
Y453062D01*
X341135Y452254D01*
X341139Y452250D01*
X341135Y452246D01*
X340800Y451438D01*
Y450562D01*
X341135Y449754D01*
X341139Y449750D01*
X341135Y449746D01*
X340800Y448938D01*
Y448062D01*
X341135Y447254D01*
X341139Y447250D01*
X341135Y447246D01*
X340800Y446438D01*
Y445562D01*
X341135Y444754D01*
X341754Y444135D01*
X342562Y443800D01*
X343438D01*
X344246Y444135D01*
X344250Y444139D01*
X344254Y444135D01*
X345062Y443800D01*
X345938D01*
X346746Y444135D01*
X346750Y444139D01*
X346754Y444135D01*
X347562Y443800D01*
X348438D01*
X349246Y444135D01*
X349250Y444139D01*
X349254Y444135D01*
X350062Y443800D01*
X350938D01*
X351746Y444135D01*
X351750Y444139D01*
X351754Y444135D01*
X352562Y443800D01*
X353438D01*
X354246Y444135D01*
X354865Y444754D01*
X355200Y445562D01*
Y446438D01*
X354865Y447246D01*
X354861Y447250D01*
X354865Y447254D01*
X355200Y448062D01*
Y448938D01*
X354865Y449746D01*
X354861Y449750D01*
X354865Y449754D01*
X355200Y450562D01*
Y451438D01*
X354865Y452246D01*
X354861Y452250D01*
X354865Y452254D01*
X355200Y453062D01*
Y453938D01*
X354865Y454746D01*
X354861Y454750D01*
X354865Y454754D01*
X355200Y455562D01*
Y456438D01*
X354865Y457246D01*
X354246Y457865D01*
X353438Y458200D01*
D02*
G37*
G36*
X768976Y468756D02*
X768217D01*
Y453256D01*
X783716D01*
Y454015D01*
X783323Y456503D01*
X782544Y458898D01*
X781401Y461142D01*
X779921Y463179D01*
X778140Y464960D01*
X776102Y466440D01*
X773858Y467584D01*
X771463Y468362D01*
X768976Y468756D01*
D02*
G37*
G36*
X767216D02*
X766457D01*
X763970Y468362D01*
X761575Y467584D01*
X759331Y466440D01*
X757293Y464960D01*
X755512Y463179D01*
X754032Y461142D01*
X752889Y458898D01*
X752110Y456503D01*
X751717Y454015D01*
Y453256D01*
X767216D01*
Y468756D01*
D02*
G37*
G36*
X20944D02*
X20185D01*
Y453256D01*
X35685D01*
Y454015D01*
X35291Y456503D01*
X34513Y458898D01*
X33369Y461142D01*
X31889Y463179D01*
X30108Y464960D01*
X28071Y466440D01*
X25827Y467584D01*
X23432Y468362D01*
X20944Y468756D01*
D02*
G37*
G36*
X19185D02*
X18426D01*
X15938Y468362D01*
X13543Y467584D01*
X11299Y466440D01*
X9262Y464960D01*
X7481Y463179D01*
X6001Y461142D01*
X4857Y458898D01*
X4079Y456503D01*
X3685Y454015D01*
Y453256D01*
X19185D01*
Y468756D01*
D02*
G37*
G36*
X689529Y453019D02*
X689476D01*
Y449319D01*
X693176D01*
Y449372D01*
X692890Y450440D01*
X692337Y451398D01*
X691555Y452180D01*
X690597Y452733D01*
X689529Y453019D01*
D02*
G37*
G36*
X688476D02*
X688423D01*
X687355Y452733D01*
X686398Y452180D01*
X685615Y451398D01*
X685063Y450440D01*
X684776Y449372D01*
Y449319D01*
X688476D01*
Y453019D01*
D02*
G37*
G36*
X575356D02*
X575303D01*
Y449319D01*
X579003D01*
Y449372D01*
X578717Y450440D01*
X578164Y451398D01*
X577382Y452180D01*
X576424Y452733D01*
X575356Y453019D01*
D02*
G37*
G36*
X574303D02*
X574250D01*
X573182Y452733D01*
X572224Y452180D01*
X571442Y451398D01*
X570889Y450440D01*
X570603Y449372D01*
Y449319D01*
X574303D01*
Y453019D01*
D02*
G37*
G36*
X524175D02*
X524122D01*
Y449319D01*
X527822D01*
Y449372D01*
X527536Y450440D01*
X526983Y451398D01*
X526201Y452180D01*
X525243Y452733D01*
X524175Y453019D01*
D02*
G37*
G36*
X523122D02*
X523069D01*
X522001Y452733D01*
X521043Y452180D01*
X520261Y451398D01*
X519708Y450440D01*
X519422Y449372D01*
Y449319D01*
X523122D01*
Y453019D01*
D02*
G37*
G36*
X472994D02*
X472941D01*
Y449319D01*
X476641D01*
Y449372D01*
X476355Y450440D01*
X475802Y451398D01*
X475020Y452180D01*
X474062Y452733D01*
X472994Y453019D01*
D02*
G37*
G36*
X471941D02*
X471888D01*
X470820Y452733D01*
X469862Y452180D01*
X469080Y451398D01*
X468527Y450440D01*
X468241Y449372D01*
Y449319D01*
X471941D01*
Y453019D01*
D02*
G37*
G36*
X421813D02*
X421760D01*
Y449319D01*
X425460D01*
Y449372D01*
X425174Y450440D01*
X424621Y451398D01*
X423839Y452180D01*
X422881Y452733D01*
X421813Y453019D01*
D02*
G37*
G36*
X420760D02*
X420707D01*
X419639Y452733D01*
X418681Y452180D01*
X417899Y451398D01*
X417346Y450440D01*
X417060Y449372D01*
Y449319D01*
X420760D01*
Y453019D01*
D02*
G37*
G36*
X693176Y448319D02*
X689476D01*
Y444619D01*
X689529D01*
X690597Y444905D01*
X691555Y445458D01*
X692337Y446240D01*
X692890Y447198D01*
X693176Y448266D01*
Y448319D01*
D02*
G37*
G36*
X688476D02*
X684776D01*
Y448266D01*
X685063Y447198D01*
X685615Y446240D01*
X686398Y445458D01*
X687355Y444905D01*
X688423Y444619D01*
X688476D01*
Y448319D01*
D02*
G37*
G36*
X669844Y453019D02*
X668738D01*
X667670Y452733D01*
X666713Y452180D01*
X665931Y451398D01*
X665378Y450440D01*
X665091Y449372D01*
Y448266D01*
X665378Y447198D01*
X665931Y446240D01*
X666713Y445458D01*
X667670Y444905D01*
X668738Y444619D01*
X669844D01*
X670913Y444905D01*
X671870Y445458D01*
X672652Y446240D01*
X673205Y447198D01*
X673491Y448266D01*
Y449372D01*
X673205Y450440D01*
X672652Y451398D01*
X671870Y452180D01*
X670913Y452733D01*
X669844Y453019D01*
D02*
G37*
G36*
X579003Y448319D02*
X575303D01*
Y444619D01*
X575356D01*
X576424Y444905D01*
X577382Y445458D01*
X578164Y446240D01*
X578717Y447198D01*
X579003Y448266D01*
Y448319D01*
D02*
G37*
G36*
X574303D02*
X570603D01*
Y448266D01*
X570889Y447198D01*
X571442Y446240D01*
X572224Y445458D01*
X573182Y444905D01*
X574250Y444619D01*
X574303D01*
Y448319D01*
D02*
G37*
G36*
X555671Y453019D02*
X554565D01*
X553497Y452733D01*
X552539Y452180D01*
X551757Y451398D01*
X551204Y450440D01*
X550918Y449372D01*
Y448266D01*
X551204Y447198D01*
X551757Y446240D01*
X552539Y445458D01*
X553497Y444905D01*
X554565Y444619D01*
X555671D01*
X556739Y444905D01*
X557697Y445458D01*
X558479Y446240D01*
X559032Y447198D01*
X559318Y448266D01*
Y449372D01*
X559032Y450440D01*
X558479Y451398D01*
X557697Y452180D01*
X556739Y452733D01*
X555671Y453019D01*
D02*
G37*
G36*
X527822Y448319D02*
X524122D01*
Y444619D01*
X524175D01*
X525243Y444905D01*
X526201Y445458D01*
X526983Y446240D01*
X527536Y447198D01*
X527822Y448266D01*
Y448319D01*
D02*
G37*
G36*
X523122D02*
X519422D01*
Y448266D01*
X519708Y447198D01*
X520261Y446240D01*
X521043Y445458D01*
X522001Y444905D01*
X523069Y444619D01*
X523122D01*
Y448319D01*
D02*
G37*
G36*
X504490Y453019D02*
X503384D01*
X502316Y452733D01*
X501358Y452180D01*
X500576Y451398D01*
X500023Y450440D01*
X499737Y449372D01*
Y448266D01*
X500023Y447198D01*
X500576Y446240D01*
X501358Y445458D01*
X502316Y444905D01*
X503384Y444619D01*
X504490D01*
X505558Y444905D01*
X506516Y445458D01*
X507298Y446240D01*
X507851Y447198D01*
X508137Y448266D01*
Y449372D01*
X507851Y450440D01*
X507298Y451398D01*
X506516Y452180D01*
X505558Y452733D01*
X504490Y453019D01*
D02*
G37*
G36*
X476641Y448319D02*
X472941D01*
Y444619D01*
X472994D01*
X474062Y444905D01*
X475020Y445458D01*
X475802Y446240D01*
X476355Y447198D01*
X476641Y448266D01*
Y448319D01*
D02*
G37*
G36*
X471941D02*
X468241D01*
Y448266D01*
X468527Y447198D01*
X469080Y446240D01*
X469862Y445458D01*
X470820Y444905D01*
X471888Y444619D01*
X471941D01*
Y448319D01*
D02*
G37*
G36*
X453309Y453019D02*
X452203D01*
X451135Y452733D01*
X450177Y452180D01*
X449395Y451398D01*
X448842Y450440D01*
X448556Y449372D01*
Y448266D01*
X448842Y447198D01*
X449395Y446240D01*
X450177Y445458D01*
X451135Y444905D01*
X452203Y444619D01*
X453309D01*
X454377Y444905D01*
X455335Y445458D01*
X456117Y446240D01*
X456670Y447198D01*
X456956Y448266D01*
Y449372D01*
X456670Y450440D01*
X456117Y451398D01*
X455335Y452180D01*
X454377Y452733D01*
X453309Y453019D01*
D02*
G37*
G36*
X425460Y448319D02*
X421760D01*
Y444619D01*
X421813D01*
X422881Y444905D01*
X423839Y445458D01*
X424621Y446240D01*
X425174Y447198D01*
X425460Y448266D01*
Y448319D01*
D02*
G37*
G36*
X420760D02*
X417060D01*
Y448266D01*
X417346Y447198D01*
X417899Y446240D01*
X418681Y445458D01*
X419639Y444905D01*
X420707Y444619D01*
X420760D01*
Y448319D01*
D02*
G37*
G36*
X402128Y453019D02*
X401022D01*
X399954Y452733D01*
X398996Y452180D01*
X398214Y451398D01*
X397661Y450440D01*
X397375Y449372D01*
Y448266D01*
X397661Y447198D01*
X398214Y446240D01*
X398996Y445458D01*
X399954Y444905D01*
X401022Y444619D01*
X402128D01*
X403196Y444905D01*
X404154Y445458D01*
X404936Y446240D01*
X405489Y447198D01*
X405775Y448266D01*
Y449372D01*
X405489Y450440D01*
X404936Y451398D01*
X404154Y452180D01*
X403196Y452733D01*
X402128Y453019D01*
D02*
G37*
G36*
X783716Y452256D02*
X768217D01*
Y436756D01*
X768976D01*
X771463Y437150D01*
X773858Y437928D01*
X776102Y439072D01*
X778140Y440552D01*
X779921Y442333D01*
X781401Y444370D01*
X782544Y446614D01*
X783323Y449009D01*
X783716Y451497D01*
Y452256D01*
D02*
G37*
G36*
X767216D02*
X751717D01*
Y451497D01*
X752110Y449009D01*
X752889Y446614D01*
X754032Y444370D01*
X755512Y442333D01*
X757293Y440552D01*
X759331Y439072D01*
X761575Y437928D01*
X763970Y437150D01*
X766457Y436756D01*
X767216D01*
Y452256D01*
D02*
G37*
G36*
X35685D02*
X20185D01*
Y436756D01*
X20944D01*
X23432Y437150D01*
X25827Y437928D01*
X28071Y439072D01*
X30108Y440552D01*
X31889Y442333D01*
X33369Y444370D01*
X34513Y446614D01*
X35291Y449009D01*
X35685Y451497D01*
Y452256D01*
D02*
G37*
G36*
X19185D02*
X3685D01*
Y451497D01*
X4079Y449009D01*
X4857Y446614D01*
X6001Y444370D01*
X7481Y442333D01*
X9262Y440552D01*
X11299Y439072D01*
X13543Y437928D01*
X15938Y437150D01*
X18426Y436756D01*
X19185D01*
Y452256D01*
D02*
G37*
G36*
X689529Y433334D02*
X689476D01*
Y429634D01*
X693176D01*
Y429687D01*
X692890Y430755D01*
X692337Y431713D01*
X691555Y432495D01*
X690597Y433048D01*
X689529Y433334D01*
D02*
G37*
G36*
X688476D02*
X688423D01*
X687355Y433048D01*
X686398Y432495D01*
X685615Y431713D01*
X685063Y430755D01*
X684776Y429687D01*
Y429634D01*
X688476D01*
Y433334D01*
D02*
G37*
G36*
X575356D02*
X575303D01*
Y429634D01*
X579003D01*
Y429687D01*
X578717Y430755D01*
X578164Y431713D01*
X577382Y432495D01*
X576424Y433048D01*
X575356Y433334D01*
D02*
G37*
G36*
X574303D02*
X574250D01*
X573182Y433048D01*
X572224Y432495D01*
X571442Y431713D01*
X570889Y430755D01*
X570603Y429687D01*
Y429634D01*
X574303D01*
Y433334D01*
D02*
G37*
G36*
X524175D02*
X524122D01*
Y429634D01*
X527822D01*
Y429687D01*
X527536Y430755D01*
X526983Y431713D01*
X526201Y432495D01*
X525243Y433048D01*
X524175Y433334D01*
D02*
G37*
G36*
X523122D02*
X523069D01*
X522001Y433048D01*
X521043Y432495D01*
X520261Y431713D01*
X519708Y430755D01*
X519422Y429687D01*
Y429634D01*
X523122D01*
Y433334D01*
D02*
G37*
G36*
X472994D02*
X472941D01*
Y429634D01*
X476641D01*
Y429687D01*
X476355Y430755D01*
X475802Y431713D01*
X475020Y432495D01*
X474062Y433048D01*
X472994Y433334D01*
D02*
G37*
G36*
X471941D02*
X471888D01*
X470820Y433048D01*
X469862Y432495D01*
X469080Y431713D01*
X468527Y430755D01*
X468241Y429687D01*
Y429634D01*
X471941D01*
Y433334D01*
D02*
G37*
G36*
X421813D02*
X421760D01*
Y429634D01*
X425460D01*
Y429687D01*
X425174Y430755D01*
X424621Y431713D01*
X423839Y432495D01*
X422881Y433048D01*
X421813Y433334D01*
D02*
G37*
G36*
X420760D02*
X420707D01*
X419639Y433048D01*
X418681Y432495D01*
X417899Y431713D01*
X417346Y430755D01*
X417060Y429687D01*
Y429634D01*
X420760D01*
Y433334D01*
D02*
G37*
G36*
X693176Y428634D02*
X689476D01*
Y424934D01*
X689529D01*
X690597Y425220D01*
X691555Y425773D01*
X692337Y426555D01*
X692890Y427513D01*
X693176Y428581D01*
Y428634D01*
D02*
G37*
G36*
X688476D02*
X684776D01*
Y428581D01*
X685063Y427513D01*
X685615Y426555D01*
X686398Y425773D01*
X687355Y425220D01*
X688423Y424934D01*
X688476D01*
Y428634D01*
D02*
G37*
G36*
X669844Y433334D02*
X668738D01*
X667670Y433048D01*
X666713Y432495D01*
X665931Y431713D01*
X665378Y430755D01*
X665091Y429687D01*
Y428581D01*
X665378Y427513D01*
X665931Y426555D01*
X666713Y425773D01*
X667670Y425220D01*
X668738Y424934D01*
X669844D01*
X670913Y425220D01*
X671870Y425773D01*
X672652Y426555D01*
X673205Y427513D01*
X673491Y428581D01*
Y429687D01*
X673205Y430755D01*
X672652Y431713D01*
X671870Y432495D01*
X670913Y433048D01*
X669844Y433334D01*
D02*
G37*
G36*
X579003Y428634D02*
X575303D01*
Y424934D01*
X575356D01*
X576424Y425220D01*
X577382Y425773D01*
X578164Y426555D01*
X578717Y427513D01*
X579003Y428581D01*
Y428634D01*
D02*
G37*
G36*
X574303D02*
X570603D01*
Y428581D01*
X570889Y427513D01*
X571442Y426555D01*
X572224Y425773D01*
X573182Y425220D01*
X574250Y424934D01*
X574303D01*
Y428634D01*
D02*
G37*
G36*
X555671Y433334D02*
X554565D01*
X553497Y433048D01*
X552539Y432495D01*
X551757Y431713D01*
X551204Y430755D01*
X550918Y429687D01*
Y428581D01*
X551204Y427513D01*
X551757Y426555D01*
X552539Y425773D01*
X553497Y425220D01*
X554565Y424934D01*
X555671D01*
X556739Y425220D01*
X557697Y425773D01*
X558479Y426555D01*
X559032Y427513D01*
X559318Y428581D01*
Y429687D01*
X559032Y430755D01*
X558479Y431713D01*
X557697Y432495D01*
X556739Y433048D01*
X555671Y433334D01*
D02*
G37*
G36*
X527822Y428634D02*
X524122D01*
Y424934D01*
X524175D01*
X525243Y425220D01*
X526201Y425773D01*
X526983Y426555D01*
X527536Y427513D01*
X527822Y428581D01*
Y428634D01*
D02*
G37*
G36*
X523122D02*
X519422D01*
Y428581D01*
X519708Y427513D01*
X520261Y426555D01*
X521043Y425773D01*
X522001Y425220D01*
X523069Y424934D01*
X523122D01*
Y428634D01*
D02*
G37*
G36*
X504490Y433334D02*
X503384D01*
X502316Y433048D01*
X501358Y432495D01*
X500576Y431713D01*
X500023Y430755D01*
X499737Y429687D01*
Y428581D01*
X500023Y427513D01*
X500576Y426555D01*
X501358Y425773D01*
X502316Y425220D01*
X503384Y424934D01*
X504490D01*
X505558Y425220D01*
X506516Y425773D01*
X507298Y426555D01*
X507851Y427513D01*
X508137Y428581D01*
Y429687D01*
X507851Y430755D01*
X507298Y431713D01*
X506516Y432495D01*
X505558Y433048D01*
X504490Y433334D01*
D02*
G37*
G36*
X476641Y428634D02*
X472941D01*
Y424934D01*
X472994D01*
X474062Y425220D01*
X475020Y425773D01*
X475802Y426555D01*
X476355Y427513D01*
X476641Y428581D01*
Y428634D01*
D02*
G37*
G36*
X471941D02*
X468241D01*
Y428581D01*
X468527Y427513D01*
X469080Y426555D01*
X469862Y425773D01*
X470820Y425220D01*
X471888Y424934D01*
X471941D01*
Y428634D01*
D02*
G37*
G36*
X453309Y433334D02*
X452203D01*
X451135Y433048D01*
X450177Y432495D01*
X449395Y431713D01*
X448842Y430755D01*
X448556Y429687D01*
Y428581D01*
X448842Y427513D01*
X449395Y426555D01*
X450177Y425773D01*
X451135Y425220D01*
X452203Y424934D01*
X453309D01*
X454377Y425220D01*
X455335Y425773D01*
X456117Y426555D01*
X456670Y427513D01*
X456956Y428581D01*
Y429687D01*
X456670Y430755D01*
X456117Y431713D01*
X455335Y432495D01*
X454377Y433048D01*
X453309Y433334D01*
D02*
G37*
G36*
X425460Y428634D02*
X421760D01*
Y424934D01*
X421813D01*
X422881Y425220D01*
X423839Y425773D01*
X424621Y426555D01*
X425174Y427513D01*
X425460Y428581D01*
Y428634D01*
D02*
G37*
G36*
X420760D02*
X417060D01*
Y428581D01*
X417346Y427513D01*
X417899Y426555D01*
X418681Y425773D01*
X419639Y425220D01*
X420707Y424934D01*
X420760D01*
Y428634D01*
D02*
G37*
G36*
X402128Y433334D02*
X401022D01*
X399954Y433048D01*
X398996Y432495D01*
X398214Y431713D01*
X397661Y430755D01*
X397375Y429687D01*
Y428581D01*
X397661Y427513D01*
X398214Y426555D01*
X398996Y425773D01*
X399954Y425220D01*
X401022Y424934D01*
X402128D01*
X403196Y425220D01*
X404154Y425773D01*
X404936Y426555D01*
X405489Y427513D01*
X405775Y428581D01*
Y429687D01*
X405489Y430755D01*
X404936Y431713D01*
X404154Y432495D01*
X403196Y433048D01*
X402128Y433334D01*
D02*
G37*
G36*
X31200Y406935D02*
X29535D01*
Y404044D01*
X34525D01*
X34475Y404422D01*
X34137Y405239D01*
X33598Y405942D01*
X32895Y406481D01*
X32078Y406819D01*
X31200Y406935D01*
D02*
G37*
G36*
X28534D02*
X26869D01*
X25991Y406819D01*
X25174Y406481D01*
X24471Y405942D01*
X23932Y405239D01*
X23594Y404422D01*
X23544Y404044D01*
X28534D01*
Y406935D01*
D02*
G37*
G36*
X14271Y406934D02*
X13196D01*
Y404043D01*
X17596D01*
X17546Y404421D01*
X17208Y405239D01*
X16669Y405941D01*
X15966Y406480D01*
X15148Y406819D01*
X14271Y406934D01*
D02*
G37*
G36*
X12196D02*
X11121D01*
X10244Y406819D01*
X9426Y406480D01*
X8723Y405941D01*
X8184Y405239D01*
X7846Y404421D01*
X7796Y404043D01*
X12196D01*
Y406934D01*
D02*
G37*
G36*
X34525Y403044D02*
X29535D01*
Y400153D01*
X31200D01*
X32078Y400268D01*
X32895Y400607D01*
X33598Y401146D01*
X34137Y401848D01*
X34475Y402666D01*
X34525Y403044D01*
D02*
G37*
G36*
X17596Y403043D02*
X13196D01*
Y400152D01*
X14271D01*
X15148Y400268D01*
X15966Y400606D01*
X16669Y401145D01*
X17208Y401848D01*
X17546Y402666D01*
X17596Y403043D01*
D02*
G37*
G36*
X12196D02*
X7796D01*
X7846Y402666D01*
X8184Y401848D01*
X8723Y401145D01*
X9426Y400606D01*
X10244Y400268D01*
X11121Y400152D01*
X12196D01*
Y403043D01*
D02*
G37*
G36*
X693493Y405109D02*
X692334D01*
X691215Y404809D01*
X690212Y404229D01*
X689393Y403410D01*
X688813Y402407D01*
X688513Y401288D01*
Y400129D01*
X688813Y399010D01*
X689393Y398007D01*
X690212Y397188D01*
X691215Y396608D01*
X692334Y396309D01*
X693493D01*
X694612Y396608D01*
X695615Y397188D01*
X696434Y398007D01*
X697014Y399010D01*
X697313Y400129D01*
Y401288D01*
X697014Y402407D01*
X696434Y403410D01*
X695615Y404229D01*
X694612Y404809D01*
X693493Y405109D01*
D02*
G37*
G36*
X663493D02*
X662334D01*
X661215Y404809D01*
X660212Y404229D01*
X659392Y403410D01*
X658813Y402407D01*
X658513Y401288D01*
Y400129D01*
X658813Y399010D01*
X659392Y398007D01*
X660212Y397188D01*
X661215Y396608D01*
X662334Y396309D01*
X663493D01*
X664612Y396608D01*
X665615Y397188D01*
X666434Y398007D01*
X667014Y399010D01*
X667313Y400129D01*
Y401288D01*
X667014Y402407D01*
X666434Y403410D01*
X665615Y404229D01*
X664612Y404809D01*
X663493Y405109D01*
D02*
G37*
G36*
X579319D02*
X578161D01*
X577042Y404809D01*
X576039Y404229D01*
X575219Y403410D01*
X574640Y402407D01*
X574340Y401288D01*
Y400129D01*
X574640Y399010D01*
X575219Y398007D01*
X576039Y397188D01*
X577042Y396608D01*
X578161Y396309D01*
X579319D01*
X580439Y396608D01*
X581442Y397188D01*
X582261Y398007D01*
X582840Y399010D01*
X583140Y400129D01*
Y401288D01*
X582840Y402407D01*
X582261Y403410D01*
X581442Y404229D01*
X580439Y404809D01*
X579319Y405109D01*
D02*
G37*
G36*
X549319D02*
X548161D01*
X547042Y404809D01*
X546038Y404229D01*
X545219Y403410D01*
X544640Y402407D01*
X544340Y401288D01*
Y400129D01*
X544640Y399010D01*
X545219Y398007D01*
X546038Y397188D01*
X547042Y396608D01*
X548161Y396309D01*
X549319D01*
X550438Y396608D01*
X551442Y397188D01*
X552261Y398007D01*
X552840Y399010D01*
X553140Y400129D01*
Y401288D01*
X552840Y402407D01*
X552261Y403410D01*
X551442Y404229D01*
X550438Y404809D01*
X549319Y405109D01*
D02*
G37*
G36*
X528138D02*
X526980D01*
X525861Y404809D01*
X524857Y404229D01*
X524038Y403410D01*
X523459Y402407D01*
X523159Y401288D01*
Y400129D01*
X523459Y399010D01*
X524038Y398007D01*
X524857Y397188D01*
X525861Y396608D01*
X526980Y396309D01*
X528138D01*
X529257Y396608D01*
X530261Y397188D01*
X531080Y398007D01*
X531659Y399010D01*
X531959Y400129D01*
Y401288D01*
X531659Y402407D01*
X531080Y403410D01*
X530261Y404229D01*
X529257Y404809D01*
X528138Y405109D01*
D02*
G37*
G36*
X498138D02*
X496980D01*
X495861Y404809D01*
X494857Y404229D01*
X494038Y403410D01*
X493459Y402407D01*
X493159Y401288D01*
Y400129D01*
X493459Y399010D01*
X494038Y398007D01*
X494857Y397188D01*
X495861Y396608D01*
X496980Y396309D01*
X498138D01*
X499257Y396608D01*
X500261Y397188D01*
X501080Y398007D01*
X501659Y399010D01*
X501959Y400129D01*
Y401288D01*
X501659Y402407D01*
X501080Y403410D01*
X500261Y404229D01*
X499257Y404809D01*
X498138Y405109D01*
D02*
G37*
G36*
X476957D02*
X475799D01*
X474680Y404809D01*
X473676Y404229D01*
X472857Y403410D01*
X472278Y402407D01*
X471978Y401288D01*
Y400129D01*
X472278Y399010D01*
X472857Y398007D01*
X473676Y397188D01*
X474680Y396608D01*
X475799Y396309D01*
X476957D01*
X478076Y396608D01*
X479080Y397188D01*
X479899Y398007D01*
X480478Y399010D01*
X480778Y400129D01*
Y401288D01*
X480478Y402407D01*
X479899Y403410D01*
X479080Y404229D01*
X478076Y404809D01*
X476957Y405109D01*
D02*
G37*
G36*
X446957D02*
X445799D01*
X444680Y404809D01*
X443676Y404229D01*
X442857Y403410D01*
X442278Y402407D01*
X441978Y401288D01*
Y400129D01*
X442278Y399010D01*
X442857Y398007D01*
X443676Y397188D01*
X444680Y396608D01*
X445799Y396309D01*
X446957D01*
X448076Y396608D01*
X449080Y397188D01*
X449899Y398007D01*
X450478Y399010D01*
X450778Y400129D01*
Y401288D01*
X450478Y402407D01*
X449899Y403410D01*
X449080Y404229D01*
X448076Y404809D01*
X446957Y405109D01*
D02*
G37*
G36*
X425776D02*
X424618D01*
X423498Y404809D01*
X422495Y404229D01*
X421676Y403410D01*
X421097Y402407D01*
X420797Y401288D01*
Y400129D01*
X421097Y399010D01*
X421676Y398007D01*
X422495Y397188D01*
X423498Y396608D01*
X424618Y396309D01*
X425776D01*
X426895Y396608D01*
X427899Y397188D01*
X428718Y398007D01*
X429297Y399010D01*
X429597Y400129D01*
Y401288D01*
X429297Y402407D01*
X428718Y403410D01*
X427899Y404229D01*
X426895Y404809D01*
X425776Y405109D01*
D02*
G37*
G36*
X395776D02*
X394618D01*
X393498Y404809D01*
X392495Y404229D01*
X391676Y403410D01*
X391097Y402407D01*
X390797Y401288D01*
Y400129D01*
X391097Y399010D01*
X391676Y398007D01*
X392495Y397188D01*
X393498Y396608D01*
X394618Y396309D01*
X395776D01*
X396895Y396608D01*
X397899Y397188D01*
X398718Y398007D01*
X399297Y399010D01*
X399597Y400129D01*
Y401288D01*
X399297Y402407D01*
X398718Y403410D01*
X397899Y404229D01*
X396895Y404809D01*
X395776Y405109D01*
D02*
G37*
G36*
X28534Y403044D02*
X23544D01*
X23594Y402666D01*
X23932Y401848D01*
X24471Y401146D01*
X25174Y400607D01*
X25991Y400268D01*
X26656Y400181D01*
X26623Y399681D01*
X26574D01*
X25664Y399304D01*
X24967Y398607D01*
X24590Y397697D01*
Y396712D01*
X24967Y395801D01*
X25664Y395105D01*
X26574Y394728D01*
X27559D01*
X28469Y395105D01*
X29166Y395801D01*
X29543Y396712D01*
Y397697D01*
X29166Y398607D01*
X28469Y399304D01*
X27559Y399681D01*
X27627Y400153D01*
X28534D01*
Y403044D01*
D02*
G37*
G36*
X288514Y397654D02*
X287076D01*
X285666Y397373D01*
X284338Y396823D01*
X283142Y396024D01*
X282126Y395007D01*
X281327Y393812D01*
X280777Y392483D01*
X280496Y391073D01*
Y389635D01*
X280777Y388225D01*
X281327Y386897D01*
X282126Y385701D01*
X283142Y384685D01*
X284338Y383886D01*
X285666Y383336D01*
X287076Y383055D01*
X288514D01*
X289924Y383336D01*
X291253Y383886D01*
X292448Y384685D01*
X293465Y385701D01*
X294264Y386897D01*
X294814Y388225D01*
X295094Y389635D01*
Y391073D01*
X294814Y392483D01*
X294264Y393812D01*
X293465Y395007D01*
X292448Y396024D01*
X291253Y396823D01*
X289924Y397373D01*
X288514Y397654D01*
D02*
G37*
G36*
X174341D02*
X172903D01*
X171493Y397373D01*
X170165Y396823D01*
X168969Y396024D01*
X167952Y395007D01*
X167154Y393812D01*
X166603Y392483D01*
X166323Y391073D01*
Y389635D01*
X166603Y388225D01*
X167154Y386897D01*
X167952Y385701D01*
X168969Y384685D01*
X170165Y383886D01*
X171493Y383336D01*
X172903Y383055D01*
X174341D01*
X175751Y383336D01*
X177079Y383886D01*
X178275Y384685D01*
X179292Y385701D01*
X180090Y386897D01*
X180641Y388225D01*
X180921Y389635D01*
Y391073D01*
X180641Y392483D01*
X180090Y393812D01*
X179292Y395007D01*
X178275Y396024D01*
X177079Y396823D01*
X175751Y397373D01*
X174341Y397654D01*
D02*
G37*
G36*
X60168D02*
X58730D01*
X57320Y397373D01*
X55991Y396823D01*
X54796Y396024D01*
X53779Y395007D01*
X52980Y393812D01*
X52430Y392483D01*
X52150Y391073D01*
Y389635D01*
X52430Y388225D01*
X52980Y386897D01*
X53779Y385701D01*
X54796Y384685D01*
X55991Y383886D01*
X57320Y383336D01*
X58730Y383055D01*
X60168D01*
X61578Y383336D01*
X62906Y383886D01*
X64102Y384685D01*
X65118Y385701D01*
X65917Y386897D01*
X66467Y388225D01*
X66748Y389635D01*
Y391073D01*
X66467Y392483D01*
X65917Y393812D01*
X65118Y395007D01*
X64102Y396024D01*
X62906Y396823D01*
X61578Y397373D01*
X60168Y397654D01*
D02*
G37*
G36*
X31200Y371502D02*
X29535D01*
Y368611D01*
X34525D01*
X34476Y368988D01*
X34137Y369806D01*
X33598Y370509D01*
X32896Y371047D01*
X32078Y371386D01*
X31200Y371502D01*
D02*
G37*
G36*
X27559Y376925D02*
X26574D01*
X25664Y376548D01*
X24967Y375851D01*
X24590Y374941D01*
Y373956D01*
X24967Y373045D01*
X25664Y372349D01*
X26574Y371972D01*
X26609D01*
X26642Y371472D01*
X25992Y371386D01*
X25174Y371047D01*
X24471Y370509D01*
X23933Y369806D01*
X23594Y368988D01*
X23544Y368611D01*
X28535D01*
Y371502D01*
X27631D01*
X27559Y371972D01*
X28469Y372349D01*
X29166Y373045D01*
X29543Y373956D01*
Y374941D01*
X29166Y375851D01*
X28469Y376548D01*
X27559Y376925D01*
D02*
G37*
G36*
X14271Y371501D02*
X13196D01*
Y368610D01*
X17596D01*
X17547Y368988D01*
X17208Y369806D01*
X16669Y370508D01*
X15967Y371047D01*
X15149Y371386D01*
X14271Y371501D01*
D02*
G37*
G36*
X12196D02*
X11121D01*
X10244Y371386D01*
X9426Y371047D01*
X8723Y370508D01*
X8185Y369806D01*
X7846Y368988D01*
X7796Y368610D01*
X12196D01*
Y371501D01*
D02*
G37*
G36*
X693493Y375109D02*
X692334D01*
X691215Y374809D01*
X690212Y374230D01*
X689393Y373410D01*
X688813Y372407D01*
X688513Y371288D01*
Y370129D01*
X688813Y369010D01*
X689393Y368007D01*
X690212Y367188D01*
X691215Y366609D01*
X692334Y366309D01*
X693493D01*
X694612Y366609D01*
X695615Y367188D01*
X696434Y368007D01*
X697014Y369010D01*
X697313Y370129D01*
Y371288D01*
X697014Y372407D01*
X696434Y373410D01*
X695615Y374230D01*
X694612Y374809D01*
X693493Y375109D01*
D02*
G37*
G36*
X663493D02*
X662334D01*
X661215Y374809D01*
X660212Y374230D01*
X659392Y373410D01*
X658813Y372407D01*
X658513Y371288D01*
Y370129D01*
X658813Y369010D01*
X659392Y368007D01*
X660212Y367188D01*
X661215Y366609D01*
X662334Y366309D01*
X663493D01*
X664612Y366609D01*
X665615Y367188D01*
X666434Y368007D01*
X667014Y369010D01*
X667313Y370129D01*
Y371288D01*
X667014Y372407D01*
X666434Y373410D01*
X665615Y374230D01*
X664612Y374809D01*
X663493Y375109D01*
D02*
G37*
G36*
X579319D02*
X578161D01*
X577042Y374809D01*
X576039Y374230D01*
X575219Y373410D01*
X574640Y372407D01*
X574340Y371288D01*
Y370129D01*
X574640Y369010D01*
X575219Y368007D01*
X576039Y367188D01*
X577042Y366609D01*
X578161Y366309D01*
X579319D01*
X580439Y366609D01*
X581442Y367188D01*
X582261Y368007D01*
X582840Y369010D01*
X583140Y370129D01*
Y371288D01*
X582840Y372407D01*
X582261Y373410D01*
X581442Y374230D01*
X580439Y374809D01*
X579319Y375109D01*
D02*
G37*
G36*
X549319D02*
X548161D01*
X547042Y374809D01*
X546038Y374230D01*
X545219Y373410D01*
X544640Y372407D01*
X544340Y371288D01*
Y370129D01*
X544640Y369010D01*
X545219Y368007D01*
X546038Y367188D01*
X547042Y366609D01*
X548161Y366309D01*
X549319D01*
X550438Y366609D01*
X551442Y367188D01*
X552261Y368007D01*
X552840Y369010D01*
X553140Y370129D01*
Y371288D01*
X552840Y372407D01*
X552261Y373410D01*
X551442Y374230D01*
X550438Y374809D01*
X549319Y375109D01*
D02*
G37*
G36*
X528138D02*
X526980D01*
X525861Y374809D01*
X524857Y374230D01*
X524038Y373410D01*
X523459Y372407D01*
X523159Y371288D01*
Y370129D01*
X523459Y369010D01*
X524038Y368007D01*
X524857Y367188D01*
X525861Y366609D01*
X526980Y366309D01*
X528138D01*
X529257Y366609D01*
X530261Y367188D01*
X531080Y368007D01*
X531659Y369010D01*
X531959Y370129D01*
Y371288D01*
X531659Y372407D01*
X531080Y373410D01*
X530261Y374230D01*
X529257Y374809D01*
X528138Y375109D01*
D02*
G37*
G36*
X498138D02*
X496980D01*
X495861Y374809D01*
X494857Y374230D01*
X494038Y373410D01*
X493459Y372407D01*
X493159Y371288D01*
Y370129D01*
X493459Y369010D01*
X494038Y368007D01*
X494857Y367188D01*
X495861Y366609D01*
X496980Y366309D01*
X498138D01*
X499257Y366609D01*
X500261Y367188D01*
X501080Y368007D01*
X501659Y369010D01*
X501959Y370129D01*
Y371288D01*
X501659Y372407D01*
X501080Y373410D01*
X500261Y374230D01*
X499257Y374809D01*
X498138Y375109D01*
D02*
G37*
G36*
X476957D02*
X475799D01*
X474680Y374809D01*
X473676Y374230D01*
X472857Y373410D01*
X472278Y372407D01*
X471978Y371288D01*
Y370129D01*
X472278Y369010D01*
X472857Y368007D01*
X473676Y367188D01*
X474680Y366609D01*
X475799Y366309D01*
X476957D01*
X478076Y366609D01*
X479080Y367188D01*
X479899Y368007D01*
X480478Y369010D01*
X480778Y370129D01*
Y371288D01*
X480478Y372407D01*
X479899Y373410D01*
X479080Y374230D01*
X478076Y374809D01*
X476957Y375109D01*
D02*
G37*
G36*
X446957D02*
X445799D01*
X444680Y374809D01*
X443676Y374230D01*
X442857Y373410D01*
X442278Y372407D01*
X441978Y371288D01*
Y370129D01*
X442278Y369010D01*
X442857Y368007D01*
X443676Y367188D01*
X444680Y366609D01*
X445799Y366309D01*
X446957D01*
X448076Y366609D01*
X449080Y367188D01*
X449899Y368007D01*
X450478Y369010D01*
X450778Y370129D01*
Y371288D01*
X450478Y372407D01*
X449899Y373410D01*
X449080Y374230D01*
X448076Y374809D01*
X446957Y375109D01*
D02*
G37*
G36*
X425776D02*
X424618D01*
X423498Y374809D01*
X422495Y374230D01*
X421676Y373410D01*
X421097Y372407D01*
X420797Y371288D01*
Y370129D01*
X421097Y369010D01*
X421676Y368007D01*
X422495Y367188D01*
X423498Y366609D01*
X424618Y366309D01*
X425776D01*
X426895Y366609D01*
X427899Y367188D01*
X428718Y368007D01*
X429297Y369010D01*
X429597Y370129D01*
Y371288D01*
X429297Y372407D01*
X428718Y373410D01*
X427899Y374230D01*
X426895Y374809D01*
X425776Y375109D01*
D02*
G37*
G36*
X395776D02*
X394618D01*
X393498Y374809D01*
X392495Y374230D01*
X391676Y373410D01*
X391097Y372407D01*
X390797Y371288D01*
Y370129D01*
X391097Y369010D01*
X391184Y368859D01*
X384919Y362593D01*
X384587Y362097D01*
X384471Y361512D01*
Y326600D01*
X384587Y326015D01*
X384919Y325519D01*
X438019Y272419D01*
X438515Y272087D01*
X439100Y271971D01*
X452709D01*
X464971Y259710D01*
Y216082D01*
X464635Y215746D01*
X464300Y214938D01*
Y214062D01*
X464635Y213254D01*
X465254Y212635D01*
X466062Y212300D01*
X466938D01*
X467746Y212635D01*
X468365Y213254D01*
X468700Y214062D01*
Y214938D01*
X468365Y215746D01*
X468029Y216082D01*
Y260343D01*
X467913Y260928D01*
X467581Y261424D01*
X454424Y274581D01*
X453928Y274913D01*
X453343Y275029D01*
X439734D01*
X387529Y327234D01*
Y360878D01*
X393347Y366696D01*
X393498Y366609D01*
X394618Y366309D01*
X395776D01*
X396895Y366609D01*
X397899Y367188D01*
X398718Y368007D01*
X399297Y369010D01*
X399597Y370129D01*
Y371288D01*
X399297Y372407D01*
X398718Y373410D01*
X397899Y374230D01*
X396895Y374809D01*
X395776Y375109D01*
D02*
G37*
G36*
X34525Y367611D02*
X29535D01*
Y364719D01*
X31200D01*
X32078Y364835D01*
X32896Y365174D01*
X33598Y365713D01*
X34137Y366415D01*
X34476Y367233D01*
X34525Y367611D01*
D02*
G37*
G36*
X28535D02*
X23544D01*
X23594Y367233D01*
X23933Y366415D01*
X24471Y365713D01*
X25174Y365174D01*
X25992Y364835D01*
X26869Y364719D01*
X28535D01*
Y367611D01*
D02*
G37*
G36*
X17596Y367610D02*
X13196D01*
Y364719D01*
X14271D01*
X15149Y364834D01*
X15967Y365173D01*
X16669Y365712D01*
X17208Y366414D01*
X17547Y367232D01*
X17596Y367610D01*
D02*
G37*
G36*
X12196D02*
X7796D01*
X7846Y367232D01*
X8185Y366414D01*
X8723Y365712D01*
X9426Y365173D01*
X10244Y364834D01*
X11121Y364719D01*
X12196D01*
Y367610D01*
D02*
G37*
G36*
X38938Y351200D02*
X38062D01*
X37254Y350865D01*
X36635Y350246D01*
X36300Y349438D01*
Y348562D01*
X36635Y347754D01*
X37254Y347135D01*
X38062Y346800D01*
X38938D01*
X39746Y347135D01*
X40365Y347754D01*
X40700Y348562D01*
Y349438D01*
X40365Y350246D01*
X39746Y350865D01*
X38938Y351200D01*
D02*
G37*
G36*
X753696Y350606D02*
X752297D01*
X750924Y350333D01*
X749632Y349798D01*
X748469Y349021D01*
X747479Y348031D01*
X746702Y346868D01*
X746167Y345576D01*
X745894Y344203D01*
Y342804D01*
X746167Y341432D01*
X746702Y340140D01*
X747479Y338976D01*
X748469Y337987D01*
X749632Y337210D01*
X750924Y336674D01*
X752297Y336402D01*
X753696D01*
X755068Y336674D01*
X756360Y337210D01*
X757524Y337987D01*
X758513Y338976D01*
X759290Y340140D01*
X759826Y341432D01*
X760098Y342804D01*
Y344203D01*
X759826Y345576D01*
X759290Y346868D01*
X758513Y348031D01*
X757524Y349021D01*
X756360Y349798D01*
X755068Y350333D01*
X753696Y350606D01*
D02*
G37*
G36*
X457669Y345530D02*
X456756Y345410D01*
X455904Y345057D01*
X455173Y344496D01*
X446378Y335701D01*
X437583Y344496D01*
X436852Y345057D01*
X436000Y345410D01*
X435087Y345530D01*
X406488D01*
X406488Y345530D01*
X405575Y345410D01*
X404723Y345057D01*
X403992Y344496D01*
X394600Y335104D01*
X393498Y334809D01*
X392495Y334229D01*
X391676Y333410D01*
X391097Y332407D01*
X390797Y331288D01*
Y330129D01*
X391097Y329010D01*
X391676Y328007D01*
X392495Y327188D01*
X393498Y326608D01*
X394618Y326309D01*
X395776D01*
X396895Y326608D01*
X397899Y327188D01*
X398718Y328007D01*
X399297Y329010D01*
X399592Y330111D01*
X407950Y338470D01*
X433624D01*
X441983Y330111D01*
X442176Y329391D01*
X435558Y322773D01*
X435116Y322111D01*
X434961Y321331D01*
Y295284D01*
X435116Y294503D01*
X435558Y293842D01*
X442307Y287092D01*
Y280890D01*
X451394D01*
Y289976D01*
X445191D01*
X439039Y296128D01*
Y320486D01*
X445060Y326507D01*
X445799Y326309D01*
X446957D01*
X448076Y326608D01*
X449080Y327188D01*
X449899Y328007D01*
X450478Y329010D01*
X450773Y330111D01*
X459131Y338470D01*
X484805D01*
X493164Y330111D01*
X493459Y329010D01*
X494038Y328007D01*
X494857Y327188D01*
X495861Y326608D01*
X496980Y326309D01*
X498138D01*
X499257Y326608D01*
X500261Y327188D01*
X501080Y328007D01*
X501659Y329010D01*
X501954Y330111D01*
X509813Y337970D01*
X536487D01*
X544345Y330111D01*
X544640Y329010D01*
X545219Y328007D01*
X546038Y327188D01*
X547042Y326608D01*
X548161Y326309D01*
X549319D01*
X550438Y326608D01*
X551442Y327188D01*
X552261Y328007D01*
X552840Y329010D01*
X553140Y330129D01*
Y331288D01*
X552840Y332407D01*
X552261Y333410D01*
X551442Y334229D01*
X550438Y334809D01*
X549337Y335104D01*
X540445Y343996D01*
X539714Y344557D01*
X538863Y344910D01*
X537949Y345030D01*
X508350D01*
X507437Y344910D01*
X506585Y344557D01*
X505854Y343996D01*
X497559Y335701D01*
X488764Y344496D01*
X488033Y345057D01*
X487181Y345410D01*
X486268Y345530D01*
X457669D01*
X457669Y345530D01*
D02*
G37*
G36*
X693493Y335109D02*
X692334D01*
X691215Y334809D01*
X690212Y334229D01*
X689393Y333410D01*
X688813Y332407D01*
X688513Y331288D01*
Y330129D01*
X688813Y329010D01*
X689393Y328007D01*
X690212Y327188D01*
X691215Y326608D01*
X692334Y326309D01*
X693493D01*
X694612Y326608D01*
X695615Y327188D01*
X696434Y328007D01*
X697014Y329010D01*
X697313Y330129D01*
Y331288D01*
X697014Y332407D01*
X696434Y333410D01*
X695615Y334229D01*
X694612Y334809D01*
X693493Y335109D01*
D02*
G37*
G36*
X663493D02*
X662334D01*
X661215Y334809D01*
X660212Y334229D01*
X659392Y333410D01*
X658813Y332407D01*
X658513Y331288D01*
Y330129D01*
X658813Y329010D01*
X659392Y328007D01*
X660212Y327188D01*
X661215Y326608D01*
X662334Y326309D01*
X663493D01*
X664612Y326608D01*
X665615Y327188D01*
X666434Y328007D01*
X667014Y329010D01*
X667313Y330129D01*
Y331288D01*
X667014Y332407D01*
X666434Y333410D01*
X665615Y334229D01*
X664612Y334809D01*
X663493Y335109D01*
D02*
G37*
G36*
X579319D02*
X578161D01*
X577042Y334809D01*
X576039Y334229D01*
X575219Y333410D01*
X574640Y332407D01*
X574340Y331288D01*
Y330129D01*
X574640Y329010D01*
X575219Y328007D01*
X576039Y327188D01*
X577042Y326608D01*
X578161Y326309D01*
X579319D01*
X580439Y326608D01*
X581442Y327188D01*
X582261Y328007D01*
X582840Y329010D01*
X583140Y330129D01*
Y331288D01*
X582840Y332407D01*
X582261Y333410D01*
X581442Y334229D01*
X580439Y334809D01*
X579319Y335109D01*
D02*
G37*
G36*
X528138D02*
X526980D01*
X525861Y334809D01*
X524857Y334229D01*
X524038Y333410D01*
X523459Y332407D01*
X523159Y331288D01*
Y330129D01*
X523459Y329010D01*
X524038Y328007D01*
X524857Y327188D01*
X525861Y326608D01*
X526980Y326309D01*
X528138D01*
X529257Y326608D01*
X530261Y327188D01*
X531080Y328007D01*
X531659Y329010D01*
X531959Y330129D01*
Y331288D01*
X531659Y332407D01*
X531080Y333410D01*
X530261Y334229D01*
X529257Y334809D01*
X528138Y335109D01*
D02*
G37*
G36*
X476957D02*
X475799D01*
X474680Y334809D01*
X473676Y334229D01*
X472857Y333410D01*
X472278Y332407D01*
X471978Y331288D01*
Y330129D01*
X472278Y329010D01*
X472857Y328007D01*
X473676Y327188D01*
X474680Y326608D01*
X475799Y326309D01*
X476957D01*
X478076Y326608D01*
X479080Y327188D01*
X479899Y328007D01*
X480478Y329010D01*
X480778Y330129D01*
Y331288D01*
X480478Y332407D01*
X479899Y333410D01*
X479080Y334229D01*
X478076Y334809D01*
X476957Y335109D01*
D02*
G37*
G36*
X425776D02*
X424618D01*
X423498Y334809D01*
X422495Y334229D01*
X421676Y333410D01*
X421097Y332407D01*
X420797Y331288D01*
Y330129D01*
X421097Y329010D01*
X421676Y328007D01*
X422495Y327188D01*
X423498Y326608D01*
X424618Y326309D01*
X425776D01*
X426895Y326608D01*
X427899Y327188D01*
X428718Y328007D01*
X429297Y329010D01*
X429597Y330129D01*
Y331288D01*
X429297Y332407D01*
X428718Y333410D01*
X427899Y334229D01*
X426895Y334809D01*
X425776Y335109D01*
D02*
G37*
G36*
X10438Y325200D02*
X9562D01*
X8754Y324865D01*
X8135Y324246D01*
X7800Y323438D01*
Y322562D01*
X8135Y321754D01*
X8754Y321135D01*
X9562Y320800D01*
X10438D01*
X11246Y321135D01*
X11865Y321754D01*
X12200Y322562D01*
Y323438D01*
X11865Y324246D01*
X11246Y324865D01*
X10438Y325200D01*
D02*
G37*
G36*
X366467Y325606D02*
X365029D01*
X363619Y325326D01*
X362291Y324776D01*
X361095Y323977D01*
X360078Y322960D01*
X359280Y321765D01*
X358729Y320436D01*
X358449Y319026D01*
Y317588D01*
X358729Y316178D01*
X359280Y314850D01*
X360078Y313654D01*
X361095Y312637D01*
X362291Y311839D01*
X363619Y311288D01*
X365029Y311008D01*
X366467D01*
X367877Y311288D01*
X369205Y311839D01*
X370401Y312637D01*
X371418Y313654D01*
X372217Y314850D01*
X372767Y316178D01*
X373047Y317588D01*
Y319026D01*
X372767Y320436D01*
X372217Y321765D01*
X371418Y322960D01*
X370401Y323977D01*
X369205Y324776D01*
X367877Y325326D01*
X366467Y325606D01*
D02*
G37*
G36*
X252294D02*
X250856D01*
X249446Y325326D01*
X248117Y324776D01*
X246922Y323977D01*
X245905Y322960D01*
X245106Y321765D01*
X244556Y320436D01*
X244276Y319026D01*
Y317588D01*
X244556Y316178D01*
X245106Y314850D01*
X245905Y313654D01*
X246922Y312637D01*
X248117Y311839D01*
X249446Y311288D01*
X250856Y311008D01*
X252294D01*
X253704Y311288D01*
X255032Y311839D01*
X256228Y312637D01*
X257244Y313654D01*
X258043Y314850D01*
X258594Y316178D01*
X258874Y317588D01*
Y319026D01*
X258594Y320436D01*
X258043Y321765D01*
X257244Y322960D01*
X256228Y323977D01*
X255032Y324776D01*
X253704Y325326D01*
X252294Y325606D01*
D02*
G37*
G36*
X138120D02*
X136683D01*
X135273Y325326D01*
X133944Y324776D01*
X132749Y323977D01*
X131732Y322960D01*
X130933Y321765D01*
X130383Y320436D01*
X130102Y319026D01*
Y317588D01*
X130383Y316178D01*
X130933Y314850D01*
X131732Y313654D01*
X132749Y312637D01*
X133944Y311839D01*
X135273Y311288D01*
X136683Y311008D01*
X138120D01*
X139531Y311288D01*
X140859Y311839D01*
X142055Y312637D01*
X143071Y313654D01*
X143870Y314850D01*
X144420Y316178D01*
X144701Y317588D01*
Y319026D01*
X144420Y320436D01*
X143870Y321765D01*
X143071Y322960D01*
X142055Y323977D01*
X140859Y324776D01*
X139531Y325326D01*
X138120Y325606D01*
D02*
G37*
G36*
X527438Y310700D02*
X526562D01*
X525754Y310365D01*
X525135Y309746D01*
X524800Y308938D01*
Y308062D01*
X525135Y307254D01*
X525754Y306635D01*
X526562Y306300D01*
X527438D01*
X528246Y306635D01*
X528865Y307254D01*
X529200Y308062D01*
Y308938D01*
X528865Y309746D01*
X528246Y310365D01*
X527438Y310700D01*
D02*
G37*
G36*
X566438Y310200D02*
X565562D01*
X564754Y309865D01*
X564135Y309246D01*
X563800Y308438D01*
Y307562D01*
X564135Y306754D01*
X564754Y306135D01*
X565562Y305800D01*
X566438D01*
X567246Y306135D01*
X567865Y306754D01*
X568200Y307562D01*
Y308438D01*
X567865Y309246D01*
X567246Y309865D01*
X566438Y310200D01*
D02*
G37*
G36*
X447448Y309661D02*
X446252D01*
X445097Y309352D01*
X444061Y308754D01*
X443215Y307908D01*
X442617Y306872D01*
X442307Y305716D01*
Y304520D01*
X442617Y303364D01*
X443215Y302328D01*
X444061Y301483D01*
X445097Y300884D01*
X446252Y300575D01*
X447448D01*
X448604Y300884D01*
X449640Y301483D01*
X450486Y302328D01*
X451084Y303364D01*
X451394Y304520D01*
Y305716D01*
X451084Y306872D01*
X450486Y307908D01*
X449640Y308754D01*
X448604Y309352D01*
X447448Y309661D01*
D02*
G37*
G36*
X595000Y306045D02*
X593921D01*
X592878Y305766D01*
X591943Y305226D01*
X591180Y304462D01*
X590640Y303527D01*
X590361Y302485D01*
Y301405D01*
X590640Y300362D01*
X591180Y299427D01*
X591943Y298664D01*
X592878Y298124D01*
X593921Y297845D01*
X595000D01*
X596043Y298124D01*
X596978Y298664D01*
X597741Y299427D01*
X598281Y300362D01*
X598561Y301405D01*
Y302485D01*
X598281Y303527D01*
X597741Y304462D01*
X596978Y305226D01*
X596043Y305766D01*
X595000Y306045D01*
D02*
G37*
G36*
X23938Y289200D02*
X23062D01*
X22254Y288865D01*
X21635Y288246D01*
X21300Y287438D01*
Y286562D01*
X21635Y285754D01*
X22254Y285135D01*
X23062Y284800D01*
X23938D01*
X24746Y285135D01*
X25365Y285754D01*
X25700Y286562D01*
Y287438D01*
X25365Y288246D01*
X24746Y288865D01*
X23938Y289200D01*
D02*
G37*
G36*
X350438Y278700D02*
X349562D01*
X348754Y278365D01*
X348750Y278361D01*
X348746Y278365D01*
X347938Y278700D01*
X347062D01*
X346254Y278365D01*
X346250Y278361D01*
X346246Y278365D01*
X345438Y278700D01*
X344562D01*
X343754Y278365D01*
X343135Y277746D01*
X342800Y276938D01*
Y276062D01*
X343135Y275254D01*
X343139Y275250D01*
X343135Y275246D01*
X342800Y274438D01*
Y273562D01*
X343135Y272754D01*
X343139Y272750D01*
X343135Y272746D01*
X342800Y271938D01*
Y271062D01*
X343135Y270254D01*
X343139Y270250D01*
X343135Y270246D01*
X342800Y269438D01*
Y268562D01*
X343135Y267754D01*
X343139Y267750D01*
X343135Y267746D01*
X342800Y266938D01*
Y266062D01*
X343135Y265254D01*
X343139Y265250D01*
X343135Y265246D01*
X342800Y264438D01*
Y263562D01*
X343135Y262754D01*
X343139Y262750D01*
X343135Y262746D01*
X342800Y261938D01*
Y261062D01*
X343135Y260254D01*
X343754Y259635D01*
X344562Y259300D01*
X345438D01*
X346246Y259635D01*
X346250Y259639D01*
X346254Y259635D01*
X347062Y259300D01*
X347938D01*
X348746Y259635D01*
X348750Y259639D01*
X348754Y259635D01*
X349562Y259300D01*
X350438D01*
X351246Y259635D01*
X351865Y260254D01*
X352200Y261062D01*
Y261938D01*
X351865Y262746D01*
X351861Y262750D01*
X351865Y262754D01*
X352200Y263562D01*
Y264438D01*
X351865Y265246D01*
X351861Y265250D01*
X351865Y265254D01*
X352200Y266062D01*
Y266938D01*
X351865Y267746D01*
X351861Y267750D01*
X351865Y267754D01*
X352200Y268562D01*
Y269438D01*
X351865Y270246D01*
X351861Y270250D01*
X351865Y270254D01*
X352200Y271062D01*
Y271938D01*
X351865Y272746D01*
X351861Y272750D01*
X351865Y272754D01*
X352200Y273562D01*
Y274438D01*
X351865Y275246D01*
X351861Y275250D01*
X351865Y275254D01*
X352200Y276062D01*
Y276938D01*
X351865Y277746D01*
X351246Y278365D01*
X350438Y278700D01*
D02*
G37*
G36*
X684438Y276200D02*
X683562D01*
X682754Y275865D01*
X682135Y275246D01*
X681800Y274438D01*
Y273562D01*
X682135Y272754D01*
X682754Y272135D01*
X683562Y271800D01*
X684438D01*
X685246Y272135D01*
X685865Y272754D01*
X686200Y273562D01*
Y274438D01*
X685865Y275246D01*
X685246Y275865D01*
X684438Y276200D01*
D02*
G37*
G36*
X585438Y306200D02*
X584562D01*
X583754Y305865D01*
X583135Y305246D01*
X582800Y304438D01*
Y303963D01*
X545129Y266292D01*
X544722Y266548D01*
X544700Y266570D01*
Y267438D01*
X544365Y268246D01*
X543746Y268865D01*
X542938Y269200D01*
X542062D01*
X541254Y268865D01*
X540635Y268246D01*
X540300Y267438D01*
Y266562D01*
X540635Y265754D01*
X541254Y265135D01*
X542062Y264800D01*
X542930D01*
X542952Y264778D01*
X543208Y264371D01*
X491919Y213081D01*
X491587Y212585D01*
X491471Y212000D01*
Y180500D01*
X491587Y179915D01*
X491919Y179419D01*
X492800Y178537D01*
Y178062D01*
X493135Y177254D01*
X493471Y176918D01*
Y154000D01*
X493587Y153415D01*
X493919Y152919D01*
X531846Y114991D01*
X531654Y114529D01*
X389397D01*
X388300Y115626D01*
X388377Y115759D01*
X388673Y116865D01*
Y118009D01*
X388377Y119115D01*
X387805Y120106D01*
X386996Y120915D01*
X386004Y121487D01*
X384899Y121783D01*
X383755D01*
X382649Y121487D01*
X381658Y120915D01*
X380849Y120106D01*
X380276Y119115D01*
X379980Y118009D01*
Y116865D01*
X380276Y115759D01*
X380849Y114768D01*
X381658Y113959D01*
X382649Y113387D01*
X383755Y113091D01*
X384899D01*
X386004Y113387D01*
X386137Y113463D01*
X387682Y111919D01*
X388178Y111587D01*
X388764Y111471D01*
X532418D01*
X532754Y111135D01*
X533562Y110800D01*
X534438D01*
X535246Y111135D01*
X535865Y111754D01*
X536200Y112562D01*
Y113438D01*
X535865Y114246D01*
X535529Y114582D01*
Y115000D01*
X535413Y115585D01*
X535081Y116081D01*
X496529Y154633D01*
Y176918D01*
X496865Y177254D01*
X497200Y178062D01*
Y178938D01*
X496865Y179746D01*
X496246Y180365D01*
X495438Y180700D01*
X494963D01*
X494529Y181133D01*
Y202706D01*
X495029Y203021D01*
X495562Y202800D01*
X496438D01*
X497246Y203135D01*
X497865Y203754D01*
X498200Y204562D01*
Y205438D01*
X497865Y206246D01*
X497246Y206865D01*
X496438Y207200D01*
X495562D01*
X495029Y206979D01*
X494529Y207294D01*
Y211367D01*
X584963Y301800D01*
X585438D01*
X586246Y302135D01*
X586865Y302754D01*
X587200Y303562D01*
Y304438D01*
X586865Y305246D01*
X586246Y305865D01*
X585438Y306200D01*
D02*
G37*
G36*
X570938Y262700D02*
X570062D01*
X569254Y262365D01*
X568635Y261746D01*
X568300Y260938D01*
Y260062D01*
X568635Y259254D01*
X569254Y258635D01*
X570062Y258300D01*
X570938D01*
X571746Y258635D01*
X572365Y259254D01*
X572700Y260062D01*
Y260938D01*
X572365Y261746D01*
X571746Y262365D01*
X570938Y262700D01*
D02*
G37*
G36*
X595000Y256832D02*
X593921D01*
X592878Y256553D01*
X591943Y256013D01*
X591180Y255250D01*
X590640Y254315D01*
X590361Y253272D01*
Y252192D01*
X590640Y251150D01*
X591180Y250215D01*
X591943Y249451D01*
X592878Y248912D01*
X593921Y248632D01*
X595000D01*
X596043Y248912D01*
X596978Y249451D01*
X597741Y250215D01*
X598281Y251150D01*
X598561Y252192D01*
Y253272D01*
X598281Y254315D01*
X597741Y255250D01*
X596978Y256013D01*
X596043Y256553D01*
X595000Y256832D01*
D02*
G37*
G36*
X704752Y255761D02*
X695662D01*
Y246680D01*
X704752D01*
Y255761D01*
D02*
G37*
G36*
X717706Y250764D02*
X716509D01*
X715354Y250454D01*
X714318Y249856D01*
X713472Y249010D01*
X712874Y247974D01*
X712564Y246819D01*
Y245622D01*
X712874Y244467D01*
X713472Y243431D01*
X714318Y242585D01*
X715354Y241987D01*
X716509Y241677D01*
X717706D01*
X718861Y241987D01*
X719897Y242585D01*
X720743Y243431D01*
X721341Y244467D01*
X721651Y245622D01*
Y246819D01*
X721341Y247974D01*
X720743Y249010D01*
X719897Y249856D01*
X718861Y250454D01*
X717706Y250764D01*
D02*
G37*
G36*
X701206Y245764D02*
X700009D01*
X698854Y245454D01*
X697818Y244856D01*
X696972Y244010D01*
X696374Y242974D01*
X696064Y241819D01*
Y240622D01*
X696374Y239467D01*
X696972Y238431D01*
X697818Y237585D01*
X698854Y236987D01*
X700009Y236677D01*
X701206D01*
X702361Y236987D01*
X703397Y237585D01*
X704243Y238431D01*
X704841Y239467D01*
X705151Y240622D01*
Y241819D01*
X704841Y242974D01*
X704243Y244010D01*
X703397Y244856D01*
X702361Y245454D01*
X701206Y245764D01*
D02*
G37*
G36*
X717706Y240764D02*
X716509D01*
X715354Y240454D01*
X714318Y239856D01*
X713472Y239010D01*
X712874Y237974D01*
X712564Y236819D01*
Y235622D01*
X712874Y234467D01*
X713472Y233431D01*
X714318Y232585D01*
X715354Y231987D01*
X716509Y231677D01*
X717706D01*
X718861Y231987D01*
X719897Y232585D01*
X720743Y233431D01*
X721341Y234467D01*
X721651Y235622D01*
Y236819D01*
X721341Y237974D01*
X720743Y239010D01*
X719897Y239856D01*
X718861Y240454D01*
X717706Y240764D01*
D02*
G37*
G36*
X701206Y235764D02*
X700009D01*
X698854Y235454D01*
X697818Y234856D01*
X696972Y234010D01*
X696374Y232974D01*
X696064Y231819D01*
Y230622D01*
X696374Y229467D01*
X696972Y228431D01*
X697818Y227585D01*
X698854Y226987D01*
X700009Y226677D01*
X701206D01*
X702361Y226987D01*
X703397Y227585D01*
X704243Y228431D01*
X704841Y229467D01*
X705151Y230622D01*
Y231819D01*
X704841Y232974D01*
X704243Y234010D01*
X703397Y234856D01*
X702361Y235454D01*
X701206Y235764D01*
D02*
G37*
G36*
X511274Y288864D02*
X510398D01*
X509590Y288529D01*
X508971Y287910D01*
X508636Y287102D01*
Y286627D01*
X487919Y265909D01*
X487587Y265413D01*
X487471Y264828D01*
Y156633D01*
X483366Y152529D01*
X394210D01*
X394018Y152991D01*
X425497Y184471D01*
X460418D01*
X460754Y184135D01*
X461562Y183800D01*
X462438D01*
X463246Y184135D01*
X463865Y184754D01*
X464200Y185562D01*
Y186438D01*
X463865Y187246D01*
X463246Y187865D01*
X462438Y188200D01*
X461562D01*
X460754Y187865D01*
X460418Y187529D01*
X457964D01*
X457773Y187991D01*
X460081Y190300D01*
X460413Y190796D01*
X460529Y191382D01*
Y195918D01*
X460865Y196254D01*
X461200Y197062D01*
Y197938D01*
X460865Y198746D01*
X460246Y199365D01*
X459438Y199700D01*
X458562D01*
X457754Y199365D01*
X457135Y198746D01*
X456800Y197938D01*
Y197062D01*
X457135Y196254D01*
X457471Y195918D01*
Y192015D01*
X456487Y191031D01*
X455997Y191129D01*
X455865Y191446D01*
X455529Y191782D01*
Y217367D01*
X457463Y219300D01*
X457938D01*
X458746Y219635D01*
X459365Y220254D01*
X459700Y221062D01*
Y221938D01*
X459365Y222746D01*
X458746Y223365D01*
X457938Y223700D01*
X457062D01*
X456254Y223365D01*
X455635Y222746D01*
X455300Y221938D01*
Y221463D01*
X452919Y219081D01*
X452587Y218585D01*
X452529Y218296D01*
X452029Y218345D01*
Y225418D01*
X452082Y225471D01*
X457600D01*
X457935Y225135D01*
X458744Y224800D01*
X459619D01*
X460428Y225135D01*
X461047Y225754D01*
X461382Y226562D01*
Y227438D01*
X461047Y228246D01*
X460428Y228865D01*
X459619Y229200D01*
X458744D01*
X457935Y228865D01*
X457600Y228529D01*
X452082D01*
X451746Y228865D01*
X450938Y229200D01*
X450062D01*
X449254Y228865D01*
X448635Y228246D01*
X448300Y227438D01*
Y226562D01*
X448635Y225754D01*
X448971Y225418D01*
Y218634D01*
X388866Y158529D01*
X311515D01*
X310929Y158413D01*
X310433Y158081D01*
X248991Y96640D01*
X248529Y96831D01*
Y115500D01*
X248413Y116085D01*
X248081Y116581D01*
X243700Y120963D01*
Y121438D01*
X243365Y122246D01*
X242746Y122865D01*
X241938Y123200D01*
X241062D01*
X240254Y122865D01*
X239635Y122246D01*
X239300Y121438D01*
Y120562D01*
X239635Y119754D01*
X240254Y119135D01*
X241062Y118800D01*
X241537D01*
X245471Y114866D01*
Y112163D01*
X244971Y112114D01*
X244913Y112404D01*
X244581Y112900D01*
X240400Y117081D01*
X239904Y117413D01*
X239318Y117529D01*
X202846D01*
X202654Y117991D01*
X209081Y124419D01*
X209413Y124915D01*
X209529Y125500D01*
Y142418D01*
X209865Y142754D01*
X210200Y143562D01*
Y144438D01*
X209865Y145246D01*
X209246Y145865D01*
X208438Y146200D01*
X207562D01*
X206754Y145865D01*
X206135Y145246D01*
X205800Y144438D01*
Y143562D01*
X206135Y142754D01*
X206471Y142418D01*
Y126134D01*
X199366Y119029D01*
X73000D01*
X72415Y118913D01*
X71919Y118581D01*
X68719Y115381D01*
X68387Y114885D01*
X68271Y114300D01*
Y29200D01*
X68387Y28615D01*
X68719Y28119D01*
X86079Y10758D01*
Y10226D01*
X86087Y10189D01*
Y3449D01*
X94386D01*
Y11748D01*
X89067D01*
X89022Y11977D01*
X88690Y12473D01*
X71329Y29833D01*
Y57654D01*
X71745Y57931D01*
X72062Y57800D01*
X72938D01*
X73746Y58135D01*
X74365Y58754D01*
X74700Y59562D01*
Y60438D01*
X74365Y61246D01*
X74029Y61582D01*
Y93366D01*
X74463Y93800D01*
X74938D01*
X75746Y94135D01*
X76365Y94754D01*
X76700Y95562D01*
Y96438D01*
X76365Y97246D01*
X75746Y97865D01*
X74938Y98200D01*
X74062D01*
X73254Y97865D01*
X72635Y97246D01*
X72300Y96438D01*
Y95963D01*
X71829Y95492D01*
X71329Y95699D01*
Y113666D01*
X72300Y114637D01*
X72800Y114430D01*
Y113862D01*
X73135Y113054D01*
X73754Y112435D01*
X74562Y112100D01*
X75438D01*
X76246Y112435D01*
X76865Y113054D01*
X77200Y113862D01*
Y113958D01*
X77712Y114471D01*
X196215D01*
X196406Y114009D01*
X176919Y94521D01*
X176587Y94025D01*
X176471Y93440D01*
Y81582D01*
X176135Y81246D01*
X175800Y80438D01*
Y79562D01*
X176021Y79029D01*
X175706Y78529D01*
X175500D01*
X174915Y78413D01*
X174419Y78081D01*
X171537Y75200D01*
X171062D01*
X170254Y74865D01*
X169635Y74246D01*
X169300Y73438D01*
Y72562D01*
X169635Y71754D01*
X170254Y71135D01*
X171062Y70800D01*
X171938D01*
X172746Y71135D01*
X173365Y71754D01*
X173700Y72562D01*
Y73037D01*
X176134Y75471D01*
X201706D01*
X202021Y74971D01*
X201800Y74438D01*
Y73562D01*
X202135Y72754D01*
X202754Y72135D01*
X203562Y71800D01*
X204438D01*
X205246Y72135D01*
X205582Y72471D01*
X213412D01*
X213603Y72009D01*
X207624Y66029D01*
X198346D01*
X198069Y66445D01*
X198200Y66762D01*
Y67638D01*
X197865Y68446D01*
X197350Y68961D01*
X197477Y69414D01*
X197956Y69433D01*
X198254Y69135D01*
X199062Y68800D01*
X199938D01*
X200746Y69135D01*
X201365Y69754D01*
X201700Y70562D01*
Y71438D01*
X201365Y72246D01*
X200746Y72865D01*
X199938Y73200D01*
X199062D01*
X198254Y72865D01*
X197918Y72529D01*
X188379D01*
X187793Y72413D01*
X187297Y72081D01*
X179919Y64703D01*
X179587Y64207D01*
X179471Y63621D01*
Y59379D01*
X179587Y58793D01*
X179919Y58297D01*
X191297Y46919D01*
X191793Y46587D01*
X192379Y46471D01*
X305706D01*
X306021Y45971D01*
X305800Y45438D01*
Y44562D01*
X306135Y43754D01*
X306754Y43135D01*
X307562Y42800D01*
X308438D01*
X309246Y43135D01*
X309250Y43139D01*
X309254Y43135D01*
X310062Y42800D01*
X310938D01*
X311746Y43135D01*
X311750Y43139D01*
X311754Y43135D01*
X312562Y42800D01*
X313438D01*
X314246Y43135D01*
X314865Y43754D01*
X315200Y44562D01*
Y45438D01*
X314979Y45971D01*
X315294Y46471D01*
X318206D01*
X318521Y45971D01*
X318300Y45438D01*
Y44562D01*
X318635Y43754D01*
X319254Y43135D01*
X320062Y42800D01*
X320938D01*
X321746Y43135D01*
X321750Y43139D01*
X321754Y43135D01*
X322562Y42800D01*
X323438D01*
X324246Y43135D01*
X324250Y43139D01*
X324254Y43135D01*
X325062Y42800D01*
X325938D01*
X326746Y43135D01*
X327365Y43754D01*
X327700Y44562D01*
Y45438D01*
X327479Y45971D01*
X327794Y46471D01*
X331000D01*
X331585Y46587D01*
X332081Y46919D01*
X353463Y68300D01*
X353938D01*
X354746Y68635D01*
X355365Y69254D01*
X355700Y70062D01*
Y70938D01*
X355365Y71746D01*
X354746Y72365D01*
X353938Y72700D01*
X353062D01*
X352254Y72365D01*
X351635Y71746D01*
X351300Y70938D01*
Y70463D01*
X330366Y49529D01*
X193012D01*
X186033Y56509D01*
X186224Y56971D01*
X206500D01*
X207085Y57087D01*
X207581Y57419D01*
X235633Y85471D01*
X247879D01*
X248464Y85587D01*
X248960Y85919D01*
X274509Y111467D01*
X274971Y111276D01*
Y101582D01*
X274635Y101246D01*
X274300Y100438D01*
Y99562D01*
X274635Y98754D01*
X275254Y98135D01*
X276062Y97800D01*
X276938D01*
X277746Y98135D01*
X278365Y98754D01*
X278700Y99562D01*
Y100438D01*
X278365Y101246D01*
X278029Y101582D01*
Y112866D01*
X314633Y149471D01*
X354909D01*
X355009Y148971D01*
X354754Y148865D01*
X354135Y148246D01*
X353800Y147438D01*
Y146562D01*
X354135Y145754D01*
X354754Y145135D01*
X355562Y144800D01*
X356438D01*
X357246Y145135D01*
X357865Y145754D01*
X358200Y146562D01*
Y147438D01*
X357865Y148246D01*
X357246Y148865D01*
X356991Y148971D01*
X357091Y149471D01*
X392652D01*
X392859Y148971D01*
X392635Y148746D01*
X392300Y147938D01*
Y147062D01*
X392635Y146254D01*
X393254Y145635D01*
X394062Y145300D01*
X394938D01*
X395746Y145635D01*
X396365Y146254D01*
X396700Y147062D01*
Y147938D01*
X396365Y148746D01*
X396141Y148971D01*
X396348Y149471D01*
X484000D01*
X484585Y149587D01*
X485081Y149919D01*
X490081Y154919D01*
X490413Y155415D01*
X490529Y156000D01*
Y264194D01*
X510799Y284464D01*
X511274D01*
X512082Y284799D01*
X512701Y285418D01*
X513036Y286226D01*
Y287102D01*
X512701Y287910D01*
X512082Y288529D01*
X511274Y288864D01*
D02*
G37*
G36*
X677938Y226700D02*
X677062D01*
X676254Y226365D01*
X675635Y225746D01*
X675300Y224938D01*
Y224062D01*
X675635Y223254D01*
X676254Y222635D01*
X677062Y222300D01*
X677938D01*
X678746Y222635D01*
X679365Y223254D01*
X679700Y224062D01*
Y224938D01*
X679365Y225746D01*
X678746Y226365D01*
X677938Y226700D01*
D02*
G37*
G36*
X347926Y222689D02*
X347051D01*
X346242Y222354D01*
X345623Y221735D01*
X345288Y220926D01*
Y220051D01*
X345623Y219242D01*
X346242Y218623D01*
X347051Y218288D01*
X347926D01*
X348735Y218623D01*
X349354Y219242D01*
X349689Y220051D01*
Y220926D01*
X349354Y221735D01*
X348735Y222354D01*
X347926Y222689D01*
D02*
G37*
G36*
X701206Y225764D02*
X700009D01*
X698854Y225454D01*
X697818Y224856D01*
X696972Y224010D01*
X696374Y222974D01*
X696064Y221819D01*
Y220622D01*
X696374Y219467D01*
X696972Y218431D01*
X697818Y217585D01*
X698854Y216987D01*
X700009Y216677D01*
X701206D01*
X702361Y216987D01*
X703397Y217585D01*
X704243Y218431D01*
X704841Y219467D01*
X705151Y220622D01*
Y221819D01*
X704841Y222974D01*
X704243Y224010D01*
X703397Y224856D01*
X702361Y225454D01*
X701206Y225764D01*
D02*
G37*
G36*
X677938Y220700D02*
X677062D01*
X676254Y220365D01*
X675635Y219746D01*
X675300Y218938D01*
Y218062D01*
X675635Y217254D01*
X676254Y216635D01*
X677062Y216300D01*
X677938D01*
X678746Y216635D01*
X679365Y217254D01*
X679700Y218062D01*
Y218938D01*
X679365Y219746D01*
X678746Y220365D01*
X677938Y220700D01*
D02*
G37*
G36*
X148288Y221472D02*
X146988D01*
X145732Y221136D01*
X144606Y220486D01*
X143687Y219567D01*
X143037Y218441D01*
X142701Y217185D01*
Y215885D01*
X143037Y214630D01*
X143687Y213504D01*
X144606Y212585D01*
X145732Y211935D01*
X146988Y211598D01*
X148288D01*
X149543Y211935D01*
X150669Y212585D01*
X151588Y213504D01*
X152238Y214630D01*
X152575Y215885D01*
Y217185D01*
X152238Y218441D01*
X151588Y219567D01*
X150669Y220486D01*
X149543Y221136D01*
X148288Y221472D01*
D02*
G37*
G36*
X533217Y217683D02*
X532137D01*
X531095Y217403D01*
X530160Y216863D01*
X529396Y216100D01*
X528857Y215165D01*
X528577Y214123D01*
Y213043D01*
X528857Y212000D01*
X529396Y211065D01*
X530160Y210302D01*
X531095Y209762D01*
X532137Y209483D01*
X533217D01*
X534260Y209762D01*
X535195Y210302D01*
X535958Y211065D01*
X536498Y212000D01*
X536777Y213043D01*
Y214123D01*
X536498Y215165D01*
X535958Y216100D01*
X535195Y216863D01*
X534260Y217403D01*
X533217Y217683D01*
D02*
G37*
G36*
X388462Y212980D02*
X388390D01*
Y209134D01*
X392236D01*
Y209206D01*
X391940Y210312D01*
X391368Y211303D01*
X390559Y212112D01*
X389567Y212684D01*
X388462Y212980D01*
D02*
G37*
G36*
X387390D02*
X387317D01*
X386212Y212684D01*
X385221Y212112D01*
X384412Y211303D01*
X383840Y210312D01*
X383543Y209206D01*
Y209134D01*
X387390D01*
Y212980D01*
D02*
G37*
G36*
X392236Y208134D02*
X388390D01*
Y204287D01*
X388462D01*
X389567Y204584D01*
X390559Y205156D01*
X391368Y205965D01*
X391940Y206956D01*
X392236Y208062D01*
Y208134D01*
D02*
G37*
G36*
X387390D02*
X383543D01*
Y208062D01*
X383840Y206956D01*
X384412Y205965D01*
X385221Y205156D01*
X386212Y204584D01*
X387317Y204287D01*
X387390D01*
Y208134D01*
D02*
G37*
G36*
X358462Y212980D02*
X357317D01*
X356212Y212684D01*
X355221Y212112D01*
X354412Y211303D01*
X353839Y210312D01*
X353543Y209206D01*
Y208062D01*
X353839Y206956D01*
X354412Y205965D01*
X355221Y205156D01*
X356212Y204584D01*
X357317Y204287D01*
X358462D01*
X359567Y204584D01*
X360559Y205156D01*
X361368Y205965D01*
X361940Y206956D01*
X362236Y208062D01*
Y209206D01*
X361940Y210312D01*
X361368Y211303D01*
X360559Y212112D01*
X359567Y212684D01*
X358462Y212980D01*
D02*
G37*
G36*
X351938Y204700D02*
X351062D01*
X350254Y204365D01*
X349635Y203746D01*
X349300Y202938D01*
Y202062D01*
X349635Y201254D01*
X350254Y200635D01*
X351062Y200300D01*
X351938D01*
X352746Y200635D01*
X353365Y201254D01*
X353700Y202062D01*
Y202938D01*
X353365Y203746D01*
X352746Y204365D01*
X351938Y204700D01*
D02*
G37*
G36*
X388462Y202980D02*
X388390D01*
Y199134D01*
X392236D01*
Y199206D01*
X391940Y200311D01*
X391368Y201303D01*
X390559Y202112D01*
X389567Y202684D01*
X388462Y202980D01*
D02*
G37*
G36*
X387390D02*
X387317D01*
X386212Y202684D01*
X385221Y202112D01*
X384412Y201303D01*
X383840Y200311D01*
X383543Y199206D01*
Y199134D01*
X387390D01*
Y202980D01*
D02*
G37*
G36*
X392236Y198134D02*
X388390D01*
Y194287D01*
X388462D01*
X389567Y194584D01*
X390559Y195156D01*
X391368Y195965D01*
X391940Y196956D01*
X392236Y198062D01*
Y198134D01*
D02*
G37*
G36*
X387390D02*
X383543D01*
Y198062D01*
X383840Y196956D01*
X384412Y195965D01*
X385221Y195156D01*
X386212Y194584D01*
X387317Y194287D01*
X387390D01*
Y198134D01*
D02*
G37*
G36*
X358462Y202980D02*
X357317D01*
X356212Y202684D01*
X355221Y202112D01*
X354412Y201303D01*
X353839Y200311D01*
X353543Y199206D01*
Y198062D01*
X353839Y196956D01*
X354412Y195965D01*
X355221Y195156D01*
X356212Y194584D01*
X357317Y194287D01*
X358462D01*
X359567Y194584D01*
X360559Y195156D01*
X361368Y195965D01*
X361940Y196956D01*
X362236Y198062D01*
Y199206D01*
X361940Y200311D01*
X361368Y201303D01*
X360559Y202112D01*
X359567Y202684D01*
X358462Y202980D01*
D02*
G37*
G36*
Y192980D02*
X357317D01*
X356212Y192684D01*
X355221Y192112D01*
X354412Y191303D01*
X354104Y190769D01*
X353548Y190806D01*
X353365Y191246D01*
X352746Y191865D01*
X351938Y192200D01*
X351062D01*
X350254Y191865D01*
X349635Y191246D01*
X349300Y190438D01*
Y189562D01*
X349635Y188754D01*
X350254Y188135D01*
X351062Y187800D01*
X351938D01*
X352746Y188135D01*
X353043Y188432D01*
X353543Y188225D01*
Y188062D01*
X353839Y186956D01*
X354412Y185965D01*
X355221Y185156D01*
X356212Y184584D01*
X357317Y184287D01*
X358462D01*
X359567Y184584D01*
X360559Y185156D01*
X361368Y185965D01*
X361940Y186956D01*
X362236Y188062D01*
Y189206D01*
X361940Y190312D01*
X361368Y191303D01*
X360559Y192112D01*
X359567Y192684D01*
X358462Y192980D01*
D02*
G37*
G36*
X677438Y193700D02*
X676562D01*
X675754Y193365D01*
X675135Y192746D01*
X674800Y191938D01*
Y191062D01*
X675135Y190254D01*
X675754Y189635D01*
X676562Y189300D01*
X677438D01*
X678246Y189635D01*
X678865Y190254D01*
X679200Y191062D01*
Y191938D01*
X678865Y192746D01*
X678246Y193365D01*
X677438Y193700D01*
D02*
G37*
G36*
X388462Y192980D02*
X388390D01*
Y189134D01*
X392236D01*
Y189206D01*
X391940Y190312D01*
X391368Y191303D01*
X390559Y192112D01*
X389567Y192684D01*
X388462Y192980D01*
D02*
G37*
G36*
X387390D02*
X387317D01*
X386212Y192684D01*
X385221Y192112D01*
X384412Y191303D01*
X383840Y190312D01*
X383543Y189206D01*
Y189134D01*
X387390D01*
Y192980D01*
D02*
G37*
G36*
X659938Y190200D02*
X659062D01*
X658254Y189865D01*
X657635Y189246D01*
X657300Y188438D01*
Y187562D01*
X657635Y186754D01*
X658254Y186135D01*
X659062Y185800D01*
X659938D01*
X660746Y186135D01*
X661365Y186754D01*
X661700Y187562D01*
Y188438D01*
X661365Y189246D01*
X660746Y189865D01*
X659938Y190200D01*
D02*
G37*
G36*
X392236Y188134D02*
X388390D01*
Y184287D01*
X388462D01*
X389567Y184584D01*
X390559Y185156D01*
X391368Y185965D01*
X391940Y186956D01*
X392236Y188062D01*
Y188134D01*
D02*
G37*
G36*
X387390D02*
X383543D01*
Y188062D01*
X383840Y186956D01*
X384412Y185965D01*
X385221Y185156D01*
X386212Y184584D01*
X387317Y184287D01*
X387390D01*
Y188134D01*
D02*
G37*
G36*
X33004Y195350D02*
X31799D01*
X30617Y195115D01*
X29504Y194654D01*
X28501Y193984D01*
X27649Y193132D01*
X26980Y192130D01*
X26519Y191017D01*
X26283Y189835D01*
Y188630D01*
X26519Y187448D01*
X26980Y186334D01*
X27649Y185332D01*
X28501Y184480D01*
X29504Y183810D01*
X30617Y183349D01*
X31799Y183114D01*
X33004D01*
X34186Y183349D01*
X35300Y183810D01*
X36302Y184480D01*
X37154Y185332D01*
X37823Y186334D01*
X38285Y187448D01*
X38520Y188630D01*
Y189835D01*
X38285Y191017D01*
X37823Y192130D01*
X37154Y193132D01*
X36302Y193984D01*
X35300Y194654D01*
X34186Y195115D01*
X33004Y195350D01*
D02*
G37*
G36*
X392236Y182980D02*
X388390D01*
Y179134D01*
X392236D01*
Y182980D01*
D02*
G37*
G36*
X387390D02*
X383543D01*
Y179134D01*
X387390D01*
Y182980D01*
D02*
G37*
G36*
X358462D02*
X357317D01*
X356212Y182684D01*
X355221Y182112D01*
X354412Y181303D01*
X353839Y180312D01*
X353558Y179261D01*
X353378Y179160D01*
X353043Y179068D01*
X352746Y179365D01*
X351938Y179700D01*
X351062D01*
X350254Y179365D01*
X349635Y178746D01*
X349300Y177938D01*
Y177062D01*
X349635Y176254D01*
X350254Y175635D01*
X351062Y175300D01*
X351938D01*
X352746Y175635D01*
X353365Y176254D01*
X353491Y176559D01*
X354048Y176595D01*
X354412Y175965D01*
X355221Y175156D01*
X356212Y174584D01*
X357317Y174287D01*
X358462D01*
X359567Y174584D01*
X360559Y175156D01*
X361368Y175965D01*
X361940Y176956D01*
X362236Y178062D01*
Y179206D01*
X361940Y180312D01*
X361368Y181303D01*
X360559Y182112D01*
X359567Y182684D01*
X358462Y182980D01*
D02*
G37*
G36*
X115475Y185030D02*
X114528D01*
X113612Y184785D01*
X112791Y184311D01*
X112121Y183641D01*
X111647Y182820D01*
X111402Y181904D01*
Y180956D01*
X111647Y180041D01*
X112121Y179220D01*
X112791Y178550D01*
X113612Y178076D01*
X114528Y177830D01*
X115475D01*
X116391Y178076D01*
X117212Y178550D01*
X117882Y179220D01*
X118356Y180041D01*
X118602Y180956D01*
Y181904D01*
X118356Y182820D01*
X117882Y183641D01*
X117212Y184311D01*
X116391Y184785D01*
X115475Y185030D01*
D02*
G37*
G36*
X45660Y189976D02*
X44183D01*
X42735Y189688D01*
X41370Y189123D01*
X40143Y188303D01*
X39099Y187259D01*
X38278Y186031D01*
X37713Y184667D01*
X37425Y183219D01*
Y181742D01*
X37713Y180294D01*
X38278Y178930D01*
X39099Y177702D01*
X40143Y176658D01*
X41370Y175837D01*
X42735Y175272D01*
X44183Y174984D01*
X45660D01*
X47108Y175272D01*
X48472Y175837D01*
X49700Y176658D01*
X50744Y177702D01*
X51564Y178930D01*
X52129Y180294D01*
X52417Y181742D01*
Y183219D01*
X52129Y184667D01*
X51564Y186031D01*
X50744Y187259D01*
X49700Y188303D01*
X48472Y189123D01*
X47108Y189688D01*
X45660Y189976D01*
D02*
G37*
G36*
X392236Y178134D02*
X388390D01*
Y174287D01*
X392236D01*
Y178134D01*
D02*
G37*
G36*
X387390D02*
X383543D01*
Y174287D01*
X387390D01*
Y178134D01*
D02*
G37*
G36*
X105475Y181030D02*
X104528D01*
X103612Y180785D01*
X102791Y180311D01*
X102121Y179641D01*
X101647Y178820D01*
X101402Y177904D01*
Y176956D01*
X101647Y176041D01*
X102121Y175220D01*
X102791Y174550D01*
X103612Y174076D01*
X104528Y173830D01*
X105475D01*
X106391Y174076D01*
X107212Y174550D01*
X107882Y175220D01*
X108356Y176041D01*
X108602Y176956D01*
Y177904D01*
X108356Y178820D01*
X107882Y179641D01*
X107212Y180311D01*
X106391Y180785D01*
X105475Y181030D01*
D02*
G37*
G36*
X313438Y178200D02*
X312562D01*
X311754Y177865D01*
X311135Y177246D01*
X310800Y176438D01*
Y175562D01*
X311135Y174754D01*
X311754Y174135D01*
X312562Y173800D01*
X313438D01*
X314246Y174135D01*
X314865Y174754D01*
X315200Y175562D01*
Y176438D01*
X314865Y177246D01*
X314246Y177865D01*
X313438Y178200D01*
D02*
G37*
G36*
X115475Y177030D02*
X114528D01*
X113612Y176785D01*
X112791Y176311D01*
X112121Y175641D01*
X111647Y174820D01*
X111402Y173904D01*
Y172956D01*
X111647Y172041D01*
X112121Y171220D01*
X112791Y170550D01*
X113612Y170076D01*
X114528Y169830D01*
X115475D01*
X116391Y170076D01*
X117212Y170550D01*
X117882Y171220D01*
X118356Y172041D01*
X118602Y172956D01*
Y173904D01*
X118356Y174820D01*
X117882Y175641D01*
X117212Y176311D01*
X116391Y176785D01*
X115475Y177030D01*
D02*
G37*
G36*
X454438Y174200D02*
X453562D01*
X452754Y173865D01*
X452135Y173246D01*
X451800Y172438D01*
Y171562D01*
X452135Y170754D01*
X452754Y170135D01*
X453562Y169800D01*
X454438D01*
X455246Y170135D01*
X455865Y170754D01*
X456200Y171562D01*
Y172438D01*
X455865Y173246D01*
X455246Y173865D01*
X454438Y174200D01*
D02*
G37*
G36*
X649938Y172700D02*
X649062D01*
X648254Y172365D01*
X647918Y172029D01*
X593689D01*
X593104Y171913D01*
X592608Y171581D01*
X583328Y162302D01*
X582853D01*
X582045Y161967D01*
X581426Y161348D01*
X581091Y160539D01*
Y159664D01*
X581426Y158856D01*
X582045Y158237D01*
X582853Y157902D01*
X583729D01*
X584537Y158237D01*
X585156Y158856D01*
X585491Y159664D01*
Y160139D01*
X594323Y168971D01*
X647918D01*
X648254Y168635D01*
X649062Y168300D01*
X649938D01*
X650746Y168635D01*
X651365Y169254D01*
X651700Y170062D01*
Y170938D01*
X651365Y171746D01*
X650746Y172365D01*
X649938Y172700D01*
D02*
G37*
G36*
X473938Y171200D02*
X473062D01*
X472254Y170865D01*
X471635Y170246D01*
X471300Y169438D01*
Y168562D01*
X471635Y167754D01*
X472254Y167135D01*
X473062Y166800D01*
X473938D01*
X474746Y167135D01*
X475365Y167754D01*
X475700Y168562D01*
Y169438D01*
X475365Y170246D01*
X474746Y170865D01*
X473938Y171200D01*
D02*
G37*
G36*
X105475Y173030D02*
X104528D01*
X103612Y172785D01*
X102791Y172311D01*
X102121Y171641D01*
X101647Y170820D01*
X101402Y169904D01*
Y168956D01*
X101647Y168041D01*
X102121Y167220D01*
X102791Y166550D01*
X103612Y166076D01*
X104528Y165830D01*
X105475D01*
X106391Y166076D01*
X107212Y166550D01*
X107882Y167220D01*
X108356Y168041D01*
X108602Y168956D01*
Y169904D01*
X108356Y170820D01*
X107882Y171641D01*
X107212Y172311D01*
X106391Y172785D01*
X105475Y173030D01*
D02*
G37*
G36*
X115475Y169030D02*
X114528D01*
X113612Y168785D01*
X112791Y168311D01*
X112121Y167641D01*
X111647Y166820D01*
X111402Y165904D01*
Y164956D01*
X111647Y164041D01*
X112121Y163220D01*
X112791Y162550D01*
X113612Y162076D01*
X114528Y161830D01*
X115475D01*
X116391Y162076D01*
X117212Y162550D01*
X117882Y163220D01*
X118356Y164041D01*
X118602Y164956D01*
Y165904D01*
X118356Y166820D01*
X117882Y167641D01*
X117212Y168311D01*
X116391Y168785D01*
X115475Y169030D01*
D02*
G37*
G36*
X533217Y168470D02*
X532137D01*
X531095Y168191D01*
X530160Y167651D01*
X529396Y166887D01*
X528857Y165953D01*
X528577Y164910D01*
Y163830D01*
X528857Y162787D01*
X529396Y161853D01*
X530160Y161089D01*
X531095Y160549D01*
X532137Y160270D01*
X533217D01*
X534260Y160549D01*
X535195Y161089D01*
X535958Y161853D01*
X536498Y162787D01*
X536777Y163830D01*
Y164910D01*
X536498Y165953D01*
X535958Y166887D01*
X535195Y167651D01*
X534260Y168191D01*
X533217Y168470D01*
D02*
G37*
G36*
X510438Y163700D02*
X509562D01*
X508754Y163365D01*
X508135Y162746D01*
X507800Y161938D01*
Y161062D01*
X508135Y160254D01*
X508754Y159635D01*
X509562Y159300D01*
X510438D01*
X511246Y159635D01*
X511865Y160254D01*
X512200Y161062D01*
Y161938D01*
X511865Y162746D01*
X511246Y163365D01*
X510438Y163700D01*
D02*
G37*
G36*
X185438D02*
X184562D01*
X183754Y163365D01*
X183135Y162746D01*
X182800Y161938D01*
Y161062D01*
X183135Y160254D01*
X183754Y159635D01*
X184562Y159300D01*
X185438D01*
X186246Y159635D01*
X186865Y160254D01*
X187200Y161062D01*
Y161938D01*
X186865Y162746D01*
X186246Y163365D01*
X185438Y163700D01*
D02*
G37*
G36*
X105475Y165030D02*
X104528D01*
X103612Y164785D01*
X102791Y164311D01*
X102121Y163641D01*
X101647Y162820D01*
X101402Y161904D01*
Y160956D01*
X101647Y160041D01*
X102121Y159220D01*
X102791Y158550D01*
X103612Y158076D01*
X104528Y157830D01*
X105475D01*
X106391Y158076D01*
X107212Y158550D01*
X107882Y159220D01*
X108356Y160041D01*
X108602Y160956D01*
Y161904D01*
X108356Y162820D01*
X107882Y163641D01*
X107212Y164311D01*
X106391Y164785D01*
X105475Y165030D01*
D02*
G37*
G36*
X438938Y162200D02*
X438062D01*
X437254Y161865D01*
X436635Y161246D01*
X436300Y160438D01*
Y159562D01*
X436635Y158754D01*
X437254Y158135D01*
X438062Y157800D01*
X438938D01*
X439746Y158135D01*
X440082Y158471D01*
X458806D01*
X460858Y156419D01*
X461354Y156087D01*
X461939Y155971D01*
X482418D01*
X482754Y155635D01*
X483562Y155300D01*
X484438D01*
X485246Y155635D01*
X485865Y156254D01*
X486200Y157062D01*
Y157938D01*
X485865Y158746D01*
X485246Y159365D01*
X484438Y159700D01*
X483562D01*
X482754Y159365D01*
X482418Y159029D01*
X462573D01*
X460521Y161081D01*
X460025Y161413D01*
X459439Y161529D01*
X440082D01*
X439746Y161865D01*
X438938Y162200D01*
D02*
G37*
G36*
X115502Y153023D02*
Y149930D01*
X118595D01*
X118356Y150820D01*
X117882Y151641D01*
X117212Y152311D01*
X116391Y152785D01*
X115502Y153023D01*
D02*
G37*
G36*
X114502D02*
X113612Y152785D01*
X112791Y152311D01*
X112121Y151641D01*
X111647Y150820D01*
X111408Y149930D01*
X114502D01*
Y153023D01*
D02*
G37*
G36*
X105475Y157030D02*
X104528D01*
X103612Y156785D01*
X102791Y156311D01*
X102121Y155641D01*
X101647Y154820D01*
X101402Y153904D01*
Y152956D01*
X101647Y152041D01*
X102121Y151220D01*
X102791Y150550D01*
X103612Y150076D01*
X104528Y149830D01*
X105475D01*
X106391Y150076D01*
X107212Y150550D01*
X107882Y151220D01*
X108356Y152041D01*
X108602Y152956D01*
Y153904D01*
X108356Y154820D01*
X107882Y155641D01*
X107212Y156311D01*
X106391Y156785D01*
X105475Y157030D01*
D02*
G37*
G36*
X286938Y154200D02*
X286062D01*
X285254Y153865D01*
X284635Y153246D01*
X284300Y152438D01*
Y151562D01*
X284635Y150754D01*
X285254Y150135D01*
X286062Y149800D01*
X286938D01*
X287746Y150135D01*
X288365Y150754D01*
X288700Y151562D01*
Y152438D01*
X288365Y153246D01*
X287746Y153865D01*
X286938Y154200D01*
D02*
G37*
G36*
X204985Y151200D02*
X204110D01*
X203301Y150865D01*
X202682Y150246D01*
X202348Y149438D01*
Y148562D01*
X202682Y147754D01*
X203301Y147135D01*
X204110Y146800D01*
X204985D01*
X205794Y147135D01*
X206413Y147754D01*
X206748Y148562D01*
Y149438D01*
X206413Y150246D01*
X205794Y150865D01*
X204985Y151200D01*
D02*
G37*
G36*
X118595Y148930D02*
X115502D01*
Y145837D01*
X116391Y146076D01*
X117212Y146550D01*
X117882Y147220D01*
X118356Y148041D01*
X118595Y148930D01*
D02*
G37*
G36*
X114502D02*
X111408D01*
X111647Y148041D01*
X112121Y147220D01*
X112791Y146550D01*
X113612Y146076D01*
X114502Y145837D01*
Y148930D01*
D02*
G37*
G36*
X105475Y149030D02*
X104528D01*
X103612Y148785D01*
X102791Y148311D01*
X102121Y147641D01*
X101647Y146820D01*
X101402Y145904D01*
Y144956D01*
X101647Y144041D01*
X102121Y143220D01*
X102791Y142550D01*
X103612Y142076D01*
X104528Y141830D01*
X105475D01*
X106391Y142076D01*
X107212Y142550D01*
X107882Y143220D01*
X108356Y144041D01*
X108602Y144956D01*
Y145904D01*
X108356Y146820D01*
X107882Y147641D01*
X107212Y148311D01*
X106391Y148785D01*
X105475Y149030D01*
D02*
G37*
G36*
X115475Y145030D02*
X114528D01*
X113612Y144785D01*
X112791Y144311D01*
X112121Y143641D01*
X111647Y142820D01*
X111402Y141904D01*
Y140956D01*
X111647Y140041D01*
X112121Y139220D01*
X112791Y138550D01*
X113612Y138076D01*
X114528Y137830D01*
X115475D01*
X116391Y138076D01*
X117212Y138550D01*
X117882Y139220D01*
X118356Y140041D01*
X118602Y140956D01*
Y141904D01*
X118356Y142820D01*
X117882Y143641D01*
X117212Y144311D01*
X116391Y144785D01*
X115475Y145030D01*
D02*
G37*
G36*
X356438Y142200D02*
X355562D01*
X354754Y141865D01*
X354135Y141246D01*
X353800Y140438D01*
Y139562D01*
X354135Y138754D01*
X354754Y138135D01*
X355562Y137800D01*
X356438D01*
X357246Y138135D01*
X357865Y138754D01*
X358200Y139562D01*
Y140438D01*
X357865Y141246D01*
X357246Y141865D01*
X356438Y142200D01*
D02*
G37*
G36*
X677708Y145061D02*
X676628D01*
X675586Y144781D01*
X674651Y144241D01*
X673887Y143478D01*
X673348Y142543D01*
X673068Y141500D01*
Y140421D01*
X673348Y139378D01*
X673887Y138443D01*
X674651Y137680D01*
X675586Y137140D01*
X676628Y136861D01*
X677708D01*
X678751Y137140D01*
X679686Y137680D01*
X680449Y138443D01*
X680989Y139378D01*
X681268Y140421D01*
Y141500D01*
X680989Y142543D01*
X680449Y143478D01*
X679686Y144241D01*
X678751Y144781D01*
X677708Y145061D01*
D02*
G37*
G36*
X531938Y140700D02*
X531062D01*
X530254Y140365D01*
X529635Y139746D01*
X529300Y138938D01*
Y138062D01*
X529635Y137254D01*
X530254Y136635D01*
X531062Y136300D01*
X531938D01*
X532746Y136635D01*
X533365Y137254D01*
X533700Y138062D01*
Y138938D01*
X533365Y139746D01*
X532746Y140365D01*
X531938Y140700D01*
D02*
G37*
G36*
X570932Y144061D02*
X569853D01*
X568810Y143781D01*
X567875Y143242D01*
X567112Y142478D01*
X566572Y141543D01*
X566293Y140500D01*
Y139421D01*
X566572Y138378D01*
X567112Y137443D01*
X567875Y136680D01*
X568810Y136140D01*
X569853Y135861D01*
X570932D01*
X571975Y136140D01*
X572910Y136680D01*
X573673Y137443D01*
X574213Y138378D01*
X574493Y139421D01*
Y140500D01*
X574213Y141543D01*
X573673Y142478D01*
X572910Y143242D01*
X571975Y143781D01*
X570932Y144061D01*
D02*
G37*
G36*
X108602Y141030D02*
X101402D01*
Y133830D01*
X108602D01*
Y141030D01*
D02*
G37*
G36*
X115475Y137030D02*
X114528D01*
X113612Y136785D01*
X112791Y136311D01*
X112121Y135641D01*
X111647Y134820D01*
X111402Y133904D01*
Y132956D01*
X111647Y132041D01*
X112121Y131220D01*
X112791Y130550D01*
X113612Y130076D01*
X114528Y129830D01*
X115475D01*
X116391Y130076D01*
X117212Y130550D01*
X117882Y131220D01*
X118356Y132041D01*
X118602Y132956D01*
Y133904D01*
X118356Y134820D01*
X117882Y135641D01*
X117212Y136311D01*
X116391Y136785D01*
X115475Y137030D01*
D02*
G37*
G36*
X392438Y134200D02*
X391562D01*
X390754Y133865D01*
X390135Y133246D01*
X389800Y132438D01*
Y131562D01*
X390135Y130754D01*
X390754Y130135D01*
X391562Y129800D01*
X392438D01*
X393246Y130135D01*
X393865Y130754D01*
X394200Y131562D01*
Y132438D01*
X393865Y133246D01*
X393246Y133865D01*
X392438Y134200D01*
D02*
G37*
G36*
X641938Y132200D02*
X641062D01*
X640254Y131865D01*
X639635Y131246D01*
X639300Y130438D01*
Y129562D01*
X639635Y128754D01*
X640254Y128135D01*
X641062Y127800D01*
X641938D01*
X642746Y128135D01*
X643365Y128754D01*
X643700Y129562D01*
Y130438D01*
X643365Y131246D01*
X642746Y131865D01*
X641938Y132200D01*
D02*
G37*
G36*
X45660Y139976D02*
X44183D01*
X42735Y139688D01*
X41370Y139123D01*
X40143Y138303D01*
X39099Y137259D01*
X38278Y136031D01*
X37713Y134667D01*
X37425Y133219D01*
Y131742D01*
X37713Y130294D01*
X38278Y128930D01*
X39099Y127702D01*
X40143Y126658D01*
X41370Y125837D01*
X42735Y125272D01*
X44183Y124984D01*
X45660D01*
X47108Y125272D01*
X48472Y125837D01*
X49700Y126658D01*
X50744Y127702D01*
X51564Y128930D01*
X52129Y130294D01*
X52417Y131742D01*
Y133219D01*
X52129Y134667D01*
X51564Y136031D01*
X50744Y137259D01*
X49700Y138303D01*
X48472Y139123D01*
X47108Y139688D01*
X45660Y139976D01*
D02*
G37*
G36*
X599438Y132700D02*
X598562D01*
X597754Y132365D01*
X597418Y132029D01*
X588500D01*
X587915Y131913D01*
X587419Y131581D01*
X583919Y128081D01*
X583587Y127585D01*
X583471Y127000D01*
Y97057D01*
X567943Y81529D01*
X368082D01*
X367746Y81865D01*
X366938Y82200D01*
X366062D01*
X365254Y81865D01*
X364635Y81246D01*
X364300Y80438D01*
Y79562D01*
X364613Y78806D01*
X364429Y78306D01*
X322676D01*
X309928Y91053D01*
X310026Y91544D01*
X310246Y91635D01*
X310582Y91971D01*
X330318D01*
X330904Y92087D01*
X331400Y92419D01*
X364889Y125908D01*
X379980D01*
Y123091D01*
X388673D01*
Y131783D01*
X379980D01*
Y128966D01*
X364255D01*
X363670Y128850D01*
X363174Y128518D01*
X329685Y95029D01*
X310582D01*
X310246Y95365D01*
X309438Y95700D01*
X308562D01*
X308029Y95479D01*
X307529Y95794D01*
Y101918D01*
X307865Y102254D01*
X308200Y103062D01*
Y103938D01*
X307865Y104746D01*
X307246Y105365D01*
X306438Y105700D01*
X305562D01*
X304754Y105365D01*
X304135Y104746D01*
X303800Y103938D01*
Y103062D01*
X304135Y102254D01*
X304471Y101918D01*
Y94906D01*
X304009Y94714D01*
X303029Y95694D01*
Y112866D01*
X308963Y118800D01*
X309438D01*
X310246Y119135D01*
X310865Y119754D01*
X311200Y120562D01*
Y121438D01*
X310865Y122246D01*
X310246Y122865D01*
X309438Y123200D01*
X308562D01*
X307754Y122865D01*
X307135Y122246D01*
X306800Y121438D01*
Y120963D01*
X300419Y114581D01*
X300087Y114085D01*
X299971Y113500D01*
Y95060D01*
X300087Y94475D01*
X300419Y93979D01*
X305998Y88400D01*
X306411Y88124D01*
X320339Y74195D01*
X320836Y73864D01*
X321421Y73747D01*
X515590D01*
X520124Y69213D01*
Y43308D01*
X520032Y43284D01*
X519075Y42731D01*
X518293Y41949D01*
X517740Y40991D01*
X517453Y39923D01*
Y38817D01*
X517740Y37749D01*
X518293Y36791D01*
X519075Y36009D01*
X520032Y35456D01*
X521101Y35170D01*
X522206D01*
X523275Y35456D01*
X524232Y36009D01*
X525014Y36791D01*
X525567Y37749D01*
X525853Y38817D01*
Y39923D01*
X525567Y40991D01*
X525014Y41949D01*
X524232Y42731D01*
X523275Y43284D01*
X523183Y43308D01*
Y69846D01*
X523067Y70432D01*
X522735Y70928D01*
X518878Y74785D01*
X519069Y75247D01*
X566090D01*
X571305Y70032D01*
Y43308D01*
X571213Y43284D01*
X570256Y42731D01*
X569474Y41949D01*
X568921Y40991D01*
X568635Y39923D01*
Y38817D01*
X568921Y37749D01*
X569474Y36791D01*
X570256Y36009D01*
X571213Y35456D01*
X572282Y35170D01*
X573388D01*
X574456Y35456D01*
X575414Y36009D01*
X576195Y36791D01*
X576748Y37749D01*
X577035Y38817D01*
Y39923D01*
X576748Y40991D01*
X576195Y41949D01*
X575414Y42731D01*
X574456Y43284D01*
X574364Y43308D01*
Y70665D01*
X574248Y71251D01*
X573916Y71747D01*
X567805Y77858D01*
X567636Y77971D01*
X567788Y78471D01*
X568576D01*
X569162Y78587D01*
X569658Y78919D01*
X586081Y95342D01*
X586413Y95838D01*
X586529Y96424D01*
Y126366D01*
X589134Y128971D01*
X597418D01*
X597754Y128635D01*
X598562Y128300D01*
X599438D01*
X600246Y128635D01*
X600865Y129254D01*
X601200Y130062D01*
Y130938D01*
X600865Y131746D01*
X600246Y132365D01*
X599438Y132700D01*
D02*
G37*
G36*
X753696Y136039D02*
X752297D01*
X750924Y135766D01*
X749632Y135231D01*
X748469Y134454D01*
X747479Y133465D01*
X746702Y132301D01*
X746167Y131009D01*
X745894Y129637D01*
Y128237D01*
X746167Y126865D01*
X746702Y125573D01*
X747479Y124409D01*
X748469Y123420D01*
X749632Y122643D01*
X750924Y122108D01*
X752297Y121835D01*
X753696D01*
X755068Y122108D01*
X756360Y122643D01*
X757524Y123420D01*
X758513Y124409D01*
X759290Y125573D01*
X759826Y126865D01*
X760098Y128237D01*
Y129637D01*
X759826Y131009D01*
X759290Y132301D01*
X758513Y133465D01*
X757524Y134454D01*
X756360Y135231D01*
X755068Y135766D01*
X753696Y136039D01*
D02*
G37*
G36*
X717706Y230764D02*
X716509D01*
X715354Y230454D01*
X714318Y229856D01*
X713472Y229010D01*
X712874Y227974D01*
X712564Y226819D01*
Y225622D01*
X712874Y224467D01*
X713472Y223431D01*
X714318Y222585D01*
X715068Y222152D01*
Y124452D01*
X712155Y121539D01*
X653326D01*
X652938Y121700D01*
X652062D01*
X651254Y121365D01*
X650635Y120746D01*
X650300Y119938D01*
Y119062D01*
X650635Y118254D01*
X651254Y117635D01*
X652062Y117300D01*
X652938D01*
X653326Y117461D01*
X713000D01*
X713780Y117616D01*
X714442Y118058D01*
X718549Y122166D01*
X718992Y122827D01*
X719147Y123608D01*
Y222152D01*
X719897Y222585D01*
X720743Y223431D01*
X721341Y224467D01*
X721651Y225622D01*
Y226819D01*
X721341Y227974D01*
X720743Y229010D01*
X719897Y229856D01*
X718861Y230454D01*
X717706Y230764D01*
D02*
G37*
G36*
X33004Y131798D02*
X31799D01*
X30617Y131563D01*
X29504Y131102D01*
X28501Y130432D01*
X27649Y129580D01*
X26980Y128578D01*
X26519Y127465D01*
X26283Y126283D01*
Y125078D01*
X26519Y123896D01*
X26980Y122782D01*
X27649Y121780D01*
X28501Y120928D01*
X29504Y120258D01*
X30617Y119797D01*
X31799Y119562D01*
X33004D01*
X34186Y119797D01*
X35300Y120258D01*
X36302Y120928D01*
X37154Y121780D01*
X37823Y122782D01*
X38285Y123896D01*
X38520Y125078D01*
Y126283D01*
X38285Y127465D01*
X37823Y128578D01*
X37154Y129580D01*
X36302Y130432D01*
X35300Y131102D01*
X34186Y131563D01*
X33004Y131798D01*
D02*
G37*
G36*
X37438Y116700D02*
X36562D01*
X35754Y116365D01*
X35135Y115746D01*
X34800Y114938D01*
Y114062D01*
X35135Y113254D01*
X35754Y112635D01*
X36562Y112300D01*
X37438D01*
X38246Y112635D01*
X38865Y113254D01*
X39200Y114062D01*
Y114938D01*
X38865Y115746D01*
X38246Y116365D01*
X37438Y116700D01*
D02*
G37*
G36*
X335778Y111859D02*
X334903D01*
X334095Y111524D01*
X333476Y110905D01*
X333141Y110097D01*
Y109222D01*
X333476Y108413D01*
X334095Y107794D01*
X334903Y107459D01*
X335778D01*
X336587Y107794D01*
X337206Y108413D01*
X337541Y109222D01*
Y110097D01*
X337206Y110905D01*
X336587Y111524D01*
X335778Y111859D01*
D02*
G37*
G36*
X425438Y110700D02*
X424562D01*
X423754Y110365D01*
X423135Y109746D01*
X422800Y108938D01*
Y108062D01*
X423135Y107254D01*
X423754Y106635D01*
X424562Y106300D01*
X425438D01*
X426246Y106635D01*
X426865Y107254D01*
X427200Y108062D01*
Y108938D01*
X426865Y109746D01*
X426246Y110365D01*
X425438Y110700D01*
D02*
G37*
G36*
X384899Y111784D02*
X383755D01*
X382649Y111487D01*
X381658Y110915D01*
X380849Y110106D01*
X380276Y109115D01*
X379980Y108009D01*
Y106865D01*
X380276Y105759D01*
X380849Y104768D01*
X381658Y103959D01*
X382649Y103387D01*
X383755Y103091D01*
X384899D01*
X386004Y103387D01*
X386996Y103959D01*
X387805Y104768D01*
X388377Y105759D01*
X388673Y106865D01*
Y108009D01*
X388377Y109115D01*
X387805Y110106D01*
X386996Y110915D01*
X386004Y111487D01*
X384899Y111784D01*
D02*
G37*
G36*
X446938Y107200D02*
X446062D01*
X445254Y106865D01*
X444635Y106246D01*
X444300Y105438D01*
Y104562D01*
X444635Y103754D01*
X445254Y103135D01*
X446062Y102800D01*
X446938D01*
X447746Y103135D01*
X448365Y103754D01*
X448700Y104562D01*
Y105438D01*
X448365Y106246D01*
X447746Y106865D01*
X446938Y107200D01*
D02*
G37*
G36*
X430938Y105700D02*
X430062D01*
X429254Y105365D01*
X428635Y104746D01*
X428300Y103938D01*
Y103062D01*
X428635Y102254D01*
X429254Y101635D01*
X430062Y101300D01*
X430938D01*
X431746Y101635D01*
X432365Y102254D01*
X432700Y103062D01*
Y103938D01*
X432365Y104746D01*
X431746Y105365D01*
X430938Y105700D01*
D02*
G37*
G36*
X416938Y103200D02*
X416062D01*
X415254Y102865D01*
X414635Y102246D01*
X414300Y101438D01*
Y100562D01*
X414635Y99754D01*
X415254Y99135D01*
X416062Y98800D01*
X416938D01*
X417746Y99135D01*
X418365Y99754D01*
X418700Y100562D01*
Y101438D01*
X418365Y102246D01*
X417746Y102865D01*
X416938Y103200D01*
D02*
G37*
G36*
X616438Y101200D02*
X615562D01*
X614754Y100865D01*
X614135Y100246D01*
X613800Y99438D01*
Y98562D01*
X614135Y97754D01*
X614754Y97135D01*
X615562Y96800D01*
X616438D01*
X617246Y97135D01*
X617865Y97754D01*
X618200Y98562D01*
Y99438D01*
X617865Y100246D01*
X617246Y100865D01*
X616438Y101200D01*
D02*
G37*
G36*
X598938Y98700D02*
X598062D01*
X597254Y98365D01*
X596635Y97746D01*
X596300Y96938D01*
Y96062D01*
X596635Y95254D01*
X597254Y94635D01*
X598062Y94300D01*
X598938D01*
X599746Y94635D01*
X600365Y95254D01*
X600700Y96062D01*
Y96938D01*
X600365Y97746D01*
X599746Y98365D01*
X598938Y98700D01*
D02*
G37*
G36*
X20076Y97457D02*
X19294D01*
X18539Y97254D01*
X17862Y96864D01*
X17310Y96311D01*
X16919Y95634D01*
X16716Y94879D01*
Y94097D01*
X16919Y93342D01*
X17310Y92665D01*
X17862Y92113D01*
X18539Y91722D01*
X19294Y91520D01*
X20076D01*
X20831Y91722D01*
X21508Y92113D01*
X22060Y92665D01*
X22451Y93342D01*
X22654Y94097D01*
Y94879D01*
X22451Y95634D01*
X22060Y96311D01*
X21508Y96864D01*
X20831Y97254D01*
X20076Y97457D01*
D02*
G37*
G36*
X338938Y94700D02*
X338062D01*
X337254Y94365D01*
X336635Y93746D01*
X336300Y92938D01*
Y92062D01*
X336635Y91254D01*
X337254Y90635D01*
X338062Y90300D01*
X338938D01*
X339746Y90635D01*
X340365Y91254D01*
X340700Y92062D01*
Y92938D01*
X340365Y93746D01*
X339746Y94365D01*
X338938Y94700D01*
D02*
G37*
G36*
X542938Y93700D02*
X542062D01*
X541254Y93365D01*
X540635Y92746D01*
X540300Y91938D01*
Y91062D01*
X540635Y90254D01*
X541254Y89635D01*
X542062Y89300D01*
X542938D01*
X543746Y89635D01*
X544365Y90254D01*
X544700Y91062D01*
Y91938D01*
X544365Y92746D01*
X543746Y93365D01*
X542938Y93700D01*
D02*
G37*
G36*
X292662Y93088D02*
X291787D01*
X290979Y92753D01*
X290360Y92134D01*
X290025Y91325D01*
Y90450D01*
X290360Y89641D01*
X290979Y89023D01*
X291787Y88688D01*
X292662D01*
X293471Y89023D01*
X294090Y89641D01*
X294425Y90450D01*
Y91325D01*
X294090Y92134D01*
X293471Y92753D01*
X292662Y93088D01*
D02*
G37*
G36*
X677708Y95848D02*
X676628D01*
X675586Y95569D01*
X674651Y95029D01*
X673887Y94266D01*
X673348Y93331D01*
X673068Y92288D01*
Y91208D01*
X673348Y90166D01*
X673887Y89231D01*
X674651Y88467D01*
X675586Y87928D01*
X676628Y87648D01*
X677708D01*
X678751Y87928D01*
X679686Y88467D01*
X680449Y89231D01*
X680989Y90166D01*
X681268Y91208D01*
Y92288D01*
X680989Y93331D01*
X680449Y94266D01*
X679686Y95029D01*
X678751Y95569D01*
X677708Y95848D01*
D02*
G37*
G36*
X368760Y96669D02*
X367460D01*
X366205Y96333D01*
X365079Y95683D01*
X364160Y94764D01*
X363510Y93638D01*
X363173Y92382D01*
Y91082D01*
X363510Y89827D01*
X364160Y88701D01*
X365079Y87782D01*
X366205Y87132D01*
X367460Y86795D01*
X368760D01*
X370016Y87132D01*
X371142Y87782D01*
X372061Y88701D01*
X372711Y89827D01*
X373047Y91082D01*
Y92382D01*
X372711Y93638D01*
X372061Y94764D01*
X371142Y95683D01*
X370016Y96333D01*
X368760Y96669D01*
D02*
G37*
G36*
X148288D02*
X146988D01*
X145732Y96333D01*
X144606Y95683D01*
X143687Y94764D01*
X143037Y93638D01*
X142701Y92382D01*
Y91082D01*
X143037Y89827D01*
X143687Y88701D01*
X144606Y87782D01*
X145732Y87132D01*
X146988Y86795D01*
X148288D01*
X149543Y87132D01*
X150669Y87782D01*
X151588Y88701D01*
X152238Y89827D01*
X152575Y91082D01*
Y92382D01*
X152238Y93638D01*
X151588Y94764D01*
X150669Y95683D01*
X149543Y96333D01*
X148288Y96669D01*
D02*
G37*
G36*
X570932Y94848D02*
X569853D01*
X568810Y94569D01*
X567875Y94029D01*
X567112Y93265D01*
X566572Y92331D01*
X566293Y91288D01*
Y90208D01*
X566572Y89166D01*
X567112Y88231D01*
X567875Y87467D01*
X568810Y86927D01*
X569853Y86648D01*
X570932D01*
X571975Y86927D01*
X572910Y87467D01*
X573673Y88231D01*
X574213Y89166D01*
X574493Y90208D01*
Y91288D01*
X574213Y92331D01*
X573673Y93265D01*
X572910Y94029D01*
X571975Y94569D01*
X570932Y94848D01*
D02*
G37*
G36*
X656938Y86700D02*
X656062D01*
X655254Y86365D01*
X654635Y85746D01*
X654300Y84938D01*
Y84062D01*
X654635Y83254D01*
X655254Y82635D01*
X656062Y82300D01*
X656938D01*
X657746Y82635D01*
X658365Y83254D01*
X658700Y84062D01*
Y84938D01*
X658365Y85746D01*
X657746Y86365D01*
X656938Y86700D01*
D02*
G37*
G36*
X51938Y81200D02*
X51062D01*
X50254Y80865D01*
X49635Y80246D01*
X49300Y79438D01*
Y78562D01*
X49635Y77754D01*
X50254Y77135D01*
X51062Y76800D01*
X51938D01*
X52746Y77135D01*
X53365Y77754D01*
X53700Y78562D01*
Y79438D01*
X53365Y80246D01*
X52746Y80865D01*
X51938Y81200D01*
D02*
G37*
G36*
X294438Y77200D02*
X293562D01*
X292754Y76865D01*
X292135Y76246D01*
X291800Y75438D01*
Y74562D01*
X292135Y73754D01*
X292754Y73135D01*
X293562Y72800D01*
X294438D01*
X295246Y73135D01*
X295865Y73754D01*
X296200Y74562D01*
Y75438D01*
X295865Y76246D01*
X295246Y76865D01*
X294438Y77200D01*
D02*
G37*
G36*
X20076Y65961D02*
X19294D01*
X18539Y65758D01*
X17862Y65368D01*
X17310Y64815D01*
X16919Y64138D01*
X16716Y63383D01*
Y62601D01*
X16919Y61846D01*
X17310Y61169D01*
X17862Y60617D01*
X18539Y60226D01*
X19294Y60024D01*
X20076D01*
X20831Y60226D01*
X21508Y60617D01*
X22060Y61169D01*
X22451Y61846D01*
X22654Y62601D01*
Y63383D01*
X22451Y64138D01*
X22060Y64815D01*
X21508Y65368D01*
X20831Y65758D01*
X20076Y65961D01*
D02*
G37*
G36*
X274438Y62700D02*
X273562D01*
X272754Y62365D01*
X272135Y61746D01*
X271800Y60938D01*
Y60062D01*
X272135Y59254D01*
X272754Y58635D01*
X273562Y58300D01*
X274438D01*
X275246Y58635D01*
X275865Y59254D01*
X276200Y60062D01*
Y60938D01*
X275865Y61746D01*
X275246Y62365D01*
X274438Y62700D01*
D02*
G37*
G36*
X250938Y62200D02*
X250062D01*
X249254Y61865D01*
X248635Y61246D01*
X248300Y60438D01*
Y59562D01*
X248635Y58754D01*
X249254Y58135D01*
X250062Y57800D01*
X250938D01*
X251746Y58135D01*
X252365Y58754D01*
X252700Y59562D01*
Y60438D01*
X252365Y61246D01*
X251746Y61865D01*
X250938Y62200D01*
D02*
G37*
G36*
X80627Y94912D02*
X79751D01*
X78943Y94577D01*
X78324Y93958D01*
X77989Y93149D01*
Y92296D01*
X77919Y92225D01*
X77587Y91729D01*
X77471Y91144D01*
Y61582D01*
X77135Y61246D01*
X76800Y60438D01*
Y59562D01*
X77135Y58754D01*
X77754Y58135D01*
X78562Y57800D01*
X79438D01*
X80246Y58135D01*
X80865Y58754D01*
X81200Y59562D01*
Y60438D01*
X80865Y61246D01*
X80529Y61582D01*
Y90510D01*
X80531Y90512D01*
X80627D01*
X81435Y90847D01*
X82054Y91466D01*
X82389Y92274D01*
Y93149D01*
X82054Y93958D01*
X81435Y94577D01*
X80627Y94912D01*
D02*
G37*
G36*
X102938Y95200D02*
X102062D01*
X101254Y94865D01*
X100635Y94246D01*
X100300Y93438D01*
Y92562D01*
X100635Y91754D01*
X101254Y91135D01*
X102062Y90800D01*
X102537D01*
X103471Y89867D01*
Y61082D01*
X103135Y60746D01*
X102800Y59938D01*
Y59062D01*
X103135Y58254D01*
X103754Y57635D01*
X104562Y57300D01*
X105438D01*
X106246Y57635D01*
X106865Y58254D01*
X107200Y59062D01*
Y59938D01*
X106865Y60746D01*
X106529Y61082D01*
Y90500D01*
X106413Y91085D01*
X106081Y91581D01*
X104700Y92963D01*
Y93438D01*
X104365Y94246D01*
X103746Y94865D01*
X102938Y95200D01*
D02*
G37*
G36*
X97438D02*
X96562D01*
X95754Y94865D01*
X95135Y94246D01*
X94800Y93438D01*
Y92562D01*
X95135Y91754D01*
X95754Y91135D01*
X96562Y90800D01*
X96658D01*
X96971Y90488D01*
Y61082D01*
X96635Y60746D01*
X96300Y59938D01*
Y59062D01*
X96635Y58254D01*
X97254Y57635D01*
X98062Y57300D01*
X98938D01*
X99746Y57635D01*
X100365Y58254D01*
X100700Y59062D01*
Y59938D01*
X100365Y60746D01*
X100029Y61082D01*
Y91121D01*
X99913Y91706D01*
X99581Y92203D01*
X99200Y92584D01*
Y93438D01*
X98865Y94246D01*
X98246Y94865D01*
X97438Y95200D01*
D02*
G37*
G36*
X91438D02*
X90562D01*
X89754Y94865D01*
X89135Y94246D01*
X88800Y93438D01*
Y92562D01*
X89135Y91754D01*
X89754Y91135D01*
X90471Y90838D01*
Y61082D01*
X90135Y60746D01*
X89800Y59938D01*
Y59062D01*
X90135Y58254D01*
X90754Y57635D01*
X91562Y57300D01*
X92438D01*
X93246Y57635D01*
X93865Y58254D01*
X94200Y59062D01*
Y59938D01*
X93865Y60746D01*
X93529Y61082D01*
Y91621D01*
X93413Y92206D01*
X93190Y92539D01*
X93200Y92562D01*
Y93438D01*
X92865Y94246D01*
X92246Y94865D01*
X91438Y95200D01*
D02*
G37*
G36*
X86438Y94700D02*
X85562D01*
X84754Y94365D01*
X84135Y93746D01*
X83800Y92938D01*
Y92062D01*
X83974Y91641D01*
X83971Y91621D01*
Y61082D01*
X83635Y60746D01*
X83300Y59938D01*
Y59062D01*
X83635Y58254D01*
X84254Y57635D01*
X85062Y57300D01*
X85938D01*
X86746Y57635D01*
X87365Y58254D01*
X87700Y59062D01*
Y59938D01*
X87365Y60746D01*
X87029Y61082D01*
Y90545D01*
X87246Y90635D01*
X87865Y91254D01*
X88200Y92062D01*
Y92938D01*
X87865Y93746D01*
X87246Y94365D01*
X86438Y94700D01*
D02*
G37*
G36*
X701340Y43570D02*
X701287D01*
Y39870D01*
X704987D01*
Y39923D01*
X704701Y40991D01*
X704148Y41949D01*
X703366Y42731D01*
X702409Y43284D01*
X701340Y43570D01*
D02*
G37*
G36*
X700287D02*
X700235D01*
X699166Y43284D01*
X698209Y42731D01*
X697427Y41949D01*
X696874Y40991D01*
X696587Y39923D01*
Y39870D01*
X700287D01*
Y43570D01*
D02*
G37*
G36*
X650159D02*
X650106D01*
Y39870D01*
X653806D01*
Y39923D01*
X653520Y40991D01*
X652967Y41949D01*
X652185Y42731D01*
X651227Y43284D01*
X650159Y43570D01*
D02*
G37*
G36*
X649106D02*
X649053D01*
X647985Y43284D01*
X647027Y42731D01*
X646245Y41949D01*
X645692Y40991D01*
X645406Y39923D01*
Y39870D01*
X649106D01*
Y43570D01*
D02*
G37*
G36*
X593073D02*
X593020D01*
Y39870D01*
X596720D01*
Y39923D01*
X596433Y40991D01*
X595881Y41949D01*
X595098Y42731D01*
X594141Y43284D01*
X593073Y43570D01*
D02*
G37*
G36*
X592020D02*
X591967D01*
X590899Y43284D01*
X589941Y42731D01*
X589159Y41949D01*
X588606Y40991D01*
X588320Y39923D01*
Y39870D01*
X592020D01*
Y43570D01*
D02*
G37*
G36*
X541891D02*
X541839D01*
Y39870D01*
X545539D01*
Y39923D01*
X545252Y40991D01*
X544699Y41949D01*
X543917Y42731D01*
X542960Y43284D01*
X541891Y43570D01*
D02*
G37*
G36*
X540839D02*
X540786D01*
X539717Y43284D01*
X538760Y42731D01*
X537978Y41949D01*
X537425Y40991D01*
X537139Y39923D01*
Y39870D01*
X540839D01*
Y43570D01*
D02*
G37*
G36*
X433624D02*
X433571D01*
Y39870D01*
X437271D01*
Y39923D01*
X436985Y40991D01*
X436432Y41949D01*
X435650Y42731D01*
X434692Y43284D01*
X433624Y43570D01*
D02*
G37*
G36*
X432571D02*
X432518D01*
X431450Y43284D01*
X430492Y42731D01*
X429710Y41949D01*
X429157Y40991D01*
X428871Y39923D01*
Y39870D01*
X432571D01*
Y43570D01*
D02*
G37*
G36*
X413939D02*
X413886D01*
Y39870D01*
X417586D01*
Y39923D01*
X417300Y40991D01*
X416747Y41949D01*
X415965Y42731D01*
X415007Y43284D01*
X413939Y43570D01*
D02*
G37*
G36*
X412886D02*
X412833D01*
X411765Y43284D01*
X410807Y42731D01*
X410025Y41949D01*
X409472Y40991D01*
X409186Y39923D01*
Y39870D01*
X412886D01*
Y43570D01*
D02*
G37*
G36*
X704987Y38870D02*
X701287D01*
Y35170D01*
X701340D01*
X702409Y35456D01*
X703366Y36009D01*
X704148Y36791D01*
X704701Y37749D01*
X704987Y38817D01*
Y38870D01*
D02*
G37*
G36*
X700287D02*
X696587D01*
Y38817D01*
X696874Y37749D01*
X697427Y36791D01*
X698209Y36009D01*
X699166Y35456D01*
X700235Y35170D01*
X700287D01*
Y38870D01*
D02*
G37*
G36*
X681655Y43570D02*
X680549D01*
X679481Y43284D01*
X678523Y42731D01*
X677741Y41949D01*
X677189Y40991D01*
X676902Y39923D01*
Y38817D01*
X677189Y37749D01*
X677741Y36791D01*
X678523Y36009D01*
X679481Y35456D01*
X680549Y35170D01*
X681655D01*
X682724Y35456D01*
X683681Y36009D01*
X684463Y36791D01*
X685016Y37749D01*
X685302Y38817D01*
Y39923D01*
X685016Y40991D01*
X684463Y41949D01*
X683681Y42731D01*
X682724Y43284D01*
X681655Y43570D01*
D02*
G37*
G36*
X653806Y38870D02*
X650106D01*
Y35170D01*
X650159D01*
X651227Y35456D01*
X652185Y36009D01*
X652967Y36791D01*
X653520Y37749D01*
X653806Y38817D01*
Y38870D01*
D02*
G37*
G36*
X649106D02*
X645406D01*
Y38817D01*
X645692Y37749D01*
X646245Y36791D01*
X647027Y36009D01*
X647985Y35456D01*
X649053Y35170D01*
X649106D01*
Y38870D01*
D02*
G37*
G36*
X630474Y43570D02*
X629368D01*
X628300Y43284D01*
X627342Y42731D01*
X626560Y41949D01*
X626008Y40991D01*
X625721Y39923D01*
Y38817D01*
X626008Y37749D01*
X626560Y36791D01*
X627342Y36009D01*
X628300Y35456D01*
X629368Y35170D01*
X630474D01*
X631542Y35456D01*
X632500Y36009D01*
X633282Y36791D01*
X633835Y37749D01*
X634121Y38817D01*
Y39923D01*
X633835Y40991D01*
X633282Y41949D01*
X632500Y42731D01*
X631542Y43284D01*
X630474Y43570D01*
D02*
G37*
G36*
X596720Y38870D02*
X593020D01*
Y35170D01*
X593073D01*
X594141Y35456D01*
X595098Y36009D01*
X595881Y36791D01*
X596433Y37749D01*
X596720Y38817D01*
Y38870D01*
D02*
G37*
G36*
X592020D02*
X588320D01*
Y38817D01*
X588606Y37749D01*
X589159Y36791D01*
X589941Y36009D01*
X590899Y35456D01*
X591967Y35170D01*
X592020D01*
Y38870D01*
D02*
G37*
G36*
X545539D02*
X541839D01*
Y35170D01*
X541891D01*
X542960Y35456D01*
X543917Y36009D01*
X544699Y36791D01*
X545252Y37749D01*
X545539Y38817D01*
Y38870D01*
D02*
G37*
G36*
X540839D02*
X537139D01*
Y38817D01*
X537425Y37749D01*
X537978Y36791D01*
X538760Y36009D01*
X539717Y35456D01*
X540786Y35170D01*
X540839D01*
Y38870D01*
D02*
G37*
G36*
X484805Y43570D02*
X483699D01*
X482631Y43284D01*
X481673Y42731D01*
X480891Y41949D01*
X480338Y40991D01*
X480052Y39923D01*
Y38817D01*
X480338Y37749D01*
X480891Y36791D01*
X481673Y36009D01*
X482631Y35456D01*
X483699Y35170D01*
X484805D01*
X485873Y35456D01*
X486831Y36009D01*
X487613Y36791D01*
X488166Y37749D01*
X488452Y38817D01*
Y39923D01*
X488166Y40991D01*
X487613Y41949D01*
X486831Y42731D01*
X485873Y43284D01*
X484805Y43570D01*
D02*
G37*
G36*
X465120D02*
X464014D01*
X462946Y43284D01*
X461988Y42731D01*
X461206Y41949D01*
X460653Y40991D01*
X460367Y39923D01*
Y38817D01*
X460653Y37749D01*
X461206Y36791D01*
X461988Y36009D01*
X462946Y35456D01*
X464014Y35170D01*
X465120D01*
X466188Y35456D01*
X467146Y36009D01*
X467928Y36791D01*
X468481Y37749D01*
X468767Y38817D01*
Y39923D01*
X468481Y40991D01*
X467928Y41949D01*
X467146Y42731D01*
X466188Y43284D01*
X465120Y43570D01*
D02*
G37*
G36*
X437271Y38870D02*
X433571D01*
Y35170D01*
X433624D01*
X434692Y35456D01*
X435650Y36009D01*
X436432Y36791D01*
X436985Y37749D01*
X437271Y38817D01*
Y38870D01*
D02*
G37*
G36*
X432571D02*
X428871D01*
Y38817D01*
X429157Y37749D01*
X429710Y36791D01*
X430492Y36009D01*
X431450Y35456D01*
X432518Y35170D01*
X432571D01*
Y38870D01*
D02*
G37*
G36*
X417586D02*
X413886D01*
Y35170D01*
X413939D01*
X415007Y35456D01*
X415965Y36009D01*
X416747Y36791D01*
X417300Y37749D01*
X417586Y38817D01*
Y38870D01*
D02*
G37*
G36*
X412886D02*
X409186D01*
Y38817D01*
X409472Y37749D01*
X410025Y36791D01*
X410807Y36009D01*
X411765Y35456D01*
X412833Y35170D01*
X412886D01*
Y38870D01*
D02*
G37*
G36*
X382443Y43570D02*
X381337D01*
X380269Y43284D01*
X379311Y42731D01*
X378529Y41949D01*
X377976Y40991D01*
X377690Y39923D01*
Y38817D01*
X377976Y37749D01*
X378529Y36791D01*
X379311Y36009D01*
X380269Y35456D01*
X381337Y35170D01*
X382443D01*
X383511Y35456D01*
X384469Y36009D01*
X385251Y36791D01*
X385804Y37749D01*
X386090Y38817D01*
Y39923D01*
X385804Y40991D01*
X385251Y41949D01*
X384469Y42731D01*
X383511Y43284D01*
X382443Y43570D01*
D02*
G37*
G36*
X362758D02*
X361652D01*
X360584Y43284D01*
X359626Y42731D01*
X358844Y41949D01*
X358291Y40991D01*
X358005Y39923D01*
Y38817D01*
X358291Y37749D01*
X358844Y36791D01*
X359626Y36009D01*
X360584Y35456D01*
X361652Y35170D01*
X362758D01*
X363826Y35456D01*
X364784Y36009D01*
X365566Y36791D01*
X366119Y37749D01*
X366405Y38817D01*
Y39923D01*
X366119Y40991D01*
X365566Y41949D01*
X364784Y42731D01*
X363826Y43284D01*
X362758Y43570D01*
D02*
G37*
G36*
X217438Y38700D02*
X216562D01*
X215754Y38365D01*
X215135Y37746D01*
X214800Y36938D01*
Y36062D01*
X215135Y35254D01*
X215754Y34635D01*
X216562Y34300D01*
X217438D01*
X218246Y34635D01*
X218865Y35254D01*
X219200Y36062D01*
Y36938D01*
X218865Y37746D01*
X218246Y38365D01*
X217438Y38700D01*
D02*
G37*
G36*
X312938Y30700D02*
X312062D01*
X311254Y30365D01*
X311250Y30361D01*
X311246Y30365D01*
X310438Y30700D01*
X309562D01*
X308754Y30365D01*
X308750Y30361D01*
X308746Y30365D01*
X307938Y30700D01*
X307062D01*
X306254Y30365D01*
X306250Y30361D01*
X306246Y30365D01*
X305438Y30700D01*
X304562D01*
X303754Y30365D01*
X303750Y30361D01*
X303746Y30365D01*
X302938Y30700D01*
X302062D01*
X301254Y30365D01*
X301250Y30361D01*
X301246Y30365D01*
X300438Y30700D01*
X299562D01*
X298754Y30365D01*
X298750Y30361D01*
X298746Y30365D01*
X297938Y30700D01*
X297062D01*
X296254Y30365D01*
X295635Y29746D01*
X295300Y28938D01*
Y28062D01*
X295635Y27254D01*
X295639Y27250D01*
X295635Y27246D01*
X295300Y26438D01*
Y25562D01*
X295635Y24754D01*
X296254Y24135D01*
X297062Y23800D01*
X297938D01*
X298746Y24135D01*
X298750Y24139D01*
X298754Y24135D01*
X299562Y23800D01*
X300438D01*
X301246Y24135D01*
X301250Y24139D01*
X301254Y24135D01*
X302062Y23800D01*
X302938D01*
X303746Y24135D01*
X303750Y24139D01*
X303754Y24135D01*
X304562Y23800D01*
X305438D01*
X306246Y24135D01*
X306250Y24139D01*
X306254Y24135D01*
X307062Y23800D01*
X307938D01*
X308746Y24135D01*
X308750Y24139D01*
X308754Y24135D01*
X309562Y23800D01*
X310438D01*
X311246Y24135D01*
X311250Y24139D01*
X311254Y24135D01*
X312062Y23800D01*
X312938D01*
X313746Y24135D01*
X314365Y24754D01*
X314700Y25562D01*
Y26438D01*
X314365Y27246D01*
X314361Y27250D01*
X314365Y27254D01*
X314700Y28062D01*
Y28938D01*
X314365Y29746D01*
X313746Y30365D01*
X312938Y30700D01*
D02*
G37*
G36*
X116938Y94700D02*
X116062D01*
X115254Y94365D01*
X114635Y93746D01*
X114300Y92938D01*
Y92444D01*
X113874Y92019D01*
X113487Y91440D01*
X113352Y90757D01*
Y21005D01*
X112890Y20813D01*
X112784Y20919D01*
X111838Y21465D01*
X110783Y21748D01*
X109690D01*
X108634Y21465D01*
X107688Y20919D01*
X106916Y20146D01*
X106369Y19200D01*
X106087Y18145D01*
Y17052D01*
X106369Y15997D01*
X106916Y15051D01*
X107688Y14278D01*
X108634Y13732D01*
X109690Y13449D01*
X110783D01*
X111838Y13732D01*
X112716Y14238D01*
X113216Y14082D01*
Y12835D01*
X113352Y12152D01*
X113738Y11573D01*
X116315Y8997D01*
X116087Y8145D01*
Y7052D01*
X116369Y5997D01*
X116916Y5051D01*
X117688Y4278D01*
X118634Y3732D01*
X119690Y3449D01*
X120782D01*
X121838Y3732D01*
X122784Y4278D01*
X123557Y5051D01*
X124103Y5997D01*
X124386Y7052D01*
Y8145D01*
X124103Y9200D01*
X123557Y10146D01*
X122784Y10919D01*
X121838Y11465D01*
X120782Y11748D01*
X119690D01*
X118838Y11520D01*
X116784Y13574D01*
Y14475D01*
X117284Y14682D01*
X117688Y14278D01*
X118634Y13732D01*
X119690Y13449D01*
X120782D01*
X121838Y13732D01*
X122784Y14278D01*
X123557Y15051D01*
X124103Y15997D01*
X124386Y17052D01*
Y18145D01*
X124103Y19200D01*
X123557Y20146D01*
X122784Y20919D01*
X121838Y21465D01*
X120782Y21748D01*
X119690D01*
X118634Y21465D01*
X117688Y20919D01*
X117382Y20613D01*
X116920Y20804D01*
Y90018D01*
X117312Y90409D01*
X117354Y90472D01*
X117746Y90635D01*
X118365Y91254D01*
X118700Y92062D01*
Y92938D01*
X118365Y93746D01*
X117746Y94365D01*
X116938Y94700D01*
D02*
G37*
G36*
X21930Y35863D02*
X21171D01*
Y20363D01*
X36671D01*
Y21122D01*
X36277Y23610D01*
X35499Y26005D01*
X34356Y28249D01*
X32875Y30286D01*
X31095Y32067D01*
X29057Y33547D01*
X26813Y34691D01*
X24418Y35469D01*
X21930Y35863D01*
D02*
G37*
G36*
X20171D02*
X19412D01*
X16925Y35469D01*
X14529Y34691D01*
X12285Y33547D01*
X10248Y32067D01*
X8467Y30286D01*
X6987Y28249D01*
X5843Y26005D01*
X5065Y23610D01*
X4671Y21122D01*
Y20363D01*
X20171D01*
Y35863D01*
D02*
G37*
G36*
X768976Y35685D02*
X768217D01*
Y20185D01*
X783716D01*
Y20944D01*
X783323Y23432D01*
X782544Y25827D01*
X781401Y28071D01*
X779921Y30108D01*
X778140Y31889D01*
X776102Y33369D01*
X773858Y34513D01*
X771463Y35291D01*
X768976Y35685D01*
D02*
G37*
G36*
X767216D02*
X766457D01*
X763970Y35291D01*
X761575Y34513D01*
X759331Y33369D01*
X757293Y31889D01*
X755512Y30108D01*
X754032Y28071D01*
X752889Y25827D01*
X752110Y23432D01*
X751717Y20944D01*
Y20185D01*
X767216D01*
Y35685D01*
D02*
G37*
G36*
X701340Y23885D02*
X701287D01*
Y20185D01*
X704987D01*
Y20238D01*
X704701Y21306D01*
X704148Y22264D01*
X703366Y23046D01*
X702409Y23599D01*
X701340Y23885D01*
D02*
G37*
G36*
X700287D02*
X700235D01*
X699166Y23599D01*
X698209Y23046D01*
X697427Y22264D01*
X696874Y21306D01*
X696587Y20238D01*
Y20185D01*
X700287D01*
Y23885D01*
D02*
G37*
G36*
X650159D02*
X650106D01*
Y20185D01*
X653806D01*
Y20238D01*
X653520Y21306D01*
X652967Y22264D01*
X652185Y23046D01*
X651227Y23599D01*
X650159Y23885D01*
D02*
G37*
G36*
X649106D02*
X649053D01*
X647985Y23599D01*
X647027Y23046D01*
X646245Y22264D01*
X645692Y21306D01*
X645406Y20238D01*
Y20185D01*
X649106D01*
Y23885D01*
D02*
G37*
G36*
X593073D02*
X593020D01*
Y20185D01*
X596720D01*
Y20238D01*
X596433Y21306D01*
X595881Y22264D01*
X595098Y23046D01*
X594141Y23599D01*
X593073Y23885D01*
D02*
G37*
G36*
X592020D02*
X591967D01*
X590899Y23599D01*
X589941Y23046D01*
X589159Y22264D01*
X588606Y21306D01*
X588320Y20238D01*
Y20185D01*
X592020D01*
Y23885D01*
D02*
G37*
G36*
X541891D02*
X541839D01*
Y20185D01*
X545539D01*
Y20238D01*
X545252Y21306D01*
X544699Y22264D01*
X543917Y23046D01*
X542960Y23599D01*
X541891Y23885D01*
D02*
G37*
G36*
X540839D02*
X540786D01*
X539717Y23599D01*
X538760Y23046D01*
X537978Y22264D01*
X537425Y21306D01*
X537139Y20238D01*
Y20185D01*
X540839D01*
Y23885D01*
D02*
G37*
G36*
X433624D02*
X433571D01*
Y20185D01*
X437271D01*
Y20238D01*
X436985Y21306D01*
X436432Y22264D01*
X435650Y23046D01*
X434692Y23599D01*
X433624Y23885D01*
D02*
G37*
G36*
X432571D02*
X432518D01*
X431450Y23599D01*
X430492Y23046D01*
X429710Y22264D01*
X429157Y21306D01*
X428871Y20238D01*
Y20185D01*
X432571D01*
Y23885D01*
D02*
G37*
G36*
X413939D02*
X413886D01*
Y20185D01*
X417586D01*
Y20238D01*
X417300Y21306D01*
X416747Y22264D01*
X415965Y23046D01*
X415007Y23599D01*
X413939Y23885D01*
D02*
G37*
G36*
X412886D02*
X412833D01*
X411765Y23599D01*
X410807Y23046D01*
X410025Y22264D01*
X409472Y21306D01*
X409186Y20238D01*
Y20185D01*
X412886D01*
Y23885D01*
D02*
G37*
G36*
X209188Y25260D02*
X208135D01*
X207118Y24987D01*
X206205Y24461D01*
X205461Y23716D01*
X204934Y22804D01*
X204661Y21787D01*
Y20733D01*
X204934Y19716D01*
X205461Y18804D01*
X206205Y18059D01*
X207118Y17532D01*
X208135Y17260D01*
X209188D01*
X210205Y17532D01*
X211118Y18059D01*
X211862Y18804D01*
X212389Y19716D01*
X212661Y20733D01*
Y21787D01*
X212389Y22804D01*
X211862Y23716D01*
X211118Y24461D01*
X210205Y24987D01*
X209188Y25260D01*
D02*
G37*
G36*
X169818D02*
X168765D01*
X167747Y24987D01*
X166835Y24461D01*
X166091Y23716D01*
X165564Y22804D01*
X165291Y21787D01*
Y20733D01*
X165564Y19716D01*
X166091Y18804D01*
X166835Y18059D01*
X167747Y17532D01*
X168765Y17260D01*
X169818D01*
X170835Y17532D01*
X171747Y18059D01*
X172492Y18804D01*
X173019Y19716D01*
X173291Y20733D01*
Y21787D01*
X173019Y22804D01*
X172492Y23716D01*
X171747Y24461D01*
X170835Y24987D01*
X169818Y25260D01*
D02*
G37*
G36*
X704987Y19185D02*
X701287D01*
Y15485D01*
X701340D01*
X702409Y15771D01*
X703366Y16324D01*
X704148Y17106D01*
X704701Y18064D01*
X704987Y19132D01*
Y19185D01*
D02*
G37*
G36*
X700287D02*
X696587D01*
Y19132D01*
X696874Y18064D01*
X697427Y17106D01*
X698209Y16324D01*
X699166Y15771D01*
X700235Y15485D01*
X700287D01*
Y19185D01*
D02*
G37*
G36*
X681655Y23885D02*
X680549D01*
X679481Y23599D01*
X678523Y23046D01*
X677741Y22264D01*
X677189Y21306D01*
X676902Y20238D01*
Y19132D01*
X677189Y18064D01*
X677741Y17106D01*
X678523Y16324D01*
X679481Y15771D01*
X680549Y15485D01*
X681655D01*
X682724Y15771D01*
X683681Y16324D01*
X684463Y17106D01*
X685016Y18064D01*
X685302Y19132D01*
Y20238D01*
X685016Y21306D01*
X684463Y22264D01*
X683681Y23046D01*
X682724Y23599D01*
X681655Y23885D01*
D02*
G37*
G36*
X653806Y19185D02*
X650106D01*
Y15485D01*
X650159D01*
X651227Y15771D01*
X652185Y16324D01*
X652967Y17106D01*
X653520Y18064D01*
X653806Y19132D01*
Y19185D01*
D02*
G37*
G36*
X649106D02*
X645406D01*
Y19132D01*
X645692Y18064D01*
X646245Y17106D01*
X647027Y16324D01*
X647985Y15771D01*
X649053Y15485D01*
X649106D01*
Y19185D01*
D02*
G37*
G36*
X630474Y23885D02*
X629368D01*
X628300Y23599D01*
X627342Y23046D01*
X626560Y22264D01*
X626008Y21306D01*
X625721Y20238D01*
Y19132D01*
X626008Y18064D01*
X626560Y17106D01*
X627342Y16324D01*
X628300Y15771D01*
X629368Y15485D01*
X630474D01*
X631542Y15771D01*
X632500Y16324D01*
X633282Y17106D01*
X633835Y18064D01*
X634121Y19132D01*
Y20238D01*
X633835Y21306D01*
X633282Y22264D01*
X632500Y23046D01*
X631542Y23599D01*
X630474Y23885D01*
D02*
G37*
G36*
X596720Y19185D02*
X593020D01*
Y15485D01*
X593073D01*
X594141Y15771D01*
X595098Y16324D01*
X595881Y17106D01*
X596433Y18064D01*
X596720Y19132D01*
Y19185D01*
D02*
G37*
G36*
X592020D02*
X588320D01*
Y19132D01*
X588606Y18064D01*
X589159Y17106D01*
X589941Y16324D01*
X590899Y15771D01*
X591967Y15485D01*
X592020D01*
Y19185D01*
D02*
G37*
G36*
X573388Y23885D02*
X572282D01*
X571213Y23599D01*
X570256Y23046D01*
X569474Y22264D01*
X568921Y21306D01*
X568635Y20238D01*
Y19132D01*
X568921Y18064D01*
X569474Y17106D01*
X570256Y16324D01*
X571213Y15771D01*
X572282Y15485D01*
X573388D01*
X574456Y15771D01*
X575414Y16324D01*
X576195Y17106D01*
X576748Y18064D01*
X577035Y19132D01*
Y20238D01*
X576748Y21306D01*
X576195Y22264D01*
X575414Y23046D01*
X574456Y23599D01*
X573388Y23885D01*
D02*
G37*
G36*
X545539Y19185D02*
X541839D01*
Y15485D01*
X541891D01*
X542960Y15771D01*
X543917Y16324D01*
X544699Y17106D01*
X545252Y18064D01*
X545539Y19132D01*
Y19185D01*
D02*
G37*
G36*
X540839D02*
X537139D01*
Y19132D01*
X537425Y18064D01*
X537978Y17106D01*
X538760Y16324D01*
X539717Y15771D01*
X540786Y15485D01*
X540839D01*
Y19185D01*
D02*
G37*
G36*
X522206Y23885D02*
X521101D01*
X520032Y23599D01*
X519075Y23046D01*
X518293Y22264D01*
X517740Y21306D01*
X517453Y20238D01*
Y19132D01*
X517740Y18064D01*
X518293Y17106D01*
X519075Y16324D01*
X520032Y15771D01*
X521101Y15485D01*
X522206D01*
X523275Y15771D01*
X524232Y16324D01*
X525014Y17106D01*
X525567Y18064D01*
X525853Y19132D01*
Y20238D01*
X525567Y21306D01*
X525014Y22264D01*
X524232Y23046D01*
X523275Y23599D01*
X522206Y23885D01*
D02*
G37*
G36*
X484805D02*
X483699D01*
X482631Y23599D01*
X481673Y23046D01*
X480891Y22264D01*
X480338Y21306D01*
X480052Y20238D01*
Y19132D01*
X480338Y18064D01*
X480891Y17106D01*
X481673Y16324D01*
X482631Y15771D01*
X483699Y15485D01*
X484805D01*
X485873Y15771D01*
X486831Y16324D01*
X487613Y17106D01*
X488166Y18064D01*
X488452Y19132D01*
Y20238D01*
X488166Y21306D01*
X487613Y22264D01*
X486831Y23046D01*
X485873Y23599D01*
X484805Y23885D01*
D02*
G37*
G36*
X465120D02*
X464014D01*
X462946Y23599D01*
X461988Y23046D01*
X461206Y22264D01*
X460653Y21306D01*
X460367Y20238D01*
Y19132D01*
X460653Y18064D01*
X461206Y17106D01*
X461988Y16324D01*
X462946Y15771D01*
X464014Y15485D01*
X465120D01*
X466188Y15771D01*
X467146Y16324D01*
X467928Y17106D01*
X468481Y18064D01*
X468767Y19132D01*
Y20238D01*
X468481Y21306D01*
X467928Y22264D01*
X467146Y23046D01*
X466188Y23599D01*
X465120Y23885D01*
D02*
G37*
G36*
X437271Y19185D02*
X433571D01*
Y15485D01*
X433624D01*
X434692Y15771D01*
X435650Y16324D01*
X436432Y17106D01*
X436985Y18064D01*
X437271Y19132D01*
Y19185D01*
D02*
G37*
G36*
X432571D02*
X428871D01*
Y19132D01*
X429157Y18064D01*
X429710Y17106D01*
X430492Y16324D01*
X431450Y15771D01*
X432518Y15485D01*
X432571D01*
Y19185D01*
D02*
G37*
G36*
X417586D02*
X413886D01*
Y15485D01*
X413939D01*
X415007Y15771D01*
X415965Y16324D01*
X416747Y17106D01*
X417300Y18064D01*
X417586Y19132D01*
Y19185D01*
D02*
G37*
G36*
X412886D02*
X409186D01*
Y19132D01*
X409472Y18064D01*
X410025Y17106D01*
X410807Y16324D01*
X411765Y15771D01*
X412833Y15485D01*
X412886D01*
Y19185D01*
D02*
G37*
G36*
X382443Y23885D02*
X381337D01*
X380269Y23599D01*
X379311Y23046D01*
X378529Y22264D01*
X377976Y21306D01*
X377690Y20238D01*
Y19132D01*
X377976Y18064D01*
X378529Y17106D01*
X379311Y16324D01*
X380269Y15771D01*
X381337Y15485D01*
X382443D01*
X383511Y15771D01*
X384469Y16324D01*
X385251Y17106D01*
X385804Y18064D01*
X386090Y19132D01*
Y20238D01*
X385804Y21306D01*
X385251Y22264D01*
X384469Y23046D01*
X383511Y23599D01*
X382443Y23885D01*
D02*
G37*
G36*
X362758D02*
X361652D01*
X360584Y23599D01*
X359626Y23046D01*
X358844Y22264D01*
X358291Y21306D01*
X358005Y20238D01*
Y19132D01*
X358291Y18064D01*
X358844Y17106D01*
X359626Y16324D01*
X360584Y15771D01*
X361652Y15485D01*
X362758D01*
X363826Y15771D01*
X364784Y16324D01*
X365566Y17106D01*
X366119Y18064D01*
X366405Y19132D01*
Y20238D01*
X366119Y21306D01*
X365566Y22264D01*
X364784Y23046D01*
X363826Y23599D01*
X362758Y23885D01*
D02*
G37*
G36*
X130782Y21748D02*
X129690D01*
X128635Y21465D01*
X127688Y20919D01*
X126916Y20146D01*
X126369Y19200D01*
X126087Y18145D01*
Y17052D01*
X126369Y15997D01*
X126916Y15051D01*
X127688Y14278D01*
X128635Y13732D01*
X129690Y13449D01*
X130782D01*
X131838Y13732D01*
X132784Y14278D01*
X133557Y15051D01*
X134103Y15997D01*
X134386Y17052D01*
Y18145D01*
X134103Y19200D01*
X133557Y20146D01*
X132784Y20919D01*
X131838Y21465D01*
X130782Y21748D01*
D02*
G37*
G36*
X100783D02*
X99690D01*
X98634Y21465D01*
X97688Y20919D01*
X96916Y20146D01*
X96369Y19200D01*
X96087Y18145D01*
Y17052D01*
X96369Y15997D01*
X96916Y15051D01*
X97688Y14278D01*
X98634Y13732D01*
X99690Y13449D01*
X100783D01*
X101838Y13732D01*
X102784Y14278D01*
X103557Y15051D01*
X104103Y15997D01*
X104386Y17052D01*
Y18145D01*
X104103Y19200D01*
X103557Y20146D01*
X102784Y20919D01*
X101838Y21465D01*
X100783Y21748D01*
D02*
G37*
G36*
X90782D02*
X89690D01*
X88635Y21465D01*
X87688Y20919D01*
X86916Y20146D01*
X86369Y19200D01*
X86087Y18145D01*
Y17052D01*
X86369Y15997D01*
X86916Y15051D01*
X87688Y14278D01*
X88635Y13732D01*
X89690Y13449D01*
X90782D01*
X91838Y13732D01*
X92784Y14278D01*
X93557Y15051D01*
X94103Y15997D01*
X94386Y17052D01*
Y18145D01*
X94103Y19200D01*
X93557Y20146D01*
X92784Y20919D01*
X91838Y21465D01*
X90782Y21748D01*
D02*
G37*
G36*
X189503Y11874D02*
X189476D01*
Y8374D01*
X192976D01*
Y8401D01*
X192704Y9418D01*
X192177Y10330D01*
X191432Y11075D01*
X190520Y11601D01*
X189503Y11874D01*
D02*
G37*
G36*
X188476D02*
X188450D01*
X187432Y11601D01*
X186520Y11075D01*
X185776Y10330D01*
X185249Y9418D01*
X184976Y8401D01*
Y8374D01*
X188476D01*
Y11874D01*
D02*
G37*
G36*
X100783Y11748D02*
X100736D01*
Y8098D01*
X104386D01*
Y8145D01*
X104103Y9200D01*
X103557Y10146D01*
X102784Y10919D01*
X101838Y11465D01*
X100783Y11748D01*
D02*
G37*
G36*
X99736D02*
X99690D01*
X98634Y11465D01*
X97688Y10919D01*
X96916Y10146D01*
X96369Y9200D01*
X96087Y8145D01*
Y8098D01*
X99736D01*
Y11748D01*
D02*
G37*
G36*
X283938Y11700D02*
X283062D01*
X282254Y11365D01*
X281635Y10746D01*
X281300Y9938D01*
Y9062D01*
X281635Y8254D01*
X282254Y7635D01*
X283062Y7300D01*
X283938D01*
X284746Y7635D01*
X285365Y8254D01*
X285700Y9062D01*
Y9938D01*
X285365Y10746D01*
X284746Y11365D01*
X283938Y11700D01*
D02*
G37*
G36*
X192976Y7374D02*
X189476D01*
Y3874D01*
X189503D01*
X190520Y4147D01*
X191432Y4673D01*
X192177Y5418D01*
X192704Y6330D01*
X192976Y7347D01*
Y7374D01*
D02*
G37*
G36*
X188476D02*
X184976D01*
Y7347D01*
X185249Y6330D01*
X185776Y5418D01*
X186520Y4673D01*
X187432Y4147D01*
X188450Y3874D01*
X188476D01*
Y7374D01*
D02*
G37*
G36*
X36671Y19363D02*
X21171D01*
Y3863D01*
X21930D01*
X24418Y4257D01*
X26813Y5035D01*
X29057Y6179D01*
X31095Y7659D01*
X32875Y9440D01*
X34356Y11477D01*
X35499Y13721D01*
X36277Y16116D01*
X36671Y18604D01*
Y19363D01*
D02*
G37*
G36*
X20171D02*
X4671D01*
Y18604D01*
X5065Y16116D01*
X5843Y13721D01*
X6987Y11477D01*
X8467Y9440D01*
X10248Y7659D01*
X12285Y6179D01*
X14529Y5035D01*
X16925Y4257D01*
X19412Y3863D01*
X20171D01*
Y19363D01*
D02*
G37*
G36*
X783716Y19185D02*
X768217D01*
Y3685D01*
X768976D01*
X771463Y4079D01*
X773858Y4857D01*
X776102Y6001D01*
X778140Y7481D01*
X779921Y9262D01*
X781401Y11299D01*
X782544Y13543D01*
X783323Y15938D01*
X783716Y18426D01*
Y19185D01*
D02*
G37*
G36*
X767216D02*
X751717D01*
Y18426D01*
X752110Y15938D01*
X752889Y13543D01*
X754032Y11299D01*
X755512Y9262D01*
X757293Y7481D01*
X759331Y6001D01*
X761575Y4857D01*
X763970Y4079D01*
X766457Y3685D01*
X767216D01*
Y19185D01*
D02*
G37*
G36*
X130782Y11748D02*
X129690D01*
X128635Y11465D01*
X127688Y10919D01*
X126916Y10146D01*
X126369Y9200D01*
X126087Y8145D01*
Y7052D01*
X126369Y5997D01*
X126916Y5051D01*
X127688Y4278D01*
X128635Y3732D01*
X129690Y3449D01*
X130782D01*
X131838Y3732D01*
X132784Y4278D01*
X133557Y5051D01*
X134103Y5997D01*
X134386Y7052D01*
Y8145D01*
X134103Y9200D01*
X133557Y10146D01*
X132784Y10919D01*
X131838Y11465D01*
X130782Y11748D01*
D02*
G37*
G36*
X110783D02*
X109690D01*
X108634Y11465D01*
X107688Y10919D01*
X106916Y10146D01*
X106369Y9200D01*
X106087Y8145D01*
Y7052D01*
X106369Y5997D01*
X106916Y5051D01*
X107688Y4278D01*
X108634Y3732D01*
X109690Y3449D01*
X110783D01*
X111838Y3732D01*
X112784Y4278D01*
X113557Y5051D01*
X114103Y5997D01*
X114386Y7052D01*
Y8145D01*
X114103Y9200D01*
X113557Y10146D01*
X112784Y10919D01*
X111838Y11465D01*
X110783Y11748D01*
D02*
G37*
G36*
X104386Y7098D02*
X100736D01*
Y3449D01*
X100783D01*
X101838Y3732D01*
X102784Y4278D01*
X103557Y5051D01*
X104103Y5997D01*
X104386Y7052D01*
Y7098D01*
D02*
G37*
G36*
X99736D02*
X96087D01*
Y7052D01*
X96369Y5997D01*
X96916Y5051D01*
X97688Y4278D01*
X98634Y3732D01*
X99690Y3449D01*
X99736D01*
Y7098D01*
D02*
G37*
%LPD*%
G36*
X452471Y217655D02*
Y191782D01*
X452135Y191446D01*
X451800Y190638D01*
Y190529D01*
X425846D01*
X425654Y190991D01*
X451581Y216919D01*
X451913Y217415D01*
X451971Y217705D01*
X452471Y217655D01*
D02*
G37*
G36*
X241971Y111185D02*
Y97782D01*
X241635Y97446D01*
X241300Y96638D01*
Y95762D01*
X241604Y95029D01*
X241406Y94529D01*
X232515D01*
X231929Y94413D01*
X231433Y94081D01*
X215881Y78529D01*
X180294D01*
X179979Y79029D01*
X180200Y79562D01*
Y80438D01*
X179865Y81246D01*
X179529Y81582D01*
Y92806D01*
X180509Y93786D01*
X180971Y93594D01*
Y87582D01*
X180635Y87246D01*
X180300Y86438D01*
Y85562D01*
X180635Y84754D01*
X181254Y84135D01*
X182062Y83800D01*
X182938D01*
X183746Y84135D01*
X184365Y84754D01*
X184700Y85562D01*
Y86438D01*
X184365Y87246D01*
X184029Y87582D01*
Y90409D01*
X184529Y90509D01*
X184635Y90254D01*
X185254Y89635D01*
X186062Y89300D01*
X186938D01*
X187746Y89635D01*
X188365Y90254D01*
X188700Y91062D01*
Y91537D01*
X191133Y93971D01*
X201000D01*
X201585Y94087D01*
X202081Y94419D01*
X205134Y97471D01*
X237418D01*
X237754Y97135D01*
X238562Y96800D01*
X239438D01*
X240246Y97135D01*
X240865Y97754D01*
X241200Y98562D01*
Y99438D01*
X240865Y100246D01*
X240246Y100865D01*
X239438Y101200D01*
X238562D01*
X237754Y100865D01*
X237418Y100529D01*
X236794D01*
X236479Y101029D01*
X236700Y101562D01*
Y102438D01*
X236365Y103246D01*
X235746Y103865D01*
X234938Y104200D01*
X234062D01*
X233254Y103865D01*
X232918Y103529D01*
X205379D01*
X204793Y103413D01*
X204297Y103081D01*
X199745Y98529D01*
X189082D01*
X188746Y98865D01*
X188429Y98997D01*
X188331Y99487D01*
X200315Y111471D01*
X232867D01*
X236300Y108037D01*
Y107562D01*
X236635Y106754D01*
X237254Y106135D01*
X238062Y105800D01*
X238938D01*
X239746Y106135D01*
X240365Y106754D01*
X240700Y107562D01*
Y108438D01*
X240365Y109246D01*
X239746Y109865D01*
X238938Y110200D01*
X238863D01*
X238796Y110300D01*
X238849Y110486D01*
X239036Y110841D01*
X239746Y111135D01*
X240365Y111754D01*
X240496Y112071D01*
X240987Y112169D01*
X241971Y111185D01*
D02*
G37*
%LPC*%
G36*
X218438Y91200D02*
X217562D01*
X216754Y90865D01*
X216135Y90246D01*
X215800Y89438D01*
Y88562D01*
X216135Y87754D01*
X216754Y87135D01*
X217562Y86800D01*
X218438D01*
X219246Y87135D01*
X219865Y87754D01*
X220200Y88562D01*
Y89438D01*
X219865Y90246D01*
X219246Y90865D01*
X218438Y91200D01*
D02*
G37*
G36*
X214438Y84200D02*
X213562D01*
X212754Y83865D01*
X212135Y83246D01*
X211800Y82438D01*
Y81562D01*
X212135Y80754D01*
X212754Y80135D01*
X213562Y79800D01*
X214438D01*
X215246Y80135D01*
X215865Y80754D01*
X216200Y81562D01*
Y82438D01*
X215865Y83246D01*
X215246Y83865D01*
X214438Y84200D01*
D02*
G37*
%LPD*%
D10*
X216515Y77000D02*
X232515Y93000D01*
X175500Y77000D02*
X216515D01*
X171500Y73000D02*
X175500Y77000D01*
X366500Y80000D02*
X568576D01*
X585000Y96424D01*
X330318Y93500D02*
X364255Y127437D01*
X384327D01*
X309000Y93500D02*
X330318D01*
X583291Y160102D02*
X593689Y170500D01*
X649500D01*
X489000Y156000D02*
Y264828D01*
X495000Y154000D02*
Y178500D01*
X484000Y151000D02*
X489000Y156000D01*
Y264828D02*
X510836Y286664D01*
X495000Y154000D02*
X534000Y115000D01*
X493000Y180500D02*
X495000Y178500D01*
X461939Y157500D02*
X484000D01*
X314000Y151000D02*
X484000D01*
X438500Y160000D02*
X459439D01*
X461939Y157500D01*
X493000Y212000D02*
X585000Y304000D01*
X493000Y180500D02*
Y212000D01*
X453343Y273500D02*
X466500Y260343D01*
X439100Y273500D02*
X453343D01*
X466500Y214500D02*
Y260343D01*
X386000Y326600D02*
X439100Y273500D01*
X386000Y361512D02*
X395197Y370709D01*
X386000Y326600D02*
Y361512D01*
X534000Y113000D02*
Y115000D01*
X384327Y117437D02*
X388764Y113000D01*
X534000D01*
X572835Y39370D02*
Y70665D01*
X322042Y76777D02*
X566723D01*
X572835Y70665D01*
X521654Y39370D02*
Y69846D01*
X321421Y75277D02*
X516223D01*
X521654Y69846D01*
X301500Y95060D02*
X307079Y89481D01*
X301500Y113500D02*
X309000Y121000D01*
X301500Y95060D02*
Y113500D01*
X306000Y92682D02*
Y103500D01*
X307079Y89481D02*
X307216D01*
X321421Y75277D01*
X307700Y90981D02*
X307838D01*
X306000Y92682D02*
X307700Y90981D01*
X307838D02*
X322042Y76777D01*
X331000Y48000D02*
X353500Y70500D01*
X192379Y48000D02*
X331000D01*
X276500Y113500D02*
X314000Y151000D01*
X312136Y155500D02*
X390121D01*
X311515Y157000D02*
X389500D01*
X246015Y91500D02*
X311515Y157000D01*
X246636Y90000D02*
X312136Y155500D01*
X313379Y152500D02*
X391364D01*
X312757Y154000D02*
X390743D01*
X247257Y88500D02*
X312757Y154000D01*
X233757Y90000D02*
X246636D01*
X233136Y91500D02*
X246015D01*
X234379Y88500D02*
X247257D01*
X247879Y87000D02*
X313379Y152500D01*
X276500Y100000D02*
Y113500D01*
X235000Y87000D02*
X247879D01*
X181000Y59379D02*
X192379Y48000D01*
X181000Y63621D02*
X188379Y71000D01*
X199500D01*
X181000Y59379D02*
Y63621D01*
X206500Y58500D02*
X235000Y87000D01*
X204000Y74000D02*
X215636D01*
X208257Y64500D02*
X233757Y90000D01*
X184000Y58500D02*
X206500D01*
X215636Y74000D02*
X233136Y91500D01*
X207379Y61500D02*
X234379Y88500D01*
X191500Y64500D02*
X208257D01*
X187000Y61500D02*
X207379D01*
X585000Y96424D02*
Y127000D01*
X588500Y130500D01*
X599000D01*
X243500Y96000D02*
Y111818D01*
X244118Y93000D02*
X247000Y95882D01*
X232515Y93000D02*
X244118D01*
X247000Y95882D02*
Y115500D01*
X204500Y99000D02*
X239000D01*
X182500Y63000D02*
X186700Y67200D01*
X182500Y60000D02*
X184000Y58500D01*
X182500Y60000D02*
Y63000D01*
X186700Y67200D02*
X196000D01*
X452714Y189000D02*
X453914Y190200D01*
X390121Y155500D02*
X423621Y189000D01*
X454000Y190200D02*
Y218000D01*
X453914Y190200D02*
X454000D01*
X423621Y189000D02*
X452714D01*
X424864Y186000D02*
X462000D01*
X390743Y154000D02*
X424243Y187500D01*
X391364Y152500D02*
X424864Y186000D01*
X459000Y191382D02*
Y197500D01*
X424243Y187500D02*
X455118D01*
X459000Y191382D01*
X450500Y218000D02*
Y227000D01*
X389500Y157000D02*
X450500Y218000D01*
Y227000D02*
X459182D01*
X236621Y114500D02*
X238121Y113000D01*
X77079Y116000D02*
X239318D01*
X238121Y113000D02*
X238500D01*
X199060Y114500D02*
X236621D01*
X239318Y116000D02*
X243500Y111818D01*
X454000Y218000D02*
X457500Y221500D01*
X241500Y121000D02*
X247000Y115500D01*
X200379Y97000D02*
X205379Y102000D01*
X234500D01*
X201000Y95500D02*
X204500Y99000D01*
X69800Y29200D02*
Y114300D01*
Y29200D02*
X87609Y11391D01*
Y10226D02*
X90236Y7598D01*
X87609Y10226D02*
Y11391D01*
X69800Y114300D02*
X73000Y117500D01*
X199682Y113000D02*
X233500D01*
X73000Y117500D02*
X200000D01*
X208000Y125500D01*
X178000Y93440D02*
X199060Y114500D01*
X75000Y114300D02*
X75379D01*
X233500Y113000D02*
X238500Y108000D01*
X182500Y95818D02*
X199682Y113000D01*
X75379Y114300D02*
X77079Y116000D01*
X208000Y125500D02*
Y144000D01*
X182500Y86000D02*
Y95818D01*
X186500Y91500D02*
X190500Y95500D01*
X178000Y80000D02*
Y93440D01*
X187500Y97000D02*
X200379D01*
X190500Y95500D02*
X201000D01*
X102500Y93000D02*
X105000Y90500D01*
Y59500D02*
Y90500D01*
X97000Y92621D02*
X98500Y91121D01*
Y59500D02*
Y91121D01*
X97000Y92621D02*
Y93000D01*
X91000Y92621D02*
X92000Y91621D01*
Y59500D02*
Y91621D01*
X91000Y92621D02*
Y93000D01*
X85500Y91621D02*
X86000Y92121D01*
Y92500D01*
X85500Y59500D02*
Y91621D01*
X79000Y60000D02*
Y91144D01*
X80189Y92333D01*
Y92712D01*
X72500Y60000D02*
Y94000D01*
X74500Y96000D01*
D11*
X437000Y321331D02*
X446378Y330709D01*
X437000Y295284D02*
Y321331D01*
Y295284D02*
X446850Y285433D01*
X713000Y119500D02*
X717108Y123608D01*
X652500Y119500D02*
X713000D01*
X717108Y123608D02*
Y226220D01*
D16*
X115000Y15433D02*
X115136Y15569D01*
Y90757D02*
X116050Y91671D01*
X115000Y12835D02*
Y15433D01*
X115136Y15569D02*
Y90757D01*
X115000Y12835D02*
X120236Y7598D01*
X116050Y91671D02*
Y91807D01*
X116500Y92256D01*
Y92500D01*
D100*
X362205Y39370D02*
D03*
X381890D02*
D03*
X362205Y19685D02*
D03*
X381890D02*
D03*
X541339D02*
D03*
X521654D02*
D03*
X541339Y39370D02*
D03*
X521654D02*
D03*
X592520Y19685D02*
D03*
X572835D02*
D03*
X592520Y39370D02*
D03*
X572835D02*
D03*
X669291Y448819D02*
D03*
X688976D02*
D03*
X669291Y429134D02*
D03*
X688976D02*
D03*
X574803D02*
D03*
X555118D02*
D03*
X574803Y448819D02*
D03*
X555118D02*
D03*
X523622Y429134D02*
D03*
X503937D02*
D03*
X523622Y448819D02*
D03*
X503937D02*
D03*
X472441Y429134D02*
D03*
X452756D02*
D03*
X472441Y448819D02*
D03*
X452756D02*
D03*
X421260Y429134D02*
D03*
X401575D02*
D03*
X421260Y448819D02*
D03*
X401575D02*
D03*
X700787Y19685D02*
D03*
X681102D02*
D03*
X700787Y39370D02*
D03*
X681102D02*
D03*
X649606Y19685D02*
D03*
X629921D02*
D03*
X649606Y39370D02*
D03*
X629921D02*
D03*
X484252Y19685D02*
D03*
X464567D02*
D03*
X484252Y39370D02*
D03*
X464567D02*
D03*
X433071Y19685D02*
D03*
X413386D02*
D03*
X433071Y39370D02*
D03*
X413386D02*
D03*
D103*
X692913Y330709D02*
D03*
Y370709D02*
D03*
Y400709D02*
D03*
X662913D02*
D03*
Y370709D02*
D03*
Y330709D02*
D03*
X548740D02*
D03*
Y370709D02*
D03*
Y400709D02*
D03*
X578740D02*
D03*
Y370709D02*
D03*
Y330709D02*
D03*
X497559D02*
D03*
Y370709D02*
D03*
Y400709D02*
D03*
X527559D02*
D03*
Y370709D02*
D03*
Y330709D02*
D03*
X446378D02*
D03*
Y370709D02*
D03*
Y400709D02*
D03*
X476378D02*
D03*
Y370709D02*
D03*
Y330709D02*
D03*
X395197D02*
D03*
Y370709D02*
D03*
Y400709D02*
D03*
X425197D02*
D03*
Y370709D02*
D03*
Y330709D02*
D03*
D113*
X188976Y7874D02*
D03*
X208661Y21260D02*
D03*
X169291D02*
D03*
D120*
X752996Y128937D02*
D03*
Y343504D02*
D03*
D121*
X90236Y17598D02*
D03*
X100236Y7598D02*
D03*
Y17598D02*
D03*
X110236Y7598D02*
D03*
Y17598D02*
D03*
X120236Y7598D02*
D03*
Y17598D02*
D03*
X130236Y7598D02*
D03*
Y17598D02*
D03*
D123*
X435087Y342000D02*
X446378Y330709D01*
X395197D02*
X406488Y342000D01*
X457669D02*
X486268D01*
X497559Y330709D01*
X537949Y341500D02*
X548740Y330709D01*
X497559D02*
X508350Y341500D01*
X537949D01*
X446378Y330709D02*
X457669Y342000D01*
X406488D02*
X435087D01*
D125*
X700608Y221220D02*
D03*
X717108Y226220D02*
D03*
X700608Y231221D02*
D03*
X717108Y236221D02*
D03*
X700608Y241220D02*
D03*
X717108Y246220D02*
D03*
D126*
X700207Y251220D02*
D03*
D127*
X368110Y91732D02*
D03*
X147638D02*
D03*
Y216535D02*
D03*
D128*
X532677Y164370D02*
D03*
Y213583D02*
D03*
X677168Y140961D02*
D03*
Y91748D02*
D03*
X570393Y139961D02*
D03*
Y90748D02*
D03*
X594461Y252732D02*
D03*
Y301945D02*
D03*
D129*
X19685Y94488D02*
D03*
Y62992D02*
D03*
D130*
X446850Y285433D02*
D03*
D131*
Y305118D02*
D03*
D132*
X384327Y127437D02*
D03*
D133*
Y117437D02*
D03*
Y107437D02*
D03*
X387890Y188634D02*
D03*
Y198634D02*
D03*
Y208634D02*
D03*
X357890Y178634D02*
D03*
Y188634D02*
D03*
Y198634D02*
D03*
Y208634D02*
D03*
D134*
X387890Y178634D02*
D03*
D135*
X767717Y452756D02*
D03*
Y19685D02*
D03*
X20671Y19863D02*
D03*
X19685Y452756D02*
D03*
D136*
X757117D02*
D03*
X762417Y443576D02*
D03*
X773017D02*
D03*
X778316Y452756D02*
D03*
X773017Y461936D02*
D03*
X762417D02*
D03*
X757117Y19685D02*
D03*
X762417Y10505D02*
D03*
X773017D02*
D03*
X778316Y19685D02*
D03*
X773017Y28865D02*
D03*
X762417D02*
D03*
X10071Y19863D02*
D03*
X15371Y10683D02*
D03*
X25971D02*
D03*
X31271Y19863D02*
D03*
X25971Y29043D02*
D03*
X15371D02*
D03*
X9085Y452756D02*
D03*
X14385Y443576D02*
D03*
X24985D02*
D03*
X30285Y452756D02*
D03*
X24985Y461936D02*
D03*
X14385D02*
D03*
D137*
X105002Y161430D02*
D03*
X115002Y181430D02*
D03*
Y133430D02*
D03*
Y141430D02*
D03*
Y173430D02*
D03*
Y165430D02*
D03*
Y149430D02*
D03*
X105002Y153430D02*
D03*
Y145430D02*
D03*
X105002Y169430D02*
D03*
Y177430D02*
D03*
D138*
X44921Y132480D02*
D03*
Y182480D02*
D03*
D139*
X105002Y137430D02*
D03*
D140*
X32402Y189232D02*
D03*
Y125680D02*
D03*
D141*
X29035Y403544D02*
D03*
X29035Y368111D02*
D03*
D142*
X12696Y368110D02*
D03*
X12696Y403543D02*
D03*
D143*
X27066Y374448D02*
D03*
Y397204D02*
D03*
D144*
X90236Y7598D02*
D03*
D145*
X365748Y318307D02*
D03*
X287795Y390354D02*
D03*
X251575Y318307D02*
D03*
X173622Y390354D02*
D03*
X137402Y318307D02*
D03*
X59449Y390354D02*
D03*
D146*
X249000Y78500D02*
D03*
X446500Y105000D02*
D03*
X510000Y161500D02*
D03*
X542500Y91500D02*
D03*
X598500Y96500D02*
D03*
X366500Y80000D02*
D03*
X679000Y232500D02*
D03*
X356000Y140000D02*
D03*
X394500Y147500D02*
D03*
X356000Y147000D02*
D03*
X325500Y45000D02*
D03*
X323000D02*
D03*
X320500D02*
D03*
X313000D02*
D03*
X308000D02*
D03*
X335341Y109659D02*
D03*
X425000Y108500D02*
D03*
X649500Y170500D02*
D03*
X583291Y160102D02*
D03*
X484000Y157500D02*
D03*
X438500Y160000D02*
D03*
X292225Y90888D02*
D03*
X294000Y75000D02*
D03*
X454000Y172000D02*
D03*
X353000Y453500D02*
D03*
X350500Y456000D02*
D03*
Y453500D02*
D03*
Y451000D02*
D03*
Y446000D02*
D03*
X353000Y448500D02*
D03*
X350500D02*
D03*
X348000D02*
D03*
X345500Y446000D02*
D03*
Y448500D02*
D03*
X343000D02*
D03*
X345500Y451000D02*
D03*
Y453500D02*
D03*
Y456000D02*
D03*
X348000Y453500D02*
D03*
X343000D02*
D03*
X345000Y261500D02*
D03*
Y264000D02*
D03*
Y266500D02*
D03*
Y269000D02*
D03*
Y271500D02*
D03*
Y274000D02*
D03*
Y276500D02*
D03*
X350000Y261500D02*
D03*
X347500D02*
D03*
Y264000D02*
D03*
Y266500D02*
D03*
Y269000D02*
D03*
Y271500D02*
D03*
Y274000D02*
D03*
Y276500D02*
D03*
X350000Y264000D02*
D03*
Y266500D02*
D03*
Y269000D02*
D03*
Y271500D02*
D03*
Y274000D02*
D03*
Y276500D02*
D03*
X446000Y156000D02*
D03*
X677500Y224500D02*
D03*
Y218500D02*
D03*
X677000Y191500D02*
D03*
X659500Y188000D02*
D03*
X641500Y130000D02*
D03*
X684000Y247000D02*
D03*
X656500Y84500D02*
D03*
X531500Y138500D02*
D03*
X496000Y205000D02*
D03*
X570500Y260500D02*
D03*
X542500Y267000D02*
D03*
X515000Y307000D02*
D03*
X557000Y291500D02*
D03*
X566000Y308000D02*
D03*
X527000Y308500D02*
D03*
X392000Y132000D02*
D03*
X473500Y169000D02*
D03*
X401000Y142500D02*
D03*
X310500Y45000D02*
D03*
X652500Y119500D02*
D03*
X466500Y214500D02*
D03*
X416500Y101000D02*
D03*
X23500Y287000D02*
D03*
X317390Y129110D02*
D03*
X447000Y180000D02*
D03*
X585000Y304000D02*
D03*
X495000Y178500D02*
D03*
X534000Y113000D02*
D03*
X353000Y446000D02*
D03*
X348000D02*
D03*
X343000D02*
D03*
X353000Y451000D02*
D03*
X348000D02*
D03*
X343000D02*
D03*
X353000Y456000D02*
D03*
X348000D02*
D03*
X343000D02*
D03*
X530500Y102000D02*
D03*
X353500Y70500D02*
D03*
X306000Y103500D02*
D03*
X309000Y121000D02*
D03*
X510836Y286664D02*
D03*
X296901Y146598D02*
D03*
X276500Y100000D02*
D03*
X274000Y60500D02*
D03*
X269500Y51500D02*
D03*
X432500Y130500D02*
D03*
X204000Y45300D02*
D03*
X240000Y53200D02*
D03*
X266500Y81000D02*
D03*
X214000Y82000D02*
D03*
X243500Y96200D02*
D03*
X599000Y130500D02*
D03*
X187000Y61500D02*
D03*
X239000Y99000D02*
D03*
X454000Y190200D02*
D03*
X462000Y186000D02*
D03*
X238500Y113000D02*
D03*
X204000Y74000D02*
D03*
X459000Y197500D02*
D03*
X450500Y227000D02*
D03*
X457500Y221500D02*
D03*
X459182Y227000D02*
D03*
X191500Y64500D02*
D03*
X196000Y67200D02*
D03*
X199500Y71000D02*
D03*
X616000Y99000D02*
D03*
X596500Y116000D02*
D03*
X601500Y144000D02*
D03*
X505000Y220000D02*
D03*
X309000Y93500D02*
D03*
X430500Y103500D02*
D03*
X286500Y152000D02*
D03*
X347488Y220489D02*
D03*
X351500Y202500D02*
D03*
Y190000D02*
D03*
Y177500D02*
D03*
X313000Y176000D02*
D03*
X250500Y60000D02*
D03*
X338500Y92500D02*
D03*
X296500Y40000D02*
D03*
X280500Y43500D02*
D03*
X312500Y26000D02*
D03*
X310000D02*
D03*
X307500D02*
D03*
X305000D02*
D03*
X302500D02*
D03*
X300000D02*
D03*
X297500D02*
D03*
X310000Y28500D02*
D03*
X305000D02*
D03*
X300000D02*
D03*
X297500D02*
D03*
X302500D02*
D03*
X312500D02*
D03*
X307500D02*
D03*
X283500Y9500D02*
D03*
X217000Y36500D02*
D03*
X218000Y89000D02*
D03*
X185000Y161500D02*
D03*
X204548Y149000D02*
D03*
X38500Y349000D02*
D03*
X10000Y323000D02*
D03*
X107500Y107000D02*
D03*
X116500Y92500D02*
D03*
X51500Y79000D02*
D03*
X574500Y244000D02*
D03*
X517500Y245500D02*
D03*
X546000Y250000D02*
D03*
X473500Y161000D02*
D03*
X447500Y140500D02*
D03*
X522000Y167000D02*
D03*
X459500Y212500D02*
D03*
X446000Y125000D02*
D03*
X425000Y141000D02*
D03*
X426500Y87500D02*
D03*
X448000Y92500D02*
D03*
X531500Y122500D02*
D03*
X595000Y86500D02*
D03*
X616000Y92000D02*
D03*
X648500Y147000D02*
D03*
X641500Y100000D02*
D03*
X668000Y94500D02*
D03*
X658500Y220000D02*
D03*
X684000Y274000D02*
D03*
X540500Y309000D02*
D03*
X306098Y86781D02*
D03*
X234500Y102000D02*
D03*
X241500Y121000D02*
D03*
X171500Y73000D02*
D03*
X75000Y114300D02*
D03*
X208000Y144000D02*
D03*
X182500Y86000D02*
D03*
X186500Y91500D02*
D03*
X187500Y97000D02*
D03*
X74500Y96000D02*
D03*
X86000Y92500D02*
D03*
X102500Y93000D02*
D03*
X97000D02*
D03*
X91000D02*
D03*
X80189Y92712D02*
D03*
X98500Y59500D02*
D03*
X92000D02*
D03*
X105000D02*
D03*
X72500Y60000D02*
D03*
X85500Y59500D02*
D03*
X79000Y60000D02*
D03*
X178000Y80000D02*
D03*
X238500Y108000D02*
D03*
X405500Y271500D02*
D03*
X194500Y100500D02*
D03*
X696000Y190500D02*
D03*
X679500Y168000D02*
D03*
X629000Y387000D02*
D03*
X29500Y333500D02*
D03*
X272000Y182500D02*
D03*
X417000Y90500D02*
D03*
X321000Y14000D02*
D03*
X289500D02*
D03*
X285000Y83500D02*
D03*
X303000Y56000D02*
D03*
X262500Y11500D02*
D03*
X207000Y82000D02*
D03*
X173500Y152500D02*
D03*
X204000Y161500D02*
D03*
X37000Y114500D02*
D03*
X45000Y101500D02*
D03*
X11500Y103000D02*
D03*
X51500Y48500D02*
D03*
X21500Y53500D02*
D03*
X8500Y427500D02*
D03*
M02*
