G04*
G04 #@! TF.GenerationSoftware,Altium Limited,Altium Designer,22.1.2 (22)*
G04*
G04 Layer_Color=8388736*
%FSLAX25Y25*%
%MOIN*%
G70*
G04*
G04 #@! TF.SameCoordinates,1A32ED5E-F4BE-4E84-8868-A45DA14C1EED*
G04*
G04*
G04 #@! TF.FilePolarity,Negative*
G04*
G01*
G75*
%ADD14C,0.00800*%
%ADD47R,0.01063X0.06084*%
%ADD60R,0.20485X0.20485*%
%ADD61C,0.03162*%
%ADD62R,0.06312X0.05524*%
%ADD63R,0.04343X0.04147*%
%ADD64O,0.07887X0.01981*%
%ADD65O,0.01981X0.07887*%
%ADD66R,0.07887X0.03556*%
%ADD67R,0.09461X0.08800*%
%ADD68R,0.06312X0.07099*%
%ADD69R,0.03800X0.03800*%
%ADD70R,0.05918X0.03162*%
%ADD71R,0.03400X0.05524*%
%ADD72R,0.03400X0.09068*%
%ADD73O,0.07887X0.13300*%
%ADD74R,0.04147X0.04343*%
%ADD75O,0.03162X0.09461*%
%ADD76C,0.07099*%
%ADD77O,0.02178X0.07099*%
%ADD78R,0.02178X0.07099*%
%ADD79R,0.03800X0.03800*%
%ADD80R,0.08674X0.06706*%
%ADD81R,0.11036X0.06706*%
%ADD82O,0.03200X0.08800*%
%ADD83O,0.08674X0.02965*%
%ADD84R,0.11201X0.06500*%
%ADD85R,0.10642X0.09461*%
%ADD86R,0.03162X0.02769*%
%ADD87R,0.05524X0.06312*%
%ADD88R,0.05524X0.05918*%
%ADD89R,0.05524X0.06706*%
G04:AMPARAMS|DCode=90|XSize=63mil|YSize=58mil|CornerRadius=0mil|HoleSize=0mil|Usage=FLASHONLY|Rotation=0.000|XOffset=0mil|YOffset=0mil|HoleType=Round|Shape=Octagon|*
%AMOCTAGOND90*
4,1,8,0.03150,-0.01450,0.03150,0.01450,0.01700,0.02900,-0.01700,0.02900,-0.03150,0.01450,-0.03150,-0.01450,-0.01700,-0.02900,0.01700,-0.02900,0.03150,-0.01450,0.0*
%
%ADD90OCTAGOND90*%

%ADD91R,0.06300X0.05800*%
%ADD92R,0.05328X0.01981*%
%ADD93R,0.05320X0.01980*%
%ADD94R,0.02769X0.03162*%
%ADD95R,0.09461X0.07887*%
%ADD96R,0.05918X0.01981*%
%ADD97C,0.07887*%
%ADD98R,0.07890X0.07880*%
%ADD99C,0.08674*%
%ADD100C,0.06400*%
%ADD101C,0.07000*%
%ADD102C,0.04737*%
%ADD103C,0.06800*%
%ADD104R,0.07887X0.07887*%
%ADD105C,0.07887*%
%ADD106R,0.07493X0.07493*%
%ADD107C,0.07493*%
%ADD108R,0.07493X0.07493*%
%ADD109C,0.30800*%
%ADD110C,0.04800*%
%ADD111C,0.05600*%
%ADD112C,0.13792*%
%ADD113C,0.06000*%
%ADD114R,0.06000X0.06000*%
%ADD115C,0.11036*%
%ADD116O,0.09855X0.05524*%
%ADD117O,0.08674X0.05524*%
%ADD118C,0.03753*%
%ADD119R,0.07099X0.07099*%
G36*
X706633Y377196D02*
X707196Y376633D01*
X707500Y375898D01*
Y375500D01*
Y374000D01*
X703500D01*
Y375500D01*
Y375898D01*
X703804Y376633D01*
X704367Y377196D01*
X705102Y377500D01*
X705898D01*
X706633Y377196D01*
D02*
G37*
G36*
X707500Y370500D02*
Y370102D01*
X707196Y369367D01*
X706633Y368805D01*
X705898Y368500D01*
X705102D01*
X704367Y368805D01*
X703804Y369367D01*
X703500Y370102D01*
Y370500D01*
Y372000D01*
X707500D01*
Y370500D01*
D02*
G37*
G36*
X376633Y113696D02*
X377196Y113133D01*
X377500Y112398D01*
Y112000D01*
Y110500D01*
X373500D01*
Y112000D01*
Y112398D01*
X373804Y113133D01*
X374367Y113696D01*
X375102Y114000D01*
X375898D01*
X376633Y113696D01*
D02*
G37*
G36*
X377500Y107000D02*
Y106602D01*
X377196Y105867D01*
X376633Y105305D01*
X375898Y105000D01*
X375102D01*
X374367Y105305D01*
X373804Y105867D01*
X373500Y106602D01*
Y107000D01*
Y108500D01*
X377500D01*
Y107000D01*
D02*
G37*
G36*
X385633Y96696D02*
X386195Y96133D01*
X386500Y95398D01*
Y95000D01*
Y93500D01*
X382500D01*
Y95000D01*
Y95398D01*
X382804Y96133D01*
X383367Y96696D01*
X384102Y97000D01*
X384898D01*
X385633Y96696D01*
D02*
G37*
G36*
X386500Y90000D02*
Y89602D01*
X386195Y88867D01*
X385633Y88305D01*
X384898Y88000D01*
X384102D01*
X383367Y88305D01*
X382804Y88867D01*
X382500Y89602D01*
Y90000D01*
Y91500D01*
X386500D01*
Y90000D01*
D02*
G37*
D14*
X703500Y370500D02*
G03*
X707500Y370500I2000J0D01*
G01*
Y375500D02*
G03*
X703500Y375500I-2000J0D01*
G01*
X373500Y107000D02*
G03*
X377500Y107000I2000J0D01*
G01*
Y112000D02*
G03*
X373500Y112000I-2000J0D01*
G01*
X386500Y95000D02*
G03*
X382500Y95000I-2000J0D01*
G01*
Y90000D02*
G03*
X386500Y90000I2000J0D01*
G01*
X703500Y370500D02*
Y372000D01*
X707500Y370500D02*
Y372000D01*
X703500D02*
X707500D01*
Y374000D02*
Y375500D01*
X703500Y374000D02*
Y375500D01*
Y374000D02*
X707500D01*
X373500Y107000D02*
Y108500D01*
X377500Y107000D02*
Y108500D01*
X373500D02*
X377500D01*
Y110500D02*
Y112000D01*
X373500Y110500D02*
Y112000D01*
Y110500D02*
X377500D01*
X382500Y93500D02*
X386500D01*
X382500D02*
Y95000D01*
X386500Y93500D02*
Y95000D01*
X382500Y91500D02*
X386500D01*
Y90000D02*
Y91500D01*
X382500Y90000D02*
Y91500D01*
D47*
X442398Y124953D02*
D03*
X440429D02*
D03*
X438461D02*
D03*
X436492D02*
D03*
X434524D02*
D03*
X432555D02*
D03*
X430587D02*
D03*
X428618D02*
D03*
X428618Y108346D02*
D03*
X430587D02*
D03*
X432555D02*
D03*
X434524D02*
D03*
X436492D02*
D03*
X438461D02*
D03*
X440429D02*
D03*
X442398D02*
D03*
D60*
X326772Y269075D02*
D03*
Y449431D02*
D03*
X212598Y269075D02*
D03*
Y449431D02*
D03*
X98425Y269075D02*
D03*
Y449431D02*
D03*
D61*
X705500Y370500D02*
D03*
Y375500D02*
D03*
X375500Y107000D02*
D03*
Y112000D02*
D03*
X384500Y95000D02*
D03*
Y90000D02*
D03*
X752996Y128937D02*
D03*
Y343504D02*
D03*
D62*
X320866Y7087D02*
D03*
Y20472D02*
D03*
X289370Y7087D02*
D03*
Y20472D02*
D03*
X59055Y105905D02*
D03*
X303000Y62693D02*
D03*
Y49307D02*
D03*
D63*
X292225Y87000D02*
D03*
X298327D02*
D03*
X681988Y174500D02*
D03*
X688090D02*
D03*
X666240Y168000D02*
D03*
X672342D02*
D03*
X672343Y174500D02*
D03*
X666241D02*
D03*
X672343Y195500D02*
D03*
X666241D02*
D03*
X666240Y202000D02*
D03*
X672342D02*
D03*
X315551Y35500D02*
D03*
X309449D02*
D03*
X688090Y195500D02*
D03*
X681988D02*
D03*
X535846Y101969D02*
D03*
X541948D02*
D03*
X555727D02*
D03*
X549624D02*
D03*
X656795Y138008D02*
D03*
X662897D02*
D03*
X647936D02*
D03*
X641833D02*
D03*
X647936Y94701D02*
D03*
X641833D02*
D03*
X662896D02*
D03*
X656794D02*
D03*
X412003Y72327D02*
D03*
X418106D02*
D03*
X38552Y354000D02*
D03*
X32449D02*
D03*
X29552Y320500D02*
D03*
X23449D02*
D03*
X510334Y167323D02*
D03*
X516437D02*
D03*
X518799Y210236D02*
D03*
X512697D02*
D03*
X499311D02*
D03*
X505413D02*
D03*
X118052Y26500D02*
D03*
X111949D02*
D03*
X672343Y282405D02*
D03*
X666241D02*
D03*
X666240Y231000D02*
D03*
X672342D02*
D03*
X666240Y237906D02*
D03*
X672342D02*
D03*
X666240Y224000D02*
D03*
X672342D02*
D03*
X666240Y253405D02*
D03*
X672342D02*
D03*
X666240Y246905D02*
D03*
X672342D02*
D03*
X579796Y297811D02*
D03*
X573693D02*
D03*
X565622D02*
D03*
X559520D02*
D03*
X520149D02*
D03*
X526252D02*
D03*
X540425D02*
D03*
X534323D02*
D03*
X414150Y137516D02*
D03*
X408048D02*
D03*
X400764D02*
D03*
X394662D02*
D03*
X198052Y161500D02*
D03*
X191949D02*
D03*
X59500Y37008D02*
D03*
X53398D02*
D03*
X40448D02*
D03*
X46551D02*
D03*
X307552Y70000D02*
D03*
X301449D02*
D03*
X341437Y172012D02*
D03*
X347539D02*
D03*
X341437Y184500D02*
D03*
X347539D02*
D03*
X341437Y196987D02*
D03*
X347539D02*
D03*
X341437Y209475D02*
D03*
X347539D02*
D03*
X312052Y109000D02*
D03*
X305949D02*
D03*
X312052Y115500D02*
D03*
X305949D02*
D03*
X318996Y98425D02*
D03*
X325098D02*
D03*
X306004D02*
D03*
X312106D02*
D03*
X207449Y89000D02*
D03*
X213551D02*
D03*
X207948Y106000D02*
D03*
X214051D02*
D03*
X219551Y149000D02*
D03*
X213449D02*
D03*
X213484Y155512D02*
D03*
X219586D02*
D03*
X292224D02*
D03*
X298326D02*
D03*
X298327Y149500D02*
D03*
X292225D02*
D03*
X268949Y24000D02*
D03*
X275051D02*
D03*
X298327Y80709D02*
D03*
X292225D02*
D03*
X197449Y40500D02*
D03*
X203552D02*
D03*
X110449Y73500D02*
D03*
X116551D02*
D03*
X110449Y60000D02*
D03*
X116551D02*
D03*
X110449Y66750D02*
D03*
X116551D02*
D03*
X44949Y114500D02*
D03*
X51051D02*
D03*
X116551Y87000D02*
D03*
X110449D02*
D03*
X116551Y80250D02*
D03*
X110449D02*
D03*
X8760Y413386D02*
D03*
X14863D02*
D03*
X30610D02*
D03*
X24508D02*
D03*
D64*
X226082Y94488D02*
D03*
Y96457D02*
D03*
Y98425D02*
D03*
Y100394D02*
D03*
Y102362D02*
D03*
Y104331D02*
D03*
Y106299D02*
D03*
Y108268D02*
D03*
Y110236D02*
D03*
Y112205D02*
D03*
Y114173D02*
D03*
Y116142D02*
D03*
Y118110D02*
D03*
Y120079D02*
D03*
Y122047D02*
D03*
Y124016D02*
D03*
Y125984D02*
D03*
Y127953D02*
D03*
Y129921D02*
D03*
Y131890D02*
D03*
Y133858D02*
D03*
Y135827D02*
D03*
Y137795D02*
D03*
Y139764D02*
D03*
Y141732D02*
D03*
X285731D02*
D03*
Y139764D02*
D03*
Y137795D02*
D03*
Y135827D02*
D03*
Y133858D02*
D03*
Y131890D02*
D03*
Y129921D02*
D03*
Y127953D02*
D03*
Y125984D02*
D03*
Y124016D02*
D03*
Y122047D02*
D03*
Y120079D02*
D03*
Y118110D02*
D03*
Y116142D02*
D03*
Y114173D02*
D03*
Y112205D02*
D03*
Y110236D02*
D03*
Y108268D02*
D03*
Y106299D02*
D03*
Y104331D02*
D03*
Y102362D02*
D03*
Y100394D02*
D03*
Y98425D02*
D03*
Y96457D02*
D03*
Y94488D02*
D03*
D65*
X232284Y147935D02*
D03*
X234253D02*
D03*
X236221D02*
D03*
X238190D02*
D03*
X240158D02*
D03*
X242127D02*
D03*
X244095D02*
D03*
X246064D02*
D03*
X248032D02*
D03*
X250001D02*
D03*
X251969D02*
D03*
X253938D02*
D03*
X255906D02*
D03*
X257875D02*
D03*
X259843D02*
D03*
X261812D02*
D03*
X263780D02*
D03*
X265749D02*
D03*
X267717D02*
D03*
X269686D02*
D03*
X271654D02*
D03*
X273623D02*
D03*
X275591D02*
D03*
X277560D02*
D03*
X279528D02*
D03*
Y88286D02*
D03*
X277560D02*
D03*
X275591D02*
D03*
X273623D02*
D03*
X271654D02*
D03*
X269686D02*
D03*
X267717D02*
D03*
X265749D02*
D03*
X263780D02*
D03*
X261812D02*
D03*
X259843D02*
D03*
X257875D02*
D03*
X255906D02*
D03*
X253938D02*
D03*
X251969D02*
D03*
X250001D02*
D03*
X248032D02*
D03*
X246064D02*
D03*
X244095D02*
D03*
X242127D02*
D03*
X240158D02*
D03*
X238190D02*
D03*
X236221D02*
D03*
X234253D02*
D03*
X232284D02*
D03*
D66*
X61524Y87795D02*
D03*
Y100787D02*
D03*
Y96457D02*
D03*
Y92126D02*
D03*
Y83465D02*
D03*
Y79134D02*
D03*
Y74803D02*
D03*
Y70473D02*
D03*
Y66142D02*
D03*
D67*
X21260Y105905D02*
D03*
Y44882D02*
D03*
D68*
X59055Y48031D02*
D03*
D69*
X711500Y204000D02*
D03*
X705500D02*
D03*
X303000Y35500D02*
D03*
X297000D02*
D03*
X425833Y72327D02*
D03*
X431833D02*
D03*
X341489Y177855D02*
D03*
X347488D02*
D03*
X341489Y190343D02*
D03*
X347488D02*
D03*
X341489Y202831D02*
D03*
X347488D02*
D03*
X341489Y215319D02*
D03*
X347488D02*
D03*
X59000Y114500D02*
D03*
X65000D02*
D03*
D70*
X680905Y187992D02*
D03*
Y180512D02*
D03*
X689173Y184252D02*
D03*
X665158Y187992D02*
D03*
Y180512D02*
D03*
X673425Y184252D02*
D03*
X665158Y215646D02*
D03*
Y208165D02*
D03*
X673425Y211906D02*
D03*
D71*
X299213Y6681D02*
D03*
X311024D02*
D03*
X293406Y57696D02*
D03*
X281594D02*
D03*
D72*
X305118Y8374D02*
D03*
X287500Y59389D02*
D03*
D73*
X305118Y17485D02*
D03*
X287500Y68500D02*
D03*
D74*
X531519Y127315D02*
D03*
Y133418D02*
D03*
X610794Y92315D02*
D03*
Y98418D02*
D03*
X587172Y98594D02*
D03*
Y92492D02*
D03*
X595046Y98594D02*
D03*
Y92492D02*
D03*
X602920Y92493D02*
D03*
Y98595D02*
D03*
X599957Y371161D02*
D03*
Y365059D02*
D03*
X620626Y371161D02*
D03*
Y365059D02*
D03*
X606847Y371161D02*
D03*
Y365059D02*
D03*
X613736Y371161D02*
D03*
Y365059D02*
D03*
X637232Y371161D02*
D03*
Y365059D02*
D03*
X481500Y189448D02*
D03*
Y195551D02*
D03*
X461833Y167552D02*
D03*
Y161449D02*
D03*
X468500Y167552D02*
D03*
Y161449D02*
D03*
X562500Y255981D02*
D03*
Y249878D02*
D03*
X513752Y249878D02*
D03*
Y255980D02*
D03*
X624000Y119948D02*
D03*
Y126051D02*
D03*
X455267Y161449D02*
D03*
Y167551D02*
D03*
X448500Y161449D02*
D03*
Y167551D02*
D03*
X37000Y296052D02*
D03*
Y289949D02*
D03*
X30500Y296052D02*
D03*
Y289949D02*
D03*
X578319Y255981D02*
D03*
Y249878D02*
D03*
X537374Y249878D02*
D03*
Y255980D02*
D03*
X570445Y249878D02*
D03*
Y255980D02*
D03*
X554500Y249878D02*
D03*
Y255980D02*
D03*
X529500Y255981D02*
D03*
Y249878D02*
D03*
X521626Y249878D02*
D03*
Y255980D02*
D03*
X403224Y90763D02*
D03*
Y96866D02*
D03*
X411098Y96867D02*
D03*
Y90764D02*
D03*
X443382Y140567D02*
D03*
Y134465D02*
D03*
X436295Y140567D02*
D03*
Y134465D02*
D03*
X429209Y140567D02*
D03*
Y134465D02*
D03*
Y93126D02*
D03*
Y99228D02*
D03*
X443382Y93126D02*
D03*
Y99228D02*
D03*
X436295Y93126D02*
D03*
Y99228D02*
D03*
X373000Y227552D02*
D03*
Y221449D02*
D03*
X366500Y227552D02*
D03*
Y221449D02*
D03*
X360000Y227552D02*
D03*
Y221449D02*
D03*
X379500Y227552D02*
D03*
Y221449D02*
D03*
X267717Y170177D02*
D03*
Y176279D02*
D03*
X261417Y170177D02*
D03*
Y176279D02*
D03*
X273000Y65948D02*
D03*
Y72051D02*
D03*
X258000Y55551D02*
D03*
Y49449D02*
D03*
X265000Y49448D02*
D03*
Y55551D02*
D03*
X240000Y57449D02*
D03*
Y63551D02*
D03*
X233000Y57449D02*
D03*
Y63551D02*
D03*
X250500Y72052D02*
D03*
Y65949D02*
D03*
X105000Y44449D02*
D03*
Y50551D02*
D03*
X98500Y44449D02*
D03*
Y50551D02*
D03*
X92000Y44449D02*
D03*
Y50551D02*
D03*
X85500Y44449D02*
D03*
Y50551D02*
D03*
X79000Y44449D02*
D03*
Y50551D02*
D03*
X72500Y44449D02*
D03*
Y50551D02*
D03*
D75*
X539270Y112780D02*
D03*
X544271D02*
D03*
X549270D02*
D03*
X554271D02*
D03*
X539270Y133677D02*
D03*
X544271D02*
D03*
X549270D02*
D03*
X554271D02*
D03*
X647227Y105906D02*
D03*
X652227D02*
D03*
X657227D02*
D03*
X662227D02*
D03*
X647227Y126803D02*
D03*
X652227D02*
D03*
X657227D02*
D03*
X662227D02*
D03*
X23000Y353449D02*
D03*
X18000D02*
D03*
X13000D02*
D03*
X8000D02*
D03*
X23000Y332551D02*
D03*
X18000D02*
D03*
X13000D02*
D03*
X8000D02*
D03*
X500374Y178528D02*
D03*
X505374D02*
D03*
X510374D02*
D03*
X515374D02*
D03*
X500374Y199425D02*
D03*
X505374D02*
D03*
X510374D02*
D03*
X515374D02*
D03*
X577500Y287787D02*
D03*
X572500D02*
D03*
X567500D02*
D03*
X562500D02*
D03*
X577500Y266890D02*
D03*
X572500D02*
D03*
X567500D02*
D03*
X562500D02*
D03*
D76*
X544833Y146182D02*
D03*
X621688Y146112D02*
D03*
X669291Y296000D02*
D03*
X490144Y209617D02*
D03*
X550500Y279000D02*
D03*
X510836Y297495D02*
D03*
X350206Y98425D02*
D03*
X501000Y166500D02*
D03*
X387000Y143500D02*
D03*
X90236Y17598D02*
D03*
X100236Y7598D02*
D03*
Y17598D02*
D03*
X110236Y7598D02*
D03*
Y17598D02*
D03*
X120236Y7598D02*
D03*
Y17598D02*
D03*
X130236Y7598D02*
D03*
Y17598D02*
D03*
D77*
X611877Y108732D02*
D03*
X609318D02*
D03*
X606759D02*
D03*
X604200D02*
D03*
X601641D02*
D03*
X599082D02*
D03*
X596523D02*
D03*
X593963D02*
D03*
Y137472D02*
D03*
X596523D02*
D03*
X599082D02*
D03*
X601641D02*
D03*
X604200D02*
D03*
X606759D02*
D03*
X609318D02*
D03*
X466528Y206972D02*
D03*
X463969D02*
D03*
X461409D02*
D03*
X458850D02*
D03*
X456291D02*
D03*
X453732D02*
D03*
X451173D02*
D03*
Y178232D02*
D03*
X453732D02*
D03*
X456291D02*
D03*
X458850D02*
D03*
X461410D02*
D03*
X463969D02*
D03*
X466528D02*
D03*
X469087D02*
D03*
D78*
X611877Y137472D02*
D03*
X469087Y206972D02*
D03*
D79*
X637232Y380858D02*
D03*
Y386858D02*
D03*
X37000Y309000D02*
D03*
Y303000D02*
D03*
X30500Y309000D02*
D03*
Y303000D02*
D03*
X311000Y51000D02*
D03*
Y57000D02*
D03*
X620626Y386858D02*
D03*
Y380858D02*
D03*
X613736Y386858D02*
D03*
Y380858D02*
D03*
X606847Y386858D02*
D03*
Y380858D02*
D03*
X599957Y386858D02*
D03*
Y380858D02*
D03*
D80*
X311007Y184579D02*
D03*
X279776Y184500D02*
D03*
X311007Y168079D02*
D03*
X279776Y168000D02*
D03*
X242143Y11733D02*
D03*
X273374Y11811D02*
D03*
D81*
X669291Y273811D02*
D03*
Y262000D02*
D03*
D82*
X537000Y288339D02*
D03*
X532000D02*
D03*
X527000D02*
D03*
X522000D02*
D03*
Y266339D02*
D03*
X527000D02*
D03*
X532000D02*
D03*
X537000D02*
D03*
X411512Y128437D02*
D03*
X406512D02*
D03*
X401512D02*
D03*
X396512D02*
D03*
Y106437D02*
D03*
X401512D02*
D03*
X406512D02*
D03*
X411512D02*
D03*
D83*
X395012Y312776D02*
D03*
Y307776D02*
D03*
Y302776D02*
D03*
Y297776D02*
D03*
Y292776D02*
D03*
Y287776D02*
D03*
Y282776D02*
D03*
Y277776D02*
D03*
X416112Y312776D02*
D03*
Y307776D02*
D03*
Y302776D02*
D03*
Y297776D02*
D03*
Y292776D02*
D03*
Y287776D02*
D03*
Y282776D02*
D03*
Y277776D02*
D03*
D84*
X435508Y116650D02*
D03*
D85*
X337992Y66929D02*
D03*
X319488D02*
D03*
X325394Y129921D02*
D03*
X343898D02*
D03*
X325394Y114173D02*
D03*
X343898D02*
D03*
X319488Y82677D02*
D03*
X337992D02*
D03*
D86*
X263032Y189500D02*
D03*
X266968D02*
D03*
X263032Y184000D02*
D03*
X266968D02*
D03*
X270031Y29500D02*
D03*
X273969D02*
D03*
D87*
X280307Y50000D02*
D03*
X293693D02*
D03*
D88*
X258154Y63366D02*
D03*
Y71634D02*
D03*
X264846D02*
D03*
Y63366D02*
D03*
D89*
X230008Y71500D02*
D03*
X243000D02*
D03*
D90*
X180750Y32000D02*
D03*
X197250D02*
D03*
D91*
X167250D02*
D03*
X210750D02*
D03*
D92*
X32184Y372638D02*
D03*
Y373819D02*
D03*
X32184Y375787D02*
D03*
Y376969D02*
D03*
X32184Y378937D02*
D03*
Y382874D02*
D03*
X32178Y384843D02*
D03*
X32184Y386811D02*
D03*
X32177Y388780D02*
D03*
X32186Y390748D02*
D03*
X32168Y394685D02*
D03*
Y395866D02*
D03*
X32178Y397835D02*
D03*
Y399016D02*
D03*
D93*
X32184Y380906D02*
D03*
X32184Y392716D02*
D03*
D94*
X102236Y107268D02*
D03*
Y103331D02*
D03*
X96724Y107268D02*
D03*
Y103331D02*
D03*
X91213Y107268D02*
D03*
Y103331D02*
D03*
X80189Y103331D02*
D03*
Y107268D02*
D03*
X85701Y103331D02*
D03*
Y107268D02*
D03*
X74677Y103331D02*
D03*
Y107268D02*
D03*
D95*
X170500Y162728D02*
D03*
X170500Y116272D02*
D03*
D96*
X180331Y140484D02*
D03*
Y142453D02*
D03*
Y156232D02*
D03*
Y154264D02*
D03*
Y152295D02*
D03*
Y150327D02*
D03*
Y148358D02*
D03*
Y146390D02*
D03*
Y144421D02*
D03*
Y138516D02*
D03*
Y136547D02*
D03*
Y134579D02*
D03*
Y132610D02*
D03*
Y130642D02*
D03*
Y128673D02*
D03*
Y126705D02*
D03*
Y124736D02*
D03*
Y122768D02*
D03*
D97*
X700608Y221220D02*
D03*
X717108Y226220D02*
D03*
X700608Y231221D02*
D03*
X717108Y236221D02*
D03*
X700608Y241220D02*
D03*
X717108Y246220D02*
D03*
D98*
X700207Y251220D02*
D03*
D99*
X368110Y91732D02*
D03*
X147638D02*
D03*
Y216535D02*
D03*
D100*
X362205Y39370D02*
D03*
X381890D02*
D03*
X362205Y19685D02*
D03*
X381890D02*
D03*
X541339D02*
D03*
X521654D02*
D03*
X541339Y39370D02*
D03*
X521654D02*
D03*
X592520Y19685D02*
D03*
X572835D02*
D03*
X592520Y39370D02*
D03*
X572835D02*
D03*
X669291Y448819D02*
D03*
X688976D02*
D03*
X669291Y429134D02*
D03*
X688976D02*
D03*
X574803D02*
D03*
X555118D02*
D03*
X574803Y448819D02*
D03*
X555118D02*
D03*
X523622Y429134D02*
D03*
X503937D02*
D03*
X523622Y448819D02*
D03*
X503937D02*
D03*
X472441Y429134D02*
D03*
X452756D02*
D03*
X472441Y448819D02*
D03*
X452756D02*
D03*
X421260Y429134D02*
D03*
X401575D02*
D03*
X421260Y448819D02*
D03*
X401575D02*
D03*
X700787Y19685D02*
D03*
X681102D02*
D03*
X700787Y39370D02*
D03*
X681102D02*
D03*
X649606Y19685D02*
D03*
X629921D02*
D03*
X649606Y39370D02*
D03*
X629921D02*
D03*
X484252Y19685D02*
D03*
X464567D02*
D03*
X484252Y39370D02*
D03*
X464567D02*
D03*
X433071Y19685D02*
D03*
X413386D02*
D03*
X433071Y39370D02*
D03*
X413386D02*
D03*
D101*
X532677Y164370D02*
D03*
Y213583D02*
D03*
X677168Y140961D02*
D03*
Y91748D02*
D03*
X570393Y139961D02*
D03*
Y90748D02*
D03*
X594461Y252732D02*
D03*
Y301945D02*
D03*
D102*
X19685Y94488D02*
D03*
Y62992D02*
D03*
D103*
X692913Y330709D02*
D03*
Y370709D02*
D03*
Y400709D02*
D03*
X662913D02*
D03*
Y370709D02*
D03*
Y330709D02*
D03*
X548740D02*
D03*
Y370709D02*
D03*
Y400709D02*
D03*
X578740D02*
D03*
Y370709D02*
D03*
Y330709D02*
D03*
X497559D02*
D03*
Y370709D02*
D03*
Y400709D02*
D03*
X527559D02*
D03*
Y370709D02*
D03*
Y330709D02*
D03*
X446378D02*
D03*
Y370709D02*
D03*
Y400709D02*
D03*
X476378D02*
D03*
Y370709D02*
D03*
Y330709D02*
D03*
X395197D02*
D03*
Y370709D02*
D03*
Y400709D02*
D03*
X425197D02*
D03*
Y370709D02*
D03*
Y330709D02*
D03*
X188976Y7874D02*
D03*
X208661Y21260D02*
D03*
X169291D02*
D03*
D104*
X446850Y285433D02*
D03*
D105*
Y305118D02*
D03*
D106*
X384327Y127437D02*
D03*
D107*
Y117437D02*
D03*
Y107437D02*
D03*
X387890Y188634D02*
D03*
Y198634D02*
D03*
Y208634D02*
D03*
X357890Y178634D02*
D03*
Y188634D02*
D03*
Y198634D02*
D03*
Y208634D02*
D03*
D108*
X387890Y178634D02*
D03*
D109*
X767717Y452756D02*
D03*
Y19685D02*
D03*
X20671Y19863D02*
D03*
X19685Y452756D02*
D03*
D110*
X757117D02*
D03*
X762417Y443576D02*
D03*
X773017D02*
D03*
X778316Y452756D02*
D03*
X773017Y461936D02*
D03*
X762417D02*
D03*
X757117Y19685D02*
D03*
X762417Y10505D02*
D03*
X773017D02*
D03*
X778316Y19685D02*
D03*
X773017Y28865D02*
D03*
X762417D02*
D03*
X10071Y19863D02*
D03*
X15371Y10683D02*
D03*
X25971D02*
D03*
X31271Y19863D02*
D03*
X25971Y29043D02*
D03*
X15371D02*
D03*
X9085Y452756D02*
D03*
X14385Y443576D02*
D03*
X24985D02*
D03*
X30285Y452756D02*
D03*
X24985Y461936D02*
D03*
X14385D02*
D03*
D111*
X105002Y161430D02*
D03*
X115002Y173430D02*
D03*
Y165430D02*
D03*
X105002Y153430D02*
D03*
X105002Y177430D02*
D03*
D112*
X44921Y132480D02*
D03*
Y182480D02*
D03*
D113*
X115002Y181430D02*
D03*
Y133430D02*
D03*
Y141430D02*
D03*
Y149430D02*
D03*
X105002Y145430D02*
D03*
X105002Y169430D02*
D03*
D114*
X105002Y137430D02*
D03*
D115*
X32402Y189232D02*
D03*
Y125680D02*
D03*
D116*
X29035Y403544D02*
D03*
X29035Y368111D02*
D03*
D117*
X12696Y368110D02*
D03*
X12696Y403543D02*
D03*
D118*
X27066Y374448D02*
D03*
Y397204D02*
D03*
D119*
X90236Y7598D02*
D03*
M02*
