M48
;Layer_Color=9474304
;FILE_FORMAT=2:5
INCH,LZ
;TYPE=PLATED
T1F00S00C0.01200
T4F00S00C0.03200
T5F00S00C0.03543
T6F00S00C0.03937
T7F00S00C0.04000
T9F00S00C0.04400
T10F00S00C0.04800
T11F00S00C0.05906
T12F00S00C0.12500
T13F00S00C0.12598
T14F00S00C0.12992
;TYPE=NON_PLATED
T15F00S00C0.02953
T16F00S00C0.03937
T17F00S00C0.07874
T18F00S00C0.12205
%
T01
X00215Y00535
X00515Y00485
Y0079
X0045Y01015
X0037Y01145
X00115Y0103
X00745Y0096
X0080189Y0092712
X0086Y00925
X0091Y0093
X0097
X01025
X01165Y00925
X01075Y0107
X0075Y01143
X00725Y006
X0079
X00855Y00595
X0092
X00985
X0105
X01715Y0073
X0178Y008
X01825Y0086
X01865Y00915
X01875Y0097
X01945Y01005
X0207Y0082
X0214
X0218Y0089
X0204Y0074
X01995Y0071
X0196Y00672
X01915Y00645
X0187Y00615
X0204Y00453
X0217Y00365
X024Y00532
X02505Y006
X0249Y00785
X02665Y0081
X0285Y00835
X0292225Y0090888
X0294Y0075
X0306098Y0086781
X0309Y00935
X0306Y01035
X0309Y0121
X0296901Y0146598
X02865Y0152
X02765Y01
X02435Y00962
X0239Y0099
X02345Y0102
X02385Y0108
Y0113
X02415Y0121
X0208Y0144
X0204548Y0149
X01735Y01525
X0274Y00605
X02695Y00515
X02805Y00435
X02965Y004
X02975Y00285
Y0026
X03
X03025
X0305
X03075
X031
Y00285
X03075
X0305
X03025
X03
X0308Y0045
X03105
X0303Y0056
X02895Y0014
X02835Y00095
X02625Y00115
X0321Y0014
X03125Y0026
Y00285
X0313Y0045
X03205
X0323
X03255
X03535Y00705
X03665Y008
X03385Y00925
X0335341Y0109659
X031739Y012911
X0356Y014
Y0147
X03945Y01475
X0401Y01425
X0392Y0132
X04325Y01305
X0425Y0141
X04475Y01405
X0446Y0156
Y0125
X04465Y0105
X0448Y00925
X04265Y00875
X0417Y00905
X04165Y0101
X0425Y01085
X04305Y01035
X05305Y0102
X0534Y0113
X05315Y01225
Y01385
X05425Y00915
X0595Y00865
X05985Y00965
X0616Y0099
Y0092
X05965Y0116
X0599Y01305
X06015Y0144
X06485Y0147
X06415Y013
X06525Y01195
X06415Y01
X06565Y00845
X0668Y00945
X06795Y0168
X0677Y01915
X0696Y01905
X06595Y0188
X06495Y01705
X06585Y022
X06775Y02185
Y02245
X0679Y02325
X0684Y0247
Y0274
X05705Y02605
X05745Y0244
X0546Y025
X05425Y0267
X0557Y02915
X0566Y0308
X0585Y0304
X05405Y0309
X0527Y03085
X0515Y0307
X0510836Y0286664
X05175Y02455
X0505Y022
X0496Y0205
X0495Y01785
X04735Y0169
Y0161
X0484Y01575
X051Y01615
X0522Y0167
X0583291Y0160102
X0454Y0172
X0447Y018
X0454Y01902
X0462Y0186
X0459Y01975
X04595Y02125
X04665Y02145
X04575Y02215
X0459182Y0227
X04505
X04385Y016
X03515Y01775
Y019
Y02025
X0347488Y0220489
X03475Y02615
X0345
Y0264
Y02665
Y0269
Y02715
Y0274
Y02765
X03475
Y0274
Y02715
Y0269
Y02665
Y0264
X035
Y02615
Y02665
Y0269
Y02715
Y0274
Y02765
X04055Y02715
X0313Y0176
X0272Y01825
X0204Y01615
X0185
X00235Y0287
X001Y0323
X00295Y03335
X00385Y0349
X00085Y04275
X0343Y0446
X03455
Y04485
X0348
X03505
Y0451
Y04535
X0353
Y0451
Y04485
Y0446
X03505
X0348
Y0451
X03455
Y04535
Y0456
X0348
X03505
X0353
X0348Y04535
X0343
Y0451
Y04485
Y0456
X0629Y0387
T04
X0105002Y013743
Y014543
Y015343
X0115002Y014943
Y014143
Y013343
Y016543
Y017343
Y018143
X0105002Y017743
Y016943
Y016143
T05
X0090236Y0007598
Y0017598
X0100236
Y0007598
X0110236
Y0017598
X0120236
Y0007598
X0130236
Y0017598
X0384327Y0107437
Y0117437
Y0127437
X0570393Y0139961
Y0090748
X0677168Y0091748
Y0140961
X0532677Y016437
Y0213583
X0594461Y0252732
Y0301945
X044685Y0305118
Y0285433
X038789Y0208634
Y0198634
Y0188634
Y0178634
X035789
Y0188634
Y0198634
Y0208634
T06
X0169291Y002126
X0188976Y0007874
X0208661Y002126
T07
X0015371Y0010683
X0025971
X0031271Y0019863
X0025971Y0029043
X0015371
X0010071Y0019863
X0757117Y0019685
X0762417Y0010505
X0773017
X0778316Y0019685
X0773017Y0028865
X0762417
X0024985Y0443576
X0014385
X0009085Y0452756
X0014385Y0461936
X0024985
X0030285Y0452756
X0757117
X0762417Y0443576
X0773017
X0778316Y0452756
X0773017Y0461936
X0762417
T09
X0362205Y0019685
Y003937
X038189
Y0019685
X0413386
X0433071
Y003937
X0413386
X0464567
Y0019685
X0484252
Y003937
X0521654
Y0019685
X0541339
Y003937
X0572835
Y0019685
X059252
Y003937
X0629921
Y0019685
X0649606
Y003937
X0681102
Y0019685
X0700787
Y003937
X0452756Y0429134
Y0448819
X042126
Y0429134
X0401575
Y0448819
X0472441
Y0429134
X0503937
X0523622
Y0448819
X0503937
X0555118
Y0429134
X0574803
Y0448819
X0669291
X0688976
Y0429134
X0669291
T10
X0395197Y0330709
X0425197
X0446378
Y0370709
X0425197
X0395197
Y0400709
X0425197
X0446378
X0476378
X0497559
Y0370709
X0476378
Y0330709
X0497559
X0527559
X054874
X057874
Y0370709
X054874
X0527559
Y0400709
X054874
X057874
X0662913
X0692913
Y0370709
X0662913
Y0330709
X0692913
T11
X0032402Y012568
Y0189232
T12
X0020671Y0019863
X0767717Y0019685
X0019685Y0452756
X0767717
T13
X0059449Y0390354
X0137402Y0318307
X0173622Y0390354
X0287795
X0251575Y0318307
X0365748
T14
X0044921Y013248
Y018248
T15
X0027066Y0374448
Y0397204
T16
X0019685Y0062992
Y0094488
T17
X0147638Y0091732
X036811
X0147638Y0216535
T18
X0752996Y0128937
Y0343504
M30
