G04*
G04 #@! TF.GenerationSoftware,Altium Limited,Altium Designer,22.1.2 (22)*
G04*
G04 Layer_Color=128*
%FSLAX25Y25*%
%MOIN*%
G70*
G04*
G04 #@! TF.SameCoordinates,1A32ED5E-F4BE-4E84-8868-A45DA14C1EED*
G04*
G04*
G04 #@! TF.FilePolarity,Positive*
G04*
G01*
G75*
%ADD147C,0.00200*%
D147*
X698442Y221220D02*
X702773D01*
X700608Y219055D02*
Y223386D01*
X714942Y226220D02*
X719273D01*
X717108Y224055D02*
Y228386D01*
X698442Y231221D02*
X702773D01*
X700608Y229055D02*
Y233386D01*
X714942Y236221D02*
X719273D01*
X717108Y234055D02*
Y238386D01*
X698442Y241220D02*
X702773D01*
X700608Y239055D02*
Y243386D01*
X714942Y246220D02*
X719273D01*
X717108Y244055D02*
Y248386D01*
X698042Y251220D02*
X702373D01*
X700207Y249055D02*
Y253386D01*
X746894Y128937D02*
X759098D01*
X752996Y122835D02*
Y135039D01*
X746894Y343504D02*
X759098D01*
X752996Y337402D02*
Y349606D01*
X364173Y91732D02*
X372047D01*
X368110Y87795D02*
Y95669D01*
X143701Y91732D02*
X151575D01*
X147638Y87795D02*
Y95669D01*
X143701Y216535D02*
X151575D01*
X147638Y212598D02*
Y220472D01*
X360005Y39370D02*
X364405D01*
X362205Y37170D02*
Y41570D01*
X379690Y39370D02*
X384090D01*
X381890Y37170D02*
Y41570D01*
X360005Y19685D02*
X364405D01*
X362205Y17485D02*
Y21885D01*
X379690Y19685D02*
X384090D01*
X381890Y17485D02*
Y21885D01*
X530905Y164370D02*
X534449D01*
X532677Y162598D02*
Y166142D01*
X530905Y213583D02*
X534449D01*
X532677Y211811D02*
Y215354D01*
X539139Y19685D02*
X543539D01*
X541339Y17485D02*
Y21885D01*
X519453Y19685D02*
X523853D01*
X521654Y17485D02*
Y21885D01*
X539139Y39370D02*
X543539D01*
X541339Y37170D02*
Y41570D01*
X519453Y39370D02*
X523853D01*
X521654Y37170D02*
Y41570D01*
X590320Y19685D02*
X594720D01*
X592520Y17485D02*
Y21885D01*
X570635Y19685D02*
X575035D01*
X572835Y17485D02*
Y21885D01*
X590320Y39370D02*
X594720D01*
X592520Y37170D02*
Y41570D01*
X570635Y39370D02*
X575035D01*
X572835Y37170D02*
Y41570D01*
X17717Y94488D02*
X21654D01*
X19685Y92520D02*
Y96457D01*
X17717Y62992D02*
X21654D01*
X19685Y61024D02*
Y64961D01*
X675396Y140961D02*
X678940D01*
X677168Y139189D02*
Y142732D01*
X675396Y91748D02*
X678940D01*
X677168Y89976D02*
Y93520D01*
X568621Y139961D02*
X572164D01*
X570393Y138189D02*
Y141732D01*
X568621Y90748D02*
X572164D01*
X570393Y88976D02*
Y92520D01*
X667091Y448819D02*
X671491D01*
X669291Y446619D02*
Y451019D01*
X686776Y448819D02*
X691176D01*
X688976Y446619D02*
Y451019D01*
X667091Y429134D02*
X671491D01*
X669291Y426934D02*
Y431334D01*
X686776Y429134D02*
X691176D01*
X688976Y426934D02*
Y431334D01*
X690513Y330709D02*
X695313D01*
X692913Y328309D02*
Y333109D01*
X690513Y370709D02*
X695313D01*
X692913Y368309D02*
Y373109D01*
X690513Y400709D02*
X695313D01*
X692913Y398309D02*
Y403109D01*
X660513Y400709D02*
X665313D01*
X662913Y398309D02*
Y403109D01*
X660513Y370709D02*
X665313D01*
X662913Y368309D02*
Y373109D01*
X660513Y330709D02*
X665313D01*
X662913Y328309D02*
Y333109D01*
X572603Y429134D02*
X577003D01*
X574803Y426934D02*
Y431334D01*
X552918Y429134D02*
X557318D01*
X555118Y426934D02*
Y431334D01*
X572603Y448819D02*
X577003D01*
X574803Y446619D02*
Y451019D01*
X552918Y448819D02*
X557318D01*
X555118Y446619D02*
Y451019D01*
X521422Y429134D02*
X525822D01*
X523622Y426934D02*
Y431334D01*
X501737Y429134D02*
X506137D01*
X503937Y426934D02*
Y431334D01*
X521422Y448819D02*
X525822D01*
X523622Y446619D02*
Y451019D01*
X501737Y448819D02*
X506137D01*
X503937Y446619D02*
Y451019D01*
X470241Y429134D02*
X474641D01*
X472441Y426934D02*
Y431334D01*
X450556Y429134D02*
X454956D01*
X452756Y426934D02*
Y431334D01*
X470241Y448819D02*
X474641D01*
X472441Y446619D02*
Y451019D01*
X450556Y448819D02*
X454956D01*
X452756Y446619D02*
Y451019D01*
X419060Y429134D02*
X423460D01*
X421260Y426934D02*
Y431334D01*
X399375Y429134D02*
X403775D01*
X401575Y426934D02*
Y431334D01*
X419060Y448819D02*
X423460D01*
X421260Y446619D02*
Y451019D01*
X399375Y448819D02*
X403775D01*
X401575Y446619D02*
Y451019D01*
X546340Y330709D02*
X551140D01*
X548740Y328309D02*
Y333109D01*
X546340Y370709D02*
X551140D01*
X548740Y368309D02*
Y373109D01*
X546340Y400709D02*
X551140D01*
X548740Y398309D02*
Y403109D01*
X576340Y400709D02*
X581140D01*
X578740Y398309D02*
Y403109D01*
X576340Y370709D02*
X581140D01*
X578740Y368309D02*
Y373109D01*
X576340Y330709D02*
X581140D01*
X578740Y328309D02*
Y333109D01*
X495159Y330709D02*
X499959D01*
X497559Y328309D02*
Y333109D01*
X495159Y370709D02*
X499959D01*
X497559Y368309D02*
Y373109D01*
X495159Y400709D02*
X499959D01*
X497559Y398309D02*
Y403109D01*
X525159Y400709D02*
X529959D01*
X527559Y398309D02*
Y403109D01*
X525159Y370709D02*
X529959D01*
X527559Y368309D02*
Y373109D01*
X525159Y330709D02*
X529959D01*
X527559Y328309D02*
Y333109D01*
X443978Y330709D02*
X448778D01*
X446378Y328309D02*
Y333109D01*
X443978Y370709D02*
X448778D01*
X446378Y368309D02*
Y373109D01*
X443978Y400709D02*
X448778D01*
X446378Y398309D02*
Y403109D01*
X473978Y400709D02*
X478778D01*
X476378Y398309D02*
Y403109D01*
X473978Y370709D02*
X478778D01*
X476378Y368309D02*
Y373109D01*
X473978Y330709D02*
X478778D01*
X476378Y328309D02*
Y333109D01*
X392797Y330709D02*
X397597D01*
X395197Y328309D02*
Y333109D01*
X392797Y370709D02*
X397597D01*
X395197Y368309D02*
Y373109D01*
X392797Y400709D02*
X397597D01*
X395197Y398309D02*
Y403109D01*
X422797Y400709D02*
X427597D01*
X425197Y398309D02*
Y403109D01*
X422797Y370709D02*
X427597D01*
X425197Y368309D02*
Y373109D01*
X422797Y330709D02*
X427597D01*
X425197Y328309D02*
Y333109D01*
X592689Y252732D02*
X596232D01*
X594461Y250961D02*
Y254504D01*
X592689Y301945D02*
X596232D01*
X594461Y300173D02*
Y303716D01*
X445079Y285433D02*
X448622D01*
X446850Y283661D02*
Y287205D01*
X445079Y305118D02*
X448622D01*
X446850Y303346D02*
Y306890D01*
X382555Y127437D02*
X386098D01*
X384327Y125665D02*
Y129209D01*
X382555Y117437D02*
X386098D01*
X384327Y115665D02*
Y119209D01*
X382555Y107437D02*
X386098D01*
X384327Y105665D02*
Y109209D01*
X386118Y178634D02*
X389661D01*
X387890Y176862D02*
Y180405D01*
X386118Y188634D02*
X389661D01*
X387890Y186862D02*
Y190405D01*
X386118Y198634D02*
X389661D01*
X387890Y196862D02*
Y200406D01*
X386118Y208634D02*
X389661D01*
X387890Y206862D02*
Y210405D01*
X356118Y178634D02*
X359661D01*
X357890Y176862D02*
Y180405D01*
X356118Y188634D02*
X359661D01*
X357890Y186862D02*
Y190405D01*
X356118Y198634D02*
X359661D01*
X357890Y196862D02*
Y200406D01*
X356118Y208634D02*
X359661D01*
X357890Y206862D02*
Y210405D01*
X698587Y19685D02*
X702987D01*
X700787Y17485D02*
Y21885D01*
X678902Y19685D02*
X683302D01*
X681102Y17485D02*
Y21885D01*
X698587Y39370D02*
X702987D01*
X700787Y37170D02*
Y41570D01*
X678902Y39370D02*
X683302D01*
X681102Y37170D02*
Y41570D01*
X647406Y19685D02*
X651806D01*
X649606Y17485D02*
Y21885D01*
X627721Y19685D02*
X632121D01*
X629921Y17485D02*
Y21885D01*
X647406Y39370D02*
X651806D01*
X649606Y37170D02*
Y41570D01*
X627721Y39370D02*
X632121D01*
X629921Y37170D02*
Y41570D01*
X482052Y19685D02*
X486452D01*
X484252Y17485D02*
Y21885D01*
X462367Y19685D02*
X466767D01*
X464567Y17485D02*
Y21885D01*
X482052Y39370D02*
X486452D01*
X484252Y37170D02*
Y41570D01*
X462367Y39370D02*
X466767D01*
X464567Y37170D02*
Y41570D01*
X430871Y19685D02*
X435271D01*
X433071Y17485D02*
Y21885D01*
X411186Y19685D02*
X415586D01*
X413386Y17485D02*
Y21885D01*
X430871Y39370D02*
X435271D01*
X433071Y37170D02*
Y41570D01*
X411186Y39370D02*
X415586D01*
X413386Y37170D02*
Y41570D01*
X761467Y452756D02*
X773967D01*
X767717Y446506D02*
Y459006D01*
X755117Y452756D02*
X759117D01*
X757117Y450756D02*
Y454756D01*
X760417Y443576D02*
X764417D01*
X762417Y441576D02*
Y445576D01*
X771017Y443576D02*
X775016D01*
X773017Y441576D02*
Y445576D01*
X776316Y452756D02*
X780316D01*
X778316Y450756D02*
Y454756D01*
X771017Y461936D02*
X775016D01*
X773017Y459936D02*
Y463936D01*
X760417Y461936D02*
X764417D01*
X762417Y459936D02*
Y463936D01*
X103402Y161430D02*
X106602D01*
X105002Y159830D02*
Y163030D01*
X38425Y132480D02*
X51417D01*
X44921Y125984D02*
Y138976D01*
X38425Y182480D02*
X51417D01*
X44921Y175984D02*
Y188976D01*
X113402Y181430D02*
X116602D01*
X115002Y179830D02*
Y183030D01*
X113402Y133430D02*
X116602D01*
X115002Y131830D02*
Y135030D01*
X113402Y141430D02*
X116602D01*
X115002Y139830D02*
Y143030D01*
X113402Y173430D02*
X116602D01*
X115002Y171830D02*
Y175030D01*
X113402Y165430D02*
X116602D01*
X115002Y163830D02*
Y167030D01*
X113402Y149430D02*
X116602D01*
X115002Y147830D02*
Y151030D01*
X103402Y153430D02*
X106602D01*
X105002Y151830D02*
Y155030D01*
X103402Y137430D02*
X106602D01*
X105002Y135830D02*
Y139030D01*
X103402Y145430D02*
X106602D01*
X105002Y143830D02*
Y147030D01*
X103402Y169430D02*
X106602D01*
X105002Y167830D02*
Y171030D01*
X103402Y177430D02*
X106602D01*
X105002Y175830D02*
Y179030D01*
X29449Y189232D02*
X35354D01*
X32402Y186279D02*
Y192185D01*
X29449Y125680D02*
X35354D01*
X32402Y122728D02*
Y128633D01*
X27657Y403543D02*
X30413D01*
X29035Y402165D02*
Y404921D01*
X27657Y368110D02*
X30413D01*
X29035Y366732D02*
Y369488D01*
X11121Y368110D02*
X14271D01*
X12696Y366535D02*
Y369685D01*
X11121Y403543D02*
X14271D01*
X12696Y401969D02*
Y405118D01*
X25590Y374448D02*
X28543D01*
X27066Y372972D02*
Y375925D01*
X25590Y397204D02*
X28543D01*
X27066Y395728D02*
Y398681D01*
X88465Y7598D02*
X92008D01*
X90236Y5827D02*
Y9370D01*
X88465Y17598D02*
X92008D01*
X90236Y15827D02*
Y19370D01*
X98465Y7598D02*
X102008D01*
X100236Y5827D02*
Y9370D01*
X98465Y17598D02*
X102008D01*
X100236Y15827D02*
Y19370D01*
X108465Y7598D02*
X112008D01*
X110236Y5827D02*
Y9370D01*
X108465Y17598D02*
X112008D01*
X110236Y15827D02*
Y19370D01*
X118465Y7598D02*
X122008D01*
X120236Y5827D02*
Y9370D01*
X118465Y17598D02*
X122008D01*
X120236Y15827D02*
Y19370D01*
X128465Y7598D02*
X132008D01*
X130236Y5827D02*
Y9370D01*
X128465Y17598D02*
X132008D01*
X130236Y15827D02*
Y19370D01*
X761467Y19685D02*
X773967D01*
X767717Y13435D02*
Y25935D01*
X755117Y19685D02*
X759117D01*
X757117Y17685D02*
Y21685D01*
X760417Y10505D02*
X764417D01*
X762417Y8505D02*
Y12505D01*
X771017Y10505D02*
X775016D01*
X773017Y8505D02*
Y12505D01*
X776316Y19685D02*
X780316D01*
X778316Y17685D02*
Y21685D01*
X771017Y28865D02*
X775016D01*
X773017Y26865D02*
Y30865D01*
X760417Y28865D02*
X764417D01*
X762417Y26865D02*
Y30865D01*
X14421Y19863D02*
X26921D01*
X20671Y13613D02*
Y26113D01*
X8071Y19863D02*
X12071D01*
X10071Y17863D02*
Y21863D01*
X13371Y10683D02*
X17371D01*
X15371Y8683D02*
Y12683D01*
X23971Y10683D02*
X27971D01*
X25971Y8683D02*
Y12683D01*
X29271Y19863D02*
X33271D01*
X31271Y17863D02*
Y21863D01*
X23971Y29043D02*
X27971D01*
X25971Y27043D02*
Y31043D01*
X13371Y29043D02*
X17371D01*
X15371Y27043D02*
Y31043D01*
X13435Y452756D02*
X25935D01*
X19685Y446506D02*
Y459006D01*
X7085Y452756D02*
X11085D01*
X9085Y450756D02*
Y454756D01*
X12385Y443576D02*
X16385D01*
X14385Y441576D02*
Y445576D01*
X22985Y443576D02*
X26985D01*
X24985Y441576D02*
Y445576D01*
X28285Y452756D02*
X32285D01*
X30285Y450756D02*
Y454756D01*
X22985Y461936D02*
X26985D01*
X24985Y459936D02*
Y463936D01*
X12385Y461936D02*
X16385D01*
X14385Y459936D02*
Y463936D01*
X187008Y7874D02*
X190945D01*
X188976Y5906D02*
Y9843D01*
X206693Y21260D02*
X210630D01*
X208661Y19291D02*
Y23228D01*
X167323Y21260D02*
X171260D01*
X169291Y19291D02*
Y23228D01*
X359449Y318307D02*
X372047D01*
X365748Y312008D02*
Y324606D01*
X281496Y390354D02*
X294094D01*
X287795Y384055D02*
Y396654D01*
X248400Y78500D02*
X249600D01*
X249000Y77900D02*
Y79100D01*
X445900Y105000D02*
X447100D01*
X446500Y104400D02*
Y105600D01*
X509400Y161500D02*
X510600D01*
X510000Y160900D02*
Y162100D01*
X541900Y91500D02*
X543100D01*
X542500Y90900D02*
Y92100D01*
X597900Y96500D02*
X599100D01*
X598500Y95900D02*
Y97100D01*
X365900Y80000D02*
X367100D01*
X366500Y79400D02*
Y80600D01*
X678400Y232500D02*
X679600D01*
X679000Y231900D02*
Y233100D01*
X355400Y140000D02*
X356600D01*
X356000Y139400D02*
Y140600D01*
X393900Y147500D02*
X395100D01*
X394500Y146900D02*
Y148100D01*
X355400Y147000D02*
X356600D01*
X356000Y146400D02*
Y147600D01*
X324900Y45000D02*
X326100D01*
X325500Y44400D02*
Y45600D01*
X322400Y45000D02*
X323600D01*
X323000Y44400D02*
Y45600D01*
X319900Y45000D02*
X321100D01*
X320500Y44400D02*
Y45600D01*
X312400Y45000D02*
X313600D01*
X313000Y44400D02*
Y45600D01*
X307400Y45000D02*
X308600D01*
X308000Y44400D02*
Y45600D01*
X334741Y109659D02*
X335941D01*
X335341Y109059D02*
Y110259D01*
X424400Y108500D02*
X425600D01*
X425000Y107900D02*
Y109100D01*
X648900Y170500D02*
X650100D01*
X649500Y169900D02*
Y171100D01*
X582691Y160102D02*
X583891D01*
X583291Y159502D02*
Y160702D01*
X483400Y157500D02*
X484600D01*
X484000Y156900D02*
Y158100D01*
X437900Y160000D02*
X439100D01*
X438500Y159400D02*
Y160600D01*
X291625Y90888D02*
X292825D01*
X292225Y90288D02*
Y91488D01*
X293400Y75000D02*
X294600D01*
X294000Y74400D02*
Y75600D01*
X453400Y172000D02*
X454600D01*
X454000Y171400D02*
Y172600D01*
X352400Y453500D02*
X353600D01*
X353000Y452900D02*
Y454100D01*
X349900Y456000D02*
X351100D01*
X350500Y455400D02*
Y456600D01*
X349900Y453500D02*
X351100D01*
X350500Y452900D02*
Y454100D01*
X349900Y451000D02*
X351100D01*
X350500Y450400D02*
Y451600D01*
X349900Y446000D02*
X351100D01*
X350500Y445400D02*
Y446600D01*
X352400Y448500D02*
X353600D01*
X353000Y447900D02*
Y449100D01*
X349900Y448500D02*
X351100D01*
X350500Y447900D02*
Y449100D01*
X347400Y448500D02*
X348600D01*
X348000Y447900D02*
Y449100D01*
X344900Y446000D02*
X346100D01*
X345500Y445400D02*
Y446600D01*
X344900Y448500D02*
X346100D01*
X345500Y447900D02*
Y449100D01*
X342400Y448500D02*
X343600D01*
X343000Y447900D02*
Y449100D01*
X344900Y451000D02*
X346100D01*
X345500Y450400D02*
Y451600D01*
X344900Y453500D02*
X346100D01*
X345500Y452900D02*
Y454100D01*
X344900Y456000D02*
X346100D01*
X345500Y455400D02*
Y456600D01*
X347400Y453500D02*
X348600D01*
X348000Y452900D02*
Y454100D01*
X342400Y453500D02*
X343600D01*
X343000Y452900D02*
Y454100D01*
X344400Y261500D02*
X345600D01*
X345000Y260900D02*
Y262100D01*
X344400Y264000D02*
X345600D01*
X345000Y263400D02*
Y264600D01*
X344400Y266500D02*
X345600D01*
X345000Y265900D02*
Y267100D01*
X344400Y269000D02*
X345600D01*
X345000Y268400D02*
Y269600D01*
X344400Y271500D02*
X345600D01*
X345000Y270900D02*
Y272100D01*
X344400Y274000D02*
X345600D01*
X345000Y273400D02*
Y274600D01*
X344400Y276500D02*
X345600D01*
X345000Y275900D02*
Y277100D01*
X349400Y261500D02*
X350600D01*
X350000Y260900D02*
Y262100D01*
X346900Y261500D02*
X348100D01*
X347500Y260900D02*
Y262100D01*
X346900Y264000D02*
X348100D01*
X347500Y263400D02*
Y264600D01*
X346900Y266500D02*
X348100D01*
X347500Y265900D02*
Y267100D01*
X346900Y269000D02*
X348100D01*
X347500Y268400D02*
Y269600D01*
X346900Y271500D02*
X348100D01*
X347500Y270900D02*
Y272100D01*
X346900Y274000D02*
X348100D01*
X347500Y273400D02*
Y274600D01*
X346900Y276500D02*
X348100D01*
X347500Y275900D02*
Y277100D01*
X349400Y264000D02*
X350600D01*
X350000Y263400D02*
Y264600D01*
X349400Y266500D02*
X350600D01*
X350000Y265900D02*
Y267100D01*
X349400Y269000D02*
X350600D01*
X350000Y268400D02*
Y269600D01*
X349400Y271500D02*
X350600D01*
X350000Y270900D02*
Y272100D01*
X349400Y274000D02*
X350600D01*
X350000Y273400D02*
Y274600D01*
X349400Y276500D02*
X350600D01*
X350000Y275900D02*
Y277100D01*
X445400Y156000D02*
X446600D01*
X446000Y155400D02*
Y156600D01*
X676900Y224500D02*
X678100D01*
X677500Y223900D02*
Y225100D01*
X676900Y218500D02*
X678100D01*
X677500Y217900D02*
Y219100D01*
X676400Y191500D02*
X677600D01*
X677000Y190900D02*
Y192100D01*
X658900Y188000D02*
X660100D01*
X659500Y187400D02*
Y188600D01*
X640900Y130000D02*
X642100D01*
X641500Y129400D02*
Y130600D01*
X683400Y247000D02*
X684600D01*
X684000Y246400D02*
Y247600D01*
X655900Y84500D02*
X657100D01*
X656500Y83900D02*
Y85100D01*
X530900Y138500D02*
X532100D01*
X531500Y137900D02*
Y139100D01*
X495400Y205000D02*
X496600D01*
X496000Y204400D02*
Y205600D01*
X569900Y260500D02*
X571100D01*
X570500Y259900D02*
Y261100D01*
X541900Y267000D02*
X543100D01*
X542500Y266400D02*
Y267600D01*
X514400Y307000D02*
X515600D01*
X515000Y306400D02*
Y307600D01*
X556400Y291500D02*
X557600D01*
X557000Y290900D02*
Y292100D01*
X565400Y308000D02*
X566600D01*
X566000Y307400D02*
Y308600D01*
X526400Y308500D02*
X527600D01*
X527000Y307900D02*
Y309100D01*
X391400Y132000D02*
X392600D01*
X392000Y131400D02*
Y132600D01*
X472900Y169000D02*
X474100D01*
X473500Y168400D02*
Y169600D01*
X400400Y142500D02*
X401600D01*
X401000Y141900D02*
Y143100D01*
X309900Y45000D02*
X311100D01*
X310500Y44400D02*
Y45600D01*
X651900Y119500D02*
X653100D01*
X652500Y118900D02*
Y120100D01*
X465900Y214500D02*
X467100D01*
X466500Y213900D02*
Y215100D01*
X415900Y101000D02*
X417100D01*
X416500Y100400D02*
Y101600D01*
X22900Y287000D02*
X24100D01*
X23500Y286400D02*
Y287600D01*
X316791Y129110D02*
X317990D01*
X317390Y128509D02*
Y129709D01*
X446400Y180000D02*
X447600D01*
X447000Y179400D02*
Y180600D01*
X584400Y304000D02*
X585600D01*
X585000Y303400D02*
Y304600D01*
X494400Y178500D02*
X495600D01*
X495000Y177900D02*
Y179100D01*
X533400Y113000D02*
X534600D01*
X534000Y112400D02*
Y113600D01*
X352400Y446000D02*
X353600D01*
X353000Y445400D02*
Y446600D01*
X347400Y446000D02*
X348600D01*
X348000Y445400D02*
Y446600D01*
X342400Y446000D02*
X343600D01*
X343000Y445400D02*
Y446600D01*
X352400Y451000D02*
X353600D01*
X353000Y450400D02*
Y451600D01*
X347400Y451000D02*
X348600D01*
X348000Y450400D02*
Y451600D01*
X342400Y451000D02*
X343600D01*
X343000Y450400D02*
Y451600D01*
X352400Y456000D02*
X353600D01*
X353000Y455400D02*
Y456600D01*
X347400Y456000D02*
X348600D01*
X348000Y455400D02*
Y456600D01*
X342400Y456000D02*
X343600D01*
X343000Y455400D02*
Y456600D01*
X529900Y102000D02*
X531100D01*
X530500Y101400D02*
Y102600D01*
X352900Y70500D02*
X354100D01*
X353500Y69900D02*
Y71100D01*
X305400Y103500D02*
X306600D01*
X306000Y102900D02*
Y104100D01*
X308400Y121000D02*
X309600D01*
X309000Y120400D02*
Y121600D01*
X510236Y286664D02*
X511436D01*
X510836Y286064D02*
Y287264D01*
X296302Y146598D02*
X297501D01*
X296901Y145999D02*
Y147198D01*
X275900Y100000D02*
X277100D01*
X276500Y99400D02*
Y100600D01*
X273400Y60500D02*
X274600D01*
X274000Y59900D02*
Y61100D01*
X268900Y51500D02*
X270100D01*
X269500Y50900D02*
Y52100D01*
X431900Y130500D02*
X433100D01*
X432500Y129900D02*
Y131100D01*
X203400Y45300D02*
X204600D01*
X204000Y44700D02*
Y45900D01*
X239400Y53200D02*
X240600D01*
X240000Y52600D02*
Y53800D01*
X265900Y81000D02*
X267100D01*
X266500Y80400D02*
Y81600D01*
X213400Y82000D02*
X214600D01*
X214000Y81400D02*
Y82600D01*
X242900Y96200D02*
X244100D01*
X243500Y95600D02*
Y96800D01*
X598400Y130500D02*
X599600D01*
X599000Y129900D02*
Y131100D01*
X186400Y61500D02*
X187600D01*
X187000Y60900D02*
Y62100D01*
X238400Y99000D02*
X239600D01*
X239000Y98400D02*
Y99600D01*
X453400Y190200D02*
X454600D01*
X454000Y189600D02*
Y190800D01*
X461400Y186000D02*
X462600D01*
X462000Y185400D02*
Y186600D01*
X237900Y113000D02*
X239100D01*
X238500Y112400D02*
Y113600D01*
X203400Y74000D02*
X204600D01*
X204000Y73400D02*
Y74600D01*
X458400Y197500D02*
X459600D01*
X459000Y196900D02*
Y198100D01*
X449900Y227000D02*
X451100D01*
X450500Y226400D02*
Y227600D01*
X456900Y221500D02*
X458100D01*
X457500Y220900D02*
Y222100D01*
X458582Y227000D02*
X459782D01*
X459182Y226400D02*
Y227600D01*
X190900Y64500D02*
X192100D01*
X191500Y63900D02*
Y65100D01*
X195400Y67200D02*
X196600D01*
X196000Y66600D02*
Y67800D01*
X198900Y71000D02*
X200100D01*
X199500Y70400D02*
Y71600D01*
X615400Y99000D02*
X616600D01*
X616000Y98400D02*
Y99600D01*
X595900Y116000D02*
X597100D01*
X596500Y115400D02*
Y116600D01*
X600900Y144000D02*
X602100D01*
X601500Y143400D02*
Y144600D01*
X504400Y220000D02*
X505600D01*
X505000Y219400D02*
Y220600D01*
X308400Y93500D02*
X309600D01*
X309000Y92900D02*
Y94100D01*
X429900Y103500D02*
X431100D01*
X430500Y102900D02*
Y104100D01*
X285900Y152000D02*
X287100D01*
X286500Y151400D02*
Y152600D01*
X346888Y220489D02*
X348089D01*
X347488Y219888D02*
Y221089D01*
X350900Y202500D02*
X352100D01*
X351500Y201900D02*
Y203100D01*
X350900Y190000D02*
X352100D01*
X351500Y189400D02*
Y190600D01*
X350900Y177500D02*
X352100D01*
X351500Y176900D02*
Y178100D01*
X312400Y176000D02*
X313600D01*
X313000Y175400D02*
Y176600D01*
X249900Y60000D02*
X251100D01*
X250500Y59400D02*
Y60600D01*
X337900Y92500D02*
X339100D01*
X338500Y91900D02*
Y93100D01*
X295900Y40000D02*
X297100D01*
X296500Y39400D02*
Y40600D01*
X279900Y43500D02*
X281100D01*
X280500Y42900D02*
Y44100D01*
X311900Y26000D02*
X313100D01*
X312500Y25400D02*
Y26600D01*
X309400Y26000D02*
X310600D01*
X310000Y25400D02*
Y26600D01*
X306900Y26000D02*
X308100D01*
X307500Y25400D02*
Y26600D01*
X304400Y26000D02*
X305600D01*
X305000Y25400D02*
Y26600D01*
X301900Y26000D02*
X303100D01*
X302500Y25400D02*
Y26600D01*
X299400Y26000D02*
X300600D01*
X300000Y25400D02*
Y26600D01*
X296900Y26000D02*
X298100D01*
X297500Y25400D02*
Y26600D01*
X309400Y28500D02*
X310600D01*
X310000Y27900D02*
Y29100D01*
X304400Y28500D02*
X305600D01*
X305000Y27900D02*
Y29100D01*
X299400Y28500D02*
X300600D01*
X300000Y27900D02*
Y29100D01*
X296900Y28500D02*
X298100D01*
X297500Y27900D02*
Y29100D01*
X301900Y28500D02*
X303100D01*
X302500Y27900D02*
Y29100D01*
X311900Y28500D02*
X313100D01*
X312500Y27900D02*
Y29100D01*
X306900Y28500D02*
X308100D01*
X307500Y27900D02*
Y29100D01*
X282900Y9500D02*
X284100D01*
X283500Y8900D02*
Y10100D01*
X216400Y36500D02*
X217600D01*
X217000Y35900D02*
Y37100D01*
X217400Y89000D02*
X218600D01*
X218000Y88400D02*
Y89600D01*
X184400Y161500D02*
X185600D01*
X185000Y160900D02*
Y162100D01*
X203948Y149000D02*
X205148D01*
X204548Y148400D02*
Y149600D01*
X37900Y349000D02*
X39100D01*
X38500Y348400D02*
Y349600D01*
X9400Y323000D02*
X10600D01*
X10000Y322400D02*
Y323600D01*
X106900Y107000D02*
X108100D01*
X107500Y106400D02*
Y107600D01*
X115900Y92500D02*
X117100D01*
X116500Y91900D02*
Y93100D01*
X50900Y79000D02*
X52100D01*
X51500Y78400D02*
Y79600D01*
X573900Y244000D02*
X575100D01*
X574500Y243400D02*
Y244600D01*
X516900Y245500D02*
X518100D01*
X517500Y244900D02*
Y246100D01*
X545400Y250000D02*
X546600D01*
X546000Y249400D02*
Y250600D01*
X472900Y161000D02*
X474100D01*
X473500Y160400D02*
Y161600D01*
X446900Y140500D02*
X448100D01*
X447500Y139900D02*
Y141100D01*
X521400Y167000D02*
X522600D01*
X522000Y166400D02*
Y167600D01*
X458900Y212500D02*
X460100D01*
X459500Y211900D02*
Y213100D01*
X445400Y125000D02*
X446600D01*
X446000Y124400D02*
Y125600D01*
X424400Y141000D02*
X425600D01*
X425000Y140400D02*
Y141600D01*
X425900Y87500D02*
X427100D01*
X426500Y86900D02*
Y88100D01*
X447400Y92500D02*
X448600D01*
X448000Y91900D02*
Y93100D01*
X530900Y122500D02*
X532100D01*
X531500Y121900D02*
Y123100D01*
X594400Y86500D02*
X595600D01*
X595000Y85900D02*
Y87100D01*
X615400Y92000D02*
X616600D01*
X616000Y91400D02*
Y92600D01*
X647900Y147000D02*
X649100D01*
X648500Y146400D02*
Y147600D01*
X640900Y100000D02*
X642100D01*
X641500Y99400D02*
Y100600D01*
X667400Y94500D02*
X668600D01*
X668000Y93900D02*
Y95100D01*
X657900Y220000D02*
X659100D01*
X658500Y219400D02*
Y220600D01*
X683400Y274000D02*
X684600D01*
X684000Y273400D02*
Y274600D01*
X539900Y309000D02*
X541100D01*
X540500Y308400D02*
Y309600D01*
X305498Y86781D02*
X306698D01*
X306098Y86181D02*
Y87381D01*
X233900Y102000D02*
X235100D01*
X234500Y101400D02*
Y102600D01*
X240900Y121000D02*
X242100D01*
X241500Y120400D02*
Y121600D01*
X170900Y73000D02*
X172100D01*
X171500Y72400D02*
Y73600D01*
X74400Y114300D02*
X75600D01*
X75000Y113700D02*
Y114900D01*
X207400Y144000D02*
X208600D01*
X208000Y143400D02*
Y144600D01*
X181900Y86000D02*
X183100D01*
X182500Y85400D02*
Y86600D01*
X185900Y91500D02*
X187100D01*
X186500Y90900D02*
Y92100D01*
X186900Y97000D02*
X188100D01*
X187500Y96400D02*
Y97600D01*
X73900Y96000D02*
X75100D01*
X74500Y95400D02*
Y96600D01*
X85400Y92500D02*
X86600D01*
X86000Y91900D02*
Y93100D01*
X101900Y93000D02*
X103100D01*
X102500Y92400D02*
Y93600D01*
X96400Y93000D02*
X97600D01*
X97000Y92400D02*
Y93600D01*
X90400Y93000D02*
X91600D01*
X91000Y92400D02*
Y93600D01*
X79589Y92712D02*
X80789D01*
X80189Y92112D02*
Y93312D01*
X97900Y59500D02*
X99100D01*
X98500Y58900D02*
Y60100D01*
X91400Y59500D02*
X92600D01*
X92000Y58900D02*
Y60100D01*
X104400Y59500D02*
X105600D01*
X105000Y58900D02*
Y60100D01*
X71900Y60000D02*
X73100D01*
X72500Y59400D02*
Y60600D01*
X84900Y59500D02*
X86100D01*
X85500Y58900D02*
Y60100D01*
X78400Y60000D02*
X79600D01*
X79000Y59400D02*
Y60600D01*
X177400Y80000D02*
X178600D01*
X178000Y79400D02*
Y80600D01*
X237900Y108000D02*
X239100D01*
X238500Y107400D02*
Y108600D01*
X404900Y271500D02*
X406100D01*
X405500Y270900D02*
Y272100D01*
X193900Y100500D02*
X195100D01*
X194500Y99900D02*
Y101100D01*
X695400Y190500D02*
X696600D01*
X696000Y189900D02*
Y191100D01*
X678900Y168000D02*
X680100D01*
X679500Y167400D02*
Y168600D01*
X628400Y387000D02*
X629600D01*
X629000Y386400D02*
Y387600D01*
X28900Y333500D02*
X30100D01*
X29500Y332900D02*
Y334100D01*
X271400Y182500D02*
X272600D01*
X272000Y181900D02*
Y183100D01*
X416400Y90500D02*
X417600D01*
X417000Y89900D02*
Y91100D01*
X320400Y14000D02*
X321600D01*
X321000Y13400D02*
Y14600D01*
X288900Y14000D02*
X290100D01*
X289500Y13400D02*
Y14600D01*
X284400Y83500D02*
X285600D01*
X285000Y82900D02*
Y84100D01*
X302400Y56000D02*
X303600D01*
X303000Y55400D02*
Y56600D01*
X261900Y11500D02*
X263100D01*
X262500Y10900D02*
Y12100D01*
X206400Y82000D02*
X207600D01*
X207000Y81400D02*
Y82600D01*
X172900Y152500D02*
X174100D01*
X173500Y151900D02*
Y153100D01*
X203400Y161500D02*
X204600D01*
X204000Y160900D02*
Y162100D01*
X245276Y318307D02*
X257874D01*
X251575Y312008D02*
Y324606D01*
X167323Y390354D02*
X179921D01*
X173622Y384055D02*
Y396654D01*
X131102Y318307D02*
X143701D01*
X137402Y312008D02*
Y324606D01*
X53150Y390354D02*
X65748D01*
X59449Y384055D02*
Y396654D01*
X36400Y114500D02*
X37600D01*
X37000Y113900D02*
Y115100D01*
X44400Y101500D02*
X45600D01*
X45000Y100900D02*
Y102100D01*
X10900Y103000D02*
X12100D01*
X11500Y102400D02*
Y103600D01*
X50900Y48500D02*
X52100D01*
X51500Y47900D02*
Y49100D01*
X20900Y53500D02*
X22100D01*
X21500Y52900D02*
Y54100D01*
X7900Y427500D02*
X9100D01*
X8500Y426900D02*
Y428100D01*
M02*
